<?xml version="1.0" encoding="utf-8" standalone="no"?>
<!DOCTYPE svg PUBLIC "-//W3C//DTD SVG 1.1//EN"
  "http://www.w3.org/Graphics/SVG/1.1/DTD/svg11.dtd">
<svg height="288pt" version="1.1" viewBox="0 0 432 288" width="432pt" xmlns="http://www.w3.org/2000/svg" xmlns:xlink="http://www.w3.org/1999/xlink">
 <metadata>
  <rdf:RDF xmlns:cc="http://creativecommons.org/ns#" xmlns:dc="http://purl.org/dc/elements/1.1/" xmlns:rdf="http://www.w3.org/1999/02/22-rdf-syntax-ns#">
   <cc:Work>
    <dc:type rdf:resource="http://purl.org/dc/dcmitype/StillImage"/>
    <dc:date>2021-05-18T13:17:41.726371</dc:date>
    <dc:format>image/svg+xml</dc:format>
    <dc:creator>
     <cc:Agent>
      <dc:title>Matplotlib v3.4.1, https://matplotlib.org/</dc:title>
     </cc:Agent>
    </dc:creator>
   </cc:Work>
  </rdf:RDF>
 </metadata>
 <defs>
  <style type="text/css">*{stroke-linecap:butt;stroke-linejoin:round;}</style>
 </defs>
 <g id="figure_1">
  <g id="patch_1">
   <path d="M 0 288 
L 432 288 
L 432 0 
L 0 0 
z
" style="fill:#ffffff;"/>
  </g>
  <g id="axes_1">
   <g id="patch_2">
    <path d="M 108 252 
L 388.8 252 
L 388.8 34.56 
L 108 34.56 
z
" style="fill:#ffffff;"/>
   </g>
   <g id="patch_3">
    <path clip-path="url(#pa21df7d050)" d="M 108 244.234286 
L 375.428571 244.234286 
L 375.428571 228.702857 
L 108 228.702857 
z
" style="fill:#1f77b4;"/>
   </g>
   <g id="patch_4">
    <path clip-path="url(#pa21df7d050)" d="M 108 213.171429 
L 342 213.171429 
L 342 197.64 
L 108 197.64 
z
" style="fill:#1f77b4;"/>
   </g>
   <g id="patch_5">
    <path clip-path="url(#pa21df7d050)" d="M 108 182.108571 
L 319.714286 182.108571 
L 319.714286 166.577143 
L 108 166.577143 
z
" style="fill:#1f77b4;"/>
   </g>
   <g id="patch_6">
    <path clip-path="url(#pa21df7d050)" d="M 108 151.045714 
L 286.285714 151.045714 
L 286.285714 135.514286 
L 108 135.514286 
z
" style="fill:#1f77b4;"/>
   </g>
   <g id="patch_7">
    <path clip-path="url(#pa21df7d050)" d="M 108 119.982857 
L 264 119.982857 
L 264 104.451429 
L 108 104.451429 
z
" style="fill:#1f77b4;"/>
   </g>
   <g id="patch_8">
    <path clip-path="url(#pa21df7d050)" d="M 108 88.92 
L 230.571429 88.92 
L 230.571429 73.388571 
L 108 73.388571 
z
" style="fill:#1f77b4;"/>
   </g>
   <g id="patch_9">
    <path clip-path="url(#pa21df7d050)" d="M 108 57.857143 
L 208.285714 57.857143 
L 208.285714 42.325714 
L 108 42.325714 
z
" style="fill:#1f77b4;"/>
   </g>
   <g id="matplotlib.axis_1">
    <g id="xtick_1">
     <g id="line2d_1">
      <defs>
       <path d="M 0 0 
L 0 4.8 
" id="mfb59c2efeb" style="stroke:#000000;"/>
      </defs>
      <g>
       <use style="stroke:#000000;" x="108" xlink:href="#mfb59c2efeb" y="252"/>
      </g>
     </g>
     <g id="text_1">
      <!-- 0 -->
      <g transform="translate(105.2005 266.986625)scale(0.088 -0.088)">
       <defs>
        <path d="M 2034 4250 
Q 1547 4250 1301 3770 
Q 1056 3291 1056 2328 
Q 1056 1369 1301 889 
Q 1547 409 2034 409 
Q 2525 409 2770 889 
Q 3016 1369 3016 2328 
Q 3016 3291 2770 3770 
Q 2525 4250 2034 4250 
z
M 2034 4750 
Q 2819 4750 3233 4129 
Q 3647 3509 3647 2328 
Q 3647 1150 3233 529 
Q 2819 -91 2034 -91 
Q 1250 -91 836 529 
Q 422 1150 422 2328 
Q 422 3509 836 4129 
Q 1250 4750 2034 4750 
z
" id="DejaVuSans-30" transform="scale(0.015625)"/>
       </defs>
       <use xlink:href="#DejaVuSans-30"/>
      </g>
     </g>
    </g>
    <g id="xtick_2">
     <g id="line2d_2">
      <g>
       <use style="stroke:#000000;" x="163.714286" xlink:href="#mfb59c2efeb" y="252"/>
      </g>
     </g>
     <g id="text_2">
      <!-- 5 -->
      <g transform="translate(160.914786 266.986625)scale(0.088 -0.088)">
       <defs>
        <path d="M 691 4666 
L 3169 4666 
L 3169 4134 
L 1269 4134 
L 1269 2991 
Q 1406 3038 1543 3061 
Q 1681 3084 1819 3084 
Q 2600 3084 3056 2656 
Q 3513 2228 3513 1497 
Q 3513 744 3044 326 
Q 2575 -91 1722 -91 
Q 1428 -91 1123 -41 
Q 819 9 494 109 
L 494 744 
Q 775 591 1075 516 
Q 1375 441 1709 441 
Q 2250 441 2565 725 
Q 2881 1009 2881 1497 
Q 2881 1984 2565 2268 
Q 2250 2553 1709 2553 
Q 1456 2553 1204 2497 
Q 953 2441 691 2322 
L 691 4666 
z
" id="DejaVuSans-35" transform="scale(0.015625)"/>
       </defs>
       <use xlink:href="#DejaVuSans-35"/>
      </g>
     </g>
    </g>
    <g id="xtick_3">
     <g id="line2d_3">
      <g>
       <use style="stroke:#000000;" x="219.428571" xlink:href="#mfb59c2efeb" y="252"/>
      </g>
     </g>
     <g id="text_3">
      <!-- 10 -->
      <g transform="translate(213.829571 266.986625)scale(0.088 -0.088)">
       <defs>
        <path d="M 794 531 
L 1825 531 
L 1825 4091 
L 703 3866 
L 703 4441 
L 1819 4666 
L 2450 4666 
L 2450 531 
L 3481 531 
L 3481 0 
L 794 0 
L 794 531 
z
" id="DejaVuSans-31" transform="scale(0.015625)"/>
       </defs>
       <use xlink:href="#DejaVuSans-31"/>
       <use x="63.623047" xlink:href="#DejaVuSans-30"/>
      </g>
     </g>
    </g>
    <g id="xtick_4">
     <g id="line2d_4">
      <g>
       <use style="stroke:#000000;" x="275.142857" xlink:href="#mfb59c2efeb" y="252"/>
      </g>
     </g>
     <g id="text_4">
      <!-- 15 -->
      <g transform="translate(269.543857 266.986625)scale(0.088 -0.088)">
       <use xlink:href="#DejaVuSans-31"/>
       <use x="63.623047" xlink:href="#DejaVuSans-35"/>
      </g>
     </g>
    </g>
    <g id="xtick_5">
     <g id="line2d_5">
      <g>
       <use style="stroke:#000000;" x="330.857143" xlink:href="#mfb59c2efeb" y="252"/>
      </g>
     </g>
     <g id="text_5">
      <!-- 20 -->
      <g transform="translate(325.258143 266.986625)scale(0.088 -0.088)">
       <defs>
        <path d="M 1228 531 
L 3431 531 
L 3431 0 
L 469 0 
L 469 531 
Q 828 903 1448 1529 
Q 2069 2156 2228 2338 
Q 2531 2678 2651 2914 
Q 2772 3150 2772 3378 
Q 2772 3750 2511 3984 
Q 2250 4219 1831 4219 
Q 1534 4219 1204 4116 
Q 875 4013 500 3803 
L 500 4441 
Q 881 4594 1212 4672 
Q 1544 4750 1819 4750 
Q 2544 4750 2975 4387 
Q 3406 4025 3406 3419 
Q 3406 3131 3298 2873 
Q 3191 2616 2906 2266 
Q 2828 2175 2409 1742 
Q 1991 1309 1228 531 
z
" id="DejaVuSans-32" transform="scale(0.015625)"/>
       </defs>
       <use xlink:href="#DejaVuSans-32"/>
       <use x="63.623047" xlink:href="#DejaVuSans-30"/>
      </g>
     </g>
    </g>
    <g id="xtick_6">
     <g id="line2d_6">
      <g>
       <use style="stroke:#000000;" x="386.571429" xlink:href="#mfb59c2efeb" y="252"/>
      </g>
     </g>
     <g id="text_6">
      <!-- 25 -->
      <g transform="translate(380.972429 266.986625)scale(0.088 -0.088)">
       <use xlink:href="#DejaVuSans-32"/>
       <use x="63.623047" xlink:href="#DejaVuSans-35"/>
      </g>
     </g>
    </g>
    <g id="text_7">
     <!-- NOAA Stations within 120nm -->
     <g transform="translate(178.836 280.11125)scale(0.096 -0.096)">
      <defs>
       <path d="M 628 4666 
L 1478 4666 
L 3547 763 
L 3547 4666 
L 4159 4666 
L 4159 0 
L 3309 0 
L 1241 3903 
L 1241 0 
L 628 0 
L 628 4666 
z
" id="DejaVuSans-4e" transform="scale(0.015625)"/>
       <path d="M 2522 4238 
Q 1834 4238 1429 3725 
Q 1025 3213 1025 2328 
Q 1025 1447 1429 934 
Q 1834 422 2522 422 
Q 3209 422 3611 934 
Q 4013 1447 4013 2328 
Q 4013 3213 3611 3725 
Q 3209 4238 2522 4238 
z
M 2522 4750 
Q 3503 4750 4090 4092 
Q 4678 3434 4678 2328 
Q 4678 1225 4090 567 
Q 3503 -91 2522 -91 
Q 1538 -91 948 565 
Q 359 1222 359 2328 
Q 359 3434 948 4092 
Q 1538 4750 2522 4750 
z
" id="DejaVuSans-4f" transform="scale(0.015625)"/>
       <path d="M 2188 4044 
L 1331 1722 
L 3047 1722 
L 2188 4044 
z
M 1831 4666 
L 2547 4666 
L 4325 0 
L 3669 0 
L 3244 1197 
L 1141 1197 
L 716 0 
L 50 0 
L 1831 4666 
z
" id="DejaVuSans-41" transform="scale(0.015625)"/>
       <path id="DejaVuSans-20" transform="scale(0.015625)"/>
       <path d="M 3425 4513 
L 3425 3897 
Q 3066 4069 2747 4153 
Q 2428 4238 2131 4238 
Q 1616 4238 1336 4038 
Q 1056 3838 1056 3469 
Q 1056 3159 1242 3001 
Q 1428 2844 1947 2747 
L 2328 2669 
Q 3034 2534 3370 2195 
Q 3706 1856 3706 1288 
Q 3706 609 3251 259 
Q 2797 -91 1919 -91 
Q 1588 -91 1214 -16 
Q 841 59 441 206 
L 441 856 
Q 825 641 1194 531 
Q 1563 422 1919 422 
Q 2459 422 2753 634 
Q 3047 847 3047 1241 
Q 3047 1584 2836 1778 
Q 2625 1972 2144 2069 
L 1759 2144 
Q 1053 2284 737 2584 
Q 422 2884 422 3419 
Q 422 4038 858 4394 
Q 1294 4750 2059 4750 
Q 2388 4750 2728 4690 
Q 3069 4631 3425 4513 
z
" id="DejaVuSans-53" transform="scale(0.015625)"/>
       <path d="M 1172 4494 
L 1172 3500 
L 2356 3500 
L 2356 3053 
L 1172 3053 
L 1172 1153 
Q 1172 725 1289 603 
Q 1406 481 1766 481 
L 2356 481 
L 2356 0 
L 1766 0 
Q 1100 0 847 248 
Q 594 497 594 1153 
L 594 3053 
L 172 3053 
L 172 3500 
L 594 3500 
L 594 4494 
L 1172 4494 
z
" id="DejaVuSans-74" transform="scale(0.015625)"/>
       <path d="M 2194 1759 
Q 1497 1759 1228 1600 
Q 959 1441 959 1056 
Q 959 750 1161 570 
Q 1363 391 1709 391 
Q 2188 391 2477 730 
Q 2766 1069 2766 1631 
L 2766 1759 
L 2194 1759 
z
M 3341 1997 
L 3341 0 
L 2766 0 
L 2766 531 
Q 2569 213 2275 61 
Q 1981 -91 1556 -91 
Q 1019 -91 701 211 
Q 384 513 384 1019 
Q 384 1609 779 1909 
Q 1175 2209 1959 2209 
L 2766 2209 
L 2766 2266 
Q 2766 2663 2505 2880 
Q 2244 3097 1772 3097 
Q 1472 3097 1187 3025 
Q 903 2953 641 2809 
L 641 3341 
Q 956 3463 1253 3523 
Q 1550 3584 1831 3584 
Q 2591 3584 2966 3190 
Q 3341 2797 3341 1997 
z
" id="DejaVuSans-61" transform="scale(0.015625)"/>
       <path d="M 603 3500 
L 1178 3500 
L 1178 0 
L 603 0 
L 603 3500 
z
M 603 4863 
L 1178 4863 
L 1178 4134 
L 603 4134 
L 603 4863 
z
" id="DejaVuSans-69" transform="scale(0.015625)"/>
       <path d="M 1959 3097 
Q 1497 3097 1228 2736 
Q 959 2375 959 1747 
Q 959 1119 1226 758 
Q 1494 397 1959 397 
Q 2419 397 2687 759 
Q 2956 1122 2956 1747 
Q 2956 2369 2687 2733 
Q 2419 3097 1959 3097 
z
M 1959 3584 
Q 2709 3584 3137 3096 
Q 3566 2609 3566 1747 
Q 3566 888 3137 398 
Q 2709 -91 1959 -91 
Q 1206 -91 779 398 
Q 353 888 353 1747 
Q 353 2609 779 3096 
Q 1206 3584 1959 3584 
z
" id="DejaVuSans-6f" transform="scale(0.015625)"/>
       <path d="M 3513 2113 
L 3513 0 
L 2938 0 
L 2938 2094 
Q 2938 2591 2744 2837 
Q 2550 3084 2163 3084 
Q 1697 3084 1428 2787 
Q 1159 2491 1159 1978 
L 1159 0 
L 581 0 
L 581 3500 
L 1159 3500 
L 1159 2956 
Q 1366 3272 1645 3428 
Q 1925 3584 2291 3584 
Q 2894 3584 3203 3211 
Q 3513 2838 3513 2113 
z
" id="DejaVuSans-6e" transform="scale(0.015625)"/>
       <path d="M 2834 3397 
L 2834 2853 
Q 2591 2978 2328 3040 
Q 2066 3103 1784 3103 
Q 1356 3103 1142 2972 
Q 928 2841 928 2578 
Q 928 2378 1081 2264 
Q 1234 2150 1697 2047 
L 1894 2003 
Q 2506 1872 2764 1633 
Q 3022 1394 3022 966 
Q 3022 478 2636 193 
Q 2250 -91 1575 -91 
Q 1294 -91 989 -36 
Q 684 19 347 128 
L 347 722 
Q 666 556 975 473 
Q 1284 391 1588 391 
Q 1994 391 2212 530 
Q 2431 669 2431 922 
Q 2431 1156 2273 1281 
Q 2116 1406 1581 1522 
L 1381 1569 
Q 847 1681 609 1914 
Q 372 2147 372 2553 
Q 372 3047 722 3315 
Q 1072 3584 1716 3584 
Q 2034 3584 2315 3537 
Q 2597 3491 2834 3397 
z
" id="DejaVuSans-73" transform="scale(0.015625)"/>
       <path d="M 269 3500 
L 844 3500 
L 1563 769 
L 2278 3500 
L 2956 3500 
L 3675 769 
L 4391 3500 
L 4966 3500 
L 4050 0 
L 3372 0 
L 2619 2869 
L 1863 0 
L 1184 0 
L 269 3500 
z
" id="DejaVuSans-77" transform="scale(0.015625)"/>
       <path d="M 3513 2113 
L 3513 0 
L 2938 0 
L 2938 2094 
Q 2938 2591 2744 2837 
Q 2550 3084 2163 3084 
Q 1697 3084 1428 2787 
Q 1159 2491 1159 1978 
L 1159 0 
L 581 0 
L 581 4863 
L 1159 4863 
L 1159 2956 
Q 1366 3272 1645 3428 
Q 1925 3584 2291 3584 
Q 2894 3584 3203 3211 
Q 3513 2838 3513 2113 
z
" id="DejaVuSans-68" transform="scale(0.015625)"/>
       <path d="M 3328 2828 
Q 3544 3216 3844 3400 
Q 4144 3584 4550 3584 
Q 5097 3584 5394 3201 
Q 5691 2819 5691 2113 
L 5691 0 
L 5113 0 
L 5113 2094 
Q 5113 2597 4934 2840 
Q 4756 3084 4391 3084 
Q 3944 3084 3684 2787 
Q 3425 2491 3425 1978 
L 3425 0 
L 2847 0 
L 2847 2094 
Q 2847 2600 2669 2842 
Q 2491 3084 2119 3084 
Q 1678 3084 1418 2786 
Q 1159 2488 1159 1978 
L 1159 0 
L 581 0 
L 581 3500 
L 1159 3500 
L 1159 2956 
Q 1356 3278 1631 3431 
Q 1906 3584 2284 3584 
Q 2666 3584 2933 3390 
Q 3200 3197 3328 2828 
z
" id="DejaVuSans-6d" transform="scale(0.015625)"/>
      </defs>
      <use xlink:href="#DejaVuSans-4e"/>
      <use x="74.804688" xlink:href="#DejaVuSans-4f"/>
      <use x="151.765625" xlink:href="#DejaVuSans-41"/>
      <use x="222.923828" xlink:href="#DejaVuSans-41"/>
      <use x="291.332031" xlink:href="#DejaVuSans-20"/>
      <use x="323.119141" xlink:href="#DejaVuSans-53"/>
      <use x="386.595703" xlink:href="#DejaVuSans-74"/>
      <use x="425.804688" xlink:href="#DejaVuSans-61"/>
      <use x="487.083984" xlink:href="#DejaVuSans-74"/>
      <use x="526.292969" xlink:href="#DejaVuSans-69"/>
      <use x="554.076172" xlink:href="#DejaVuSans-6f"/>
      <use x="615.257812" xlink:href="#DejaVuSans-6e"/>
      <use x="678.636719" xlink:href="#DejaVuSans-73"/>
      <use x="730.736328" xlink:href="#DejaVuSans-20"/>
      <use x="762.523438" xlink:href="#DejaVuSans-77"/>
      <use x="844.310547" xlink:href="#DejaVuSans-69"/>
      <use x="872.09375" xlink:href="#DejaVuSans-74"/>
      <use x="911.302734" xlink:href="#DejaVuSans-68"/>
      <use x="974.681641" xlink:href="#DejaVuSans-69"/>
      <use x="1002.464844" xlink:href="#DejaVuSans-6e"/>
      <use x="1065.84375" xlink:href="#DejaVuSans-20"/>
      <use x="1097.630859" xlink:href="#DejaVuSans-31"/>
      <use x="1161.253906" xlink:href="#DejaVuSans-32"/>
      <use x="1224.876953" xlink:href="#DejaVuSans-30"/>
      <use x="1288.5" xlink:href="#DejaVuSans-6e"/>
      <use x="1351.878906" xlink:href="#DejaVuSans-6d"/>
     </g>
    </g>
   </g>
   <g id="matplotlib.axis_2">
    <g id="ytick_1">
     <g id="line2d_7">
      <defs>
       <path d="M 0 0 
L -4.8 0 
" id="mb08441402c" style="stroke:#000000;"/>
      </defs>
      <g>
       <use style="stroke:#000000;" x="108" xlink:href="#mb08441402c" y="236.468571"/>
      </g>
     </g>
     <g id="text_8">
      <!-- Tampa, FL -->
      <g transform="translate(64.49219 266.80327)rotate(-40)scale(0.088 -0.088)">
       <defs>
        <path d="M -19 4666 
L 3928 4666 
L 3928 4134 
L 2272 4134 
L 2272 0 
L 1638 0 
L 1638 4134 
L -19 4134 
L -19 4666 
z
" id="DejaVuSans-54" transform="scale(0.015625)"/>
        <path d="M 1159 525 
L 1159 -1331 
L 581 -1331 
L 581 3500 
L 1159 3500 
L 1159 2969 
Q 1341 3281 1617 3432 
Q 1894 3584 2278 3584 
Q 2916 3584 3314 3078 
Q 3713 2572 3713 1747 
Q 3713 922 3314 415 
Q 2916 -91 2278 -91 
Q 1894 -91 1617 61 
Q 1341 213 1159 525 
z
M 3116 1747 
Q 3116 2381 2855 2742 
Q 2594 3103 2138 3103 
Q 1681 3103 1420 2742 
Q 1159 2381 1159 1747 
Q 1159 1113 1420 752 
Q 1681 391 2138 391 
Q 2594 391 2855 752 
Q 3116 1113 3116 1747 
z
" id="DejaVuSans-70" transform="scale(0.015625)"/>
        <path d="M 750 794 
L 1409 794 
L 1409 256 
L 897 -744 
L 494 -744 
L 750 256 
L 750 794 
z
" id="DejaVuSans-2c" transform="scale(0.015625)"/>
        <path d="M 628 4666 
L 3309 4666 
L 3309 4134 
L 1259 4134 
L 1259 2759 
L 3109 2759 
L 3109 2228 
L 1259 2228 
L 1259 0 
L 628 0 
L 628 4666 
z
" id="DejaVuSans-46" transform="scale(0.015625)"/>
        <path d="M 628 4666 
L 1259 4666 
L 1259 531 
L 3531 531 
L 3531 0 
L 628 0 
L 628 4666 
z
" id="DejaVuSans-4c" transform="scale(0.015625)"/>
       </defs>
       <use xlink:href="#DejaVuSans-54"/>
       <use x="44.583984" xlink:href="#DejaVuSans-61"/>
       <use x="105.863281" xlink:href="#DejaVuSans-6d"/>
       <use x="203.275391" xlink:href="#DejaVuSans-70"/>
       <use x="266.751953" xlink:href="#DejaVuSans-61"/>
       <use x="328.03125" xlink:href="#DejaVuSans-2c"/>
       <use x="359.818359" xlink:href="#DejaVuSans-20"/>
       <use x="391.605469" xlink:href="#DejaVuSans-46"/>
       <use x="449.125" xlink:href="#DejaVuSans-4c"/>
      </g>
     </g>
    </g>
    <g id="ytick_2">
     <g id="line2d_8">
      <g>
       <use style="stroke:#000000;" x="108" xlink:href="#mb08441402c" y="205.405714"/>
      </g>
     </g>
     <g id="text_9">
      <!-- Pensacola, FL -->
      <g transform="translate(52.886808 245.478485)rotate(-40)scale(0.088 -0.088)">
       <defs>
        <path d="M 1259 4147 
L 1259 2394 
L 2053 2394 
Q 2494 2394 2734 2622 
Q 2975 2850 2975 3272 
Q 2975 3691 2734 3919 
Q 2494 4147 2053 4147 
L 1259 4147 
z
M 628 4666 
L 2053 4666 
Q 2838 4666 3239 4311 
Q 3641 3956 3641 3272 
Q 3641 2581 3239 2228 
Q 2838 1875 2053 1875 
L 1259 1875 
L 1259 0 
L 628 0 
L 628 4666 
z
" id="DejaVuSans-50" transform="scale(0.015625)"/>
        <path d="M 3597 1894 
L 3597 1613 
L 953 1613 
Q 991 1019 1311 708 
Q 1631 397 2203 397 
Q 2534 397 2845 478 
Q 3156 559 3463 722 
L 3463 178 
Q 3153 47 2828 -22 
Q 2503 -91 2169 -91 
Q 1331 -91 842 396 
Q 353 884 353 1716 
Q 353 2575 817 3079 
Q 1281 3584 2069 3584 
Q 2775 3584 3186 3129 
Q 3597 2675 3597 1894 
z
M 3022 2063 
Q 3016 2534 2758 2815 
Q 2500 3097 2075 3097 
Q 1594 3097 1305 2825 
Q 1016 2553 972 2059 
L 3022 2063 
z
" id="DejaVuSans-65" transform="scale(0.015625)"/>
        <path d="M 3122 3366 
L 3122 2828 
Q 2878 2963 2633 3030 
Q 2388 3097 2138 3097 
Q 1578 3097 1268 2742 
Q 959 2388 959 1747 
Q 959 1106 1268 751 
Q 1578 397 2138 397 
Q 2388 397 2633 464 
Q 2878 531 3122 666 
L 3122 134 
Q 2881 22 2623 -34 
Q 2366 -91 2075 -91 
Q 1284 -91 818 406 
Q 353 903 353 1747 
Q 353 2603 823 3093 
Q 1294 3584 2113 3584 
Q 2378 3584 2631 3529 
Q 2884 3475 3122 3366 
z
" id="DejaVuSans-63" transform="scale(0.015625)"/>
        <path d="M 603 4863 
L 1178 4863 
L 1178 0 
L 603 0 
L 603 4863 
z
" id="DejaVuSans-6c" transform="scale(0.015625)"/>
       </defs>
       <use xlink:href="#DejaVuSans-50"/>
       <use x="56.677734" xlink:href="#DejaVuSans-65"/>
       <use x="118.201172" xlink:href="#DejaVuSans-6e"/>
       <use x="181.580078" xlink:href="#DejaVuSans-73"/>
       <use x="233.679688" xlink:href="#DejaVuSans-61"/>
       <use x="294.958984" xlink:href="#DejaVuSans-63"/>
       <use x="349.939453" xlink:href="#DejaVuSans-6f"/>
       <use x="411.121094" xlink:href="#DejaVuSans-6c"/>
       <use x="438.904297" xlink:href="#DejaVuSans-61"/>
       <use x="500.183594" xlink:href="#DejaVuSans-2c"/>
       <use x="531.970703" xlink:href="#DejaVuSans-20"/>
       <use x="563.757812" xlink:href="#DejaVuSans-46"/>
       <use x="621.277344" xlink:href="#DejaVuSans-4c"/>
      </g>
     </g>
    </g>
    <g id="ytick_3">
     <g id="line2d_9">
      <g>
       <use style="stroke:#000000;" x="108" xlink:href="#mb08441402c" y="174.342857"/>
      </g>
     </g>
     <g id="text_10">
      <!-- Jacksonville, FL -->
      <g transform="translate(47.210514 219.178603)rotate(-40)scale(0.088 -0.088)">
       <defs>
        <path d="M 628 4666 
L 1259 4666 
L 1259 325 
Q 1259 -519 939 -900 
Q 619 -1281 -91 -1281 
L -331 -1281 
L -331 -750 
L -134 -750 
Q 284 -750 456 -515 
Q 628 -281 628 325 
L 628 4666 
z
" id="DejaVuSans-4a" transform="scale(0.015625)"/>
        <path d="M 581 4863 
L 1159 4863 
L 1159 1991 
L 2875 3500 
L 3609 3500 
L 1753 1863 
L 3688 0 
L 2938 0 
L 1159 1709 
L 1159 0 
L 581 0 
L 581 4863 
z
" id="DejaVuSans-6b" transform="scale(0.015625)"/>
        <path d="M 191 3500 
L 800 3500 
L 1894 563 
L 2988 3500 
L 3597 3500 
L 2284 0 
L 1503 0 
L 191 3500 
z
" id="DejaVuSans-76" transform="scale(0.015625)"/>
       </defs>
       <use xlink:href="#DejaVuSans-4a"/>
       <use x="29.492188" xlink:href="#DejaVuSans-61"/>
       <use x="90.771484" xlink:href="#DejaVuSans-63"/>
       <use x="145.751953" xlink:href="#DejaVuSans-6b"/>
       <use x="203.662109" xlink:href="#DejaVuSans-73"/>
       <use x="255.761719" xlink:href="#DejaVuSans-6f"/>
       <use x="316.943359" xlink:href="#DejaVuSans-6e"/>
       <use x="380.322266" xlink:href="#DejaVuSans-76"/>
       <use x="439.501953" xlink:href="#DejaVuSans-69"/>
       <use x="467.285156" xlink:href="#DejaVuSans-6c"/>
       <use x="495.068359" xlink:href="#DejaVuSans-6c"/>
       <use x="522.851562" xlink:href="#DejaVuSans-65"/>
       <use x="584.375" xlink:href="#DejaVuSans-2c"/>
       <use x="616.162109" xlink:href="#DejaVuSans-20"/>
       <use x="647.949219" xlink:href="#DejaVuSans-46"/>
       <use x="705.46875" xlink:href="#DejaVuSans-4c"/>
      </g>
     </g>
    </g>
    <g id="ytick_4">
     <g id="line2d_10">
      <g>
       <use style="stroke:#000000;" x="108" xlink:href="#mb08441402c" y="143.28"/>
      </g>
     </g>
     <g id="text_11">
      <!-- Daytona, FL -->
      <g transform="translate(58.122817 178.959237)rotate(-40)scale(0.088 -0.088)">
       <defs>
        <path d="M 1259 4147 
L 1259 519 
L 2022 519 
Q 2988 519 3436 956 
Q 3884 1394 3884 2338 
Q 3884 3275 3436 3711 
Q 2988 4147 2022 4147 
L 1259 4147 
z
M 628 4666 
L 1925 4666 
Q 3281 4666 3915 4102 
Q 4550 3538 4550 2338 
Q 4550 1131 3912 565 
Q 3275 0 1925 0 
L 628 0 
L 628 4666 
z
" id="DejaVuSans-44" transform="scale(0.015625)"/>
        <path d="M 2059 -325 
Q 1816 -950 1584 -1140 
Q 1353 -1331 966 -1331 
L 506 -1331 
L 506 -850 
L 844 -850 
Q 1081 -850 1212 -737 
Q 1344 -625 1503 -206 
L 1606 56 
L 191 3500 
L 800 3500 
L 1894 763 
L 2988 3500 
L 3597 3500 
L 2059 -325 
z
" id="DejaVuSans-79" transform="scale(0.015625)"/>
       </defs>
       <use xlink:href="#DejaVuSans-44"/>
       <use x="77.001953" xlink:href="#DejaVuSans-61"/>
       <use x="138.28125" xlink:href="#DejaVuSans-79"/>
       <use x="197.460938" xlink:href="#DejaVuSans-74"/>
       <use x="236.669922" xlink:href="#DejaVuSans-6f"/>
       <use x="297.851562" xlink:href="#DejaVuSans-6e"/>
       <use x="361.230469" xlink:href="#DejaVuSans-61"/>
       <use x="422.509766" xlink:href="#DejaVuSans-2c"/>
       <use x="454.296875" xlink:href="#DejaVuSans-20"/>
       <use x="486.083984" xlink:href="#DejaVuSans-46"/>
       <use x="543.603516" xlink:href="#DejaVuSans-4c"/>
      </g>
     </g>
    </g>
    <g id="ytick_5">
     <g id="line2d_11">
      <g>
       <use style="stroke:#000000;" x="108" xlink:href="#mb08441402c" y="112.217143"/>
      </g>
     </g>
     <g id="text_12">
      <!-- Tallahassee, FL -->
      <g transform="translate(47.869887 156.499609)rotate(-40)scale(0.088 -0.088)">
       <use xlink:href="#DejaVuSans-54"/>
       <use x="44.583984" xlink:href="#DejaVuSans-61"/>
       <use x="105.863281" xlink:href="#DejaVuSans-6c"/>
       <use x="133.646484" xlink:href="#DejaVuSans-6c"/>
       <use x="161.429688" xlink:href="#DejaVuSans-61"/>
       <use x="222.708984" xlink:href="#DejaVuSans-68"/>
       <use x="286.087891" xlink:href="#DejaVuSans-61"/>
       <use x="347.367188" xlink:href="#DejaVuSans-73"/>
       <use x="399.466797" xlink:href="#DejaVuSans-73"/>
       <use x="451.566406" xlink:href="#DejaVuSans-65"/>
       <use x="513.089844" xlink:href="#DejaVuSans-65"/>
       <use x="574.613281" xlink:href="#DejaVuSans-2c"/>
       <use x="606.400391" xlink:href="#DejaVuSans-20"/>
       <use x="638.1875" xlink:href="#DejaVuSans-46"/>
       <use x="695.707031" xlink:href="#DejaVuSans-4c"/>
      </g>
     </g>
    </g>
    <g id="ytick_6">
     <g id="line2d_12">
      <g>
       <use style="stroke:#000000;" x="108" xlink:href="#mb08441402c" y="81.154286"/>
      </g>
     </g>
     <g id="text_13">
      <!-- Panama City, FL -->
      <g transform="translate(44.25703 128.468299)rotate(-40)scale(0.088 -0.088)">
       <defs>
        <path d="M 4122 4306 
L 4122 3641 
Q 3803 3938 3442 4084 
Q 3081 4231 2675 4231 
Q 1875 4231 1450 3742 
Q 1025 3253 1025 2328 
Q 1025 1406 1450 917 
Q 1875 428 2675 428 
Q 3081 428 3442 575 
Q 3803 722 4122 1019 
L 4122 359 
Q 3791 134 3420 21 
Q 3050 -91 2638 -91 
Q 1578 -91 968 557 
Q 359 1206 359 2328 
Q 359 3453 968 4101 
Q 1578 4750 2638 4750 
Q 3056 4750 3426 4639 
Q 3797 4528 4122 4306 
z
" id="DejaVuSans-43" transform="scale(0.015625)"/>
       </defs>
       <use xlink:href="#DejaVuSans-50"/>
       <use x="55.802734" xlink:href="#DejaVuSans-61"/>
       <use x="117.082031" xlink:href="#DejaVuSans-6e"/>
       <use x="180.460938" xlink:href="#DejaVuSans-61"/>
       <use x="241.740234" xlink:href="#DejaVuSans-6d"/>
       <use x="339.152344" xlink:href="#DejaVuSans-61"/>
       <use x="400.431641" xlink:href="#DejaVuSans-20"/>
       <use x="432.21875" xlink:href="#DejaVuSans-43"/>
       <use x="502.042969" xlink:href="#DejaVuSans-69"/>
       <use x="529.826172" xlink:href="#DejaVuSans-74"/>
       <use x="569.035156" xlink:href="#DejaVuSans-79"/>
       <use x="628.214844" xlink:href="#DejaVuSans-2c"/>
       <use x="660.001953" xlink:href="#DejaVuSans-20"/>
       <use x="691.789062" xlink:href="#DejaVuSans-46"/>
       <use x="749.308594" xlink:href="#DejaVuSans-4c"/>
      </g>
     </g>
    </g>
    <g id="ytick_7">
     <g id="line2d_13">
      <g>
       <use style="stroke:#000000;" x="108" xlink:href="#mb08441402c" y="50.091429"/>
      </g>
     </g>
     <g id="text_14">
      <!-- Cape Canaveral, FL -->
      <g transform="translate(33.042427 106.815612)rotate(-40)scale(0.088 -0.088)">
       <defs>
        <path d="M 2631 2963 
Q 2534 3019 2420 3045 
Q 2306 3072 2169 3072 
Q 1681 3072 1420 2755 
Q 1159 2438 1159 1844 
L 1159 0 
L 581 0 
L 581 3500 
L 1159 3500 
L 1159 2956 
Q 1341 3275 1631 3429 
Q 1922 3584 2338 3584 
Q 2397 3584 2469 3576 
Q 2541 3569 2628 3553 
L 2631 2963 
z
" id="DejaVuSans-72" transform="scale(0.015625)"/>
       </defs>
       <use xlink:href="#DejaVuSans-43"/>
       <use x="69.824219" xlink:href="#DejaVuSans-61"/>
       <use x="131.103516" xlink:href="#DejaVuSans-70"/>
       <use x="194.580078" xlink:href="#DejaVuSans-65"/>
       <use x="256.103516" xlink:href="#DejaVuSans-20"/>
       <use x="287.890625" xlink:href="#DejaVuSans-43"/>
       <use x="357.714844" xlink:href="#DejaVuSans-61"/>
       <use x="418.994141" xlink:href="#DejaVuSans-6e"/>
       <use x="482.373047" xlink:href="#DejaVuSans-61"/>
       <use x="543.652344" xlink:href="#DejaVuSans-76"/>
       <use x="602.832031" xlink:href="#DejaVuSans-65"/>
       <use x="664.355469" xlink:href="#DejaVuSans-72"/>
       <use x="705.46875" xlink:href="#DejaVuSans-61"/>
       <use x="766.748047" xlink:href="#DejaVuSans-6c"/>
       <use x="794.53125" xlink:href="#DejaVuSans-2c"/>
       <use x="826.318359" xlink:href="#DejaVuSans-20"/>
       <use x="858.105469" xlink:href="#DejaVuSans-46"/>
       <use x="915.625" xlink:href="#DejaVuSans-4c"/>
      </g>
     </g>
    </g>
    <g id="text_15">
     <!-- Splashdown Site -->
     <g transform="translate(22.747847 182.88525)rotate(-90)scale(0.096 -0.096)">
      <defs>
       <path d="M 2906 2969 
L 2906 4863 
L 3481 4863 
L 3481 0 
L 2906 0 
L 2906 525 
Q 2725 213 2448 61 
Q 2172 -91 1784 -91 
Q 1150 -91 751 415 
Q 353 922 353 1747 
Q 353 2572 751 3078 
Q 1150 3584 1784 3584 
Q 2172 3584 2448 3432 
Q 2725 3281 2906 2969 
z
M 947 1747 
Q 947 1113 1208 752 
Q 1469 391 1925 391 
Q 2381 391 2643 752 
Q 2906 1113 2906 1747 
Q 2906 2381 2643 2742 
Q 2381 3103 1925 3103 
Q 1469 3103 1208 2742 
Q 947 2381 947 1747 
z
" id="DejaVuSans-64" transform="scale(0.015625)"/>
      </defs>
      <use xlink:href="#DejaVuSans-53"/>
      <use x="63.476562" xlink:href="#DejaVuSans-70"/>
      <use x="126.953125" xlink:href="#DejaVuSans-6c"/>
      <use x="154.736328" xlink:href="#DejaVuSans-61"/>
      <use x="216.015625" xlink:href="#DejaVuSans-73"/>
      <use x="268.115234" xlink:href="#DejaVuSans-68"/>
      <use x="331.494141" xlink:href="#DejaVuSans-64"/>
      <use x="394.970703" xlink:href="#DejaVuSans-6f"/>
      <use x="456.152344" xlink:href="#DejaVuSans-77"/>
      <use x="537.939453" xlink:href="#DejaVuSans-6e"/>
      <use x="601.318359" xlink:href="#DejaVuSans-20"/>
      <use x="633.105469" xlink:href="#DejaVuSans-53"/>
      <use x="696.582031" xlink:href="#DejaVuSans-69"/>
      <use x="724.365234" xlink:href="#DejaVuSans-74"/>
      <use x="763.574219" xlink:href="#DejaVuSans-65"/>
     </g>
    </g>
   </g>
   <g id="patch_10">
    <path d="M 108 252 
L 108 34.56 
" style="fill:none;stroke:#000000;stroke-linecap:square;stroke-linejoin:miter;"/>
   </g>
   <g id="patch_11">
    <path d="M 388.8 252 
L 388.8 34.56 
" style="fill:none;stroke:#000000;stroke-linecap:square;stroke-linejoin:miter;"/>
   </g>
   <g id="patch_12">
    <path d="M 108 252 
L 388.8 252 
" style="fill:none;stroke:#000000;stroke-linecap:square;stroke-linejoin:miter;"/>
   </g>
   <g id="patch_13">
    <path d="M 108 34.56 
L 388.8 34.56 
" style="fill:none;stroke:#000000;stroke-linecap:square;stroke-linejoin:miter;"/>
   </g>
   <g id="text_16">
    <!-- Nearby Active NOAA Weather Stations -->
    <g transform="translate(156.34275 28.56)scale(0.096 -0.096)">
     <defs>
      <path d="M 3116 1747 
Q 3116 2381 2855 2742 
Q 2594 3103 2138 3103 
Q 1681 3103 1420 2742 
Q 1159 2381 1159 1747 
Q 1159 1113 1420 752 
Q 1681 391 2138 391 
Q 2594 391 2855 752 
Q 3116 1113 3116 1747 
z
M 1159 2969 
Q 1341 3281 1617 3432 
Q 1894 3584 2278 3584 
Q 2916 3584 3314 3078 
Q 3713 2572 3713 1747 
Q 3713 922 3314 415 
Q 2916 -91 2278 -91 
Q 1894 -91 1617 61 
Q 1341 213 1159 525 
L 1159 0 
L 581 0 
L 581 4863 
L 1159 4863 
L 1159 2969 
z
" id="DejaVuSans-62" transform="scale(0.015625)"/>
      <path d="M 213 4666 
L 850 4666 
L 1831 722 
L 2809 4666 
L 3519 4666 
L 4500 722 
L 5478 4666 
L 6119 4666 
L 4947 0 
L 4153 0 
L 3169 4050 
L 2175 0 
L 1381 0 
L 213 4666 
z
" id="DejaVuSans-57" transform="scale(0.015625)"/>
     </defs>
     <use xlink:href="#DejaVuSans-4e"/>
     <use x="74.804688" xlink:href="#DejaVuSans-65"/>
     <use x="136.328125" xlink:href="#DejaVuSans-61"/>
     <use x="197.607422" xlink:href="#DejaVuSans-72"/>
     <use x="238.720703" xlink:href="#DejaVuSans-62"/>
     <use x="302.197266" xlink:href="#DejaVuSans-79"/>
     <use x="361.376953" xlink:href="#DejaVuSans-20"/>
     <use x="393.164062" xlink:href="#DejaVuSans-41"/>
     <use x="459.822266" xlink:href="#DejaVuSans-63"/>
     <use x="514.802734" xlink:href="#DejaVuSans-74"/>
     <use x="554.011719" xlink:href="#DejaVuSans-69"/>
     <use x="581.794922" xlink:href="#DejaVuSans-76"/>
     <use x="640.974609" xlink:href="#DejaVuSans-65"/>
     <use x="702.498047" xlink:href="#DejaVuSans-20"/>
     <use x="734.285156" xlink:href="#DejaVuSans-4e"/>
     <use x="809.089844" xlink:href="#DejaVuSans-4f"/>
     <use x="886.050781" xlink:href="#DejaVuSans-41"/>
     <use x="957.208984" xlink:href="#DejaVuSans-41"/>
     <use x="1025.617188" xlink:href="#DejaVuSans-20"/>
     <use x="1057.404297" xlink:href="#DejaVuSans-57"/>
     <use x="1150.40625" xlink:href="#DejaVuSans-65"/>
     <use x="1211.929688" xlink:href="#DejaVuSans-61"/>
     <use x="1273.208984" xlink:href="#DejaVuSans-74"/>
     <use x="1312.417969" xlink:href="#DejaVuSans-68"/>
     <use x="1375.796875" xlink:href="#DejaVuSans-65"/>
     <use x="1437.320312" xlink:href="#DejaVuSans-72"/>
     <use x="1478.433594" xlink:href="#DejaVuSans-20"/>
     <use x="1510.220703" xlink:href="#DejaVuSans-53"/>
     <use x="1573.697266" xlink:href="#DejaVuSans-74"/>
     <use x="1612.90625" xlink:href="#DejaVuSans-61"/>
     <use x="1674.185547" xlink:href="#DejaVuSans-74"/>
     <use x="1713.394531" xlink:href="#DejaVuSans-69"/>
     <use x="1741.177734" xlink:href="#DejaVuSans-6f"/>
     <use x="1802.359375" xlink:href="#DejaVuSans-6e"/>
     <use x="1865.738281" xlink:href="#DejaVuSans-73"/>
    </g>
   </g>
  </g>
 </g>
 <defs>
  <clipPath id="pa21df7d050">
   <rect height="217.44" width="280.8" x="108" y="34.56"/>
  </clipPath>
 </defs>
</svg>
