<?xml version="1.0" encoding="utf-8" standalone="no"?>
<!DOCTYPE svg PUBLIC "-//W3C//DTD SVG 1.1//EN"
  "http://www.w3.org/Graphics/SVG/1.1/DTD/svg11.dtd">
<svg height="288pt" version="1.1" viewBox="0 0 432 288" width="432pt" xmlns="http://www.w3.org/2000/svg" xmlns:xlink="http://www.w3.org/1999/xlink">
 <metadata>
  <rdf:RDF xmlns:cc="http://creativecommons.org/ns#" xmlns:dc="http://purl.org/dc/elements/1.1/" xmlns:rdf="http://www.w3.org/1999/02/22-rdf-syntax-ns#">
   <cc:Work>
    <dc:type rdf:resource="http://purl.org/dc/dcmitype/StillImage"/>
    <dc:date>2021-05-12T04:40:03.012836</dc:date>
    <dc:format>image/svg+xml</dc:format>
    <dc:creator>
     <cc:Agent>
      <dc:title>Matplotlib v3.4.1, https://matplotlib.org/</dc:title>
     </cc:Agent>
    </dc:creator>
   </cc:Work>
  </rdf:RDF>
 </metadata>
 <defs>
  <style type="text/css">*{stroke-linecap:butt;stroke-linejoin:round;}</style>
 </defs>
 <g id="figure_1">
  <g id="patch_1">
   <path d="M 0 288 
L 432 288 
L 432 0 
L 0 0 
z
" style="fill:#ffffff;"/>
  </g>
  <g id="axes_1">
   <g id="patch_2">
    <path d="M 80.01469 246.332 
L 421.632 246.332 
L 421.632 46.736 
L 80.01469 46.736 
z
" style="fill:#ffffff;"/>
   </g>
   <g id="matplotlib.axis_1">
    <g id="xtick_1">
     <g id="line2d_1">
      <defs>
       <path d="M 0 0 
L 0 4.8 
" id="m231a9c4f19" style="stroke:#000000;"/>
      </defs>
      <g>
       <use style="stroke:#000000;" x="85.540779" xlink:href="#m231a9c4f19" y="246.332"/>
      </g>
     </g>
     <g id="text_1">
      <!-- (2021-04-28 00:42:00, Tampa, FL) -->
      <g transform="translate(10.367466 261.318625)scale(0.088 -0.088)">
       <defs>
        <path d="M 1984 4856 
Q 1566 4138 1362 3434 
Q 1159 2731 1159 2009 
Q 1159 1288 1364 580 
Q 1569 -128 1984 -844 
L 1484 -844 
Q 1016 -109 783 600 
Q 550 1309 550 2009 
Q 550 2706 781 3412 
Q 1013 4119 1484 4856 
L 1984 4856 
z
" id="DejaVuSans-28" transform="scale(0.015625)"/>
        <path d="M 1228 531 
L 3431 531 
L 3431 0 
L 469 0 
L 469 531 
Q 828 903 1448 1529 
Q 2069 2156 2228 2338 
Q 2531 2678 2651 2914 
Q 2772 3150 2772 3378 
Q 2772 3750 2511 3984 
Q 2250 4219 1831 4219 
Q 1534 4219 1204 4116 
Q 875 4013 500 3803 
L 500 4441 
Q 881 4594 1212 4672 
Q 1544 4750 1819 4750 
Q 2544 4750 2975 4387 
Q 3406 4025 3406 3419 
Q 3406 3131 3298 2873 
Q 3191 2616 2906 2266 
Q 2828 2175 2409 1742 
Q 1991 1309 1228 531 
z
" id="DejaVuSans-32" transform="scale(0.015625)"/>
        <path d="M 2034 4250 
Q 1547 4250 1301 3770 
Q 1056 3291 1056 2328 
Q 1056 1369 1301 889 
Q 1547 409 2034 409 
Q 2525 409 2770 889 
Q 3016 1369 3016 2328 
Q 3016 3291 2770 3770 
Q 2525 4250 2034 4250 
z
M 2034 4750 
Q 2819 4750 3233 4129 
Q 3647 3509 3647 2328 
Q 3647 1150 3233 529 
Q 2819 -91 2034 -91 
Q 1250 -91 836 529 
Q 422 1150 422 2328 
Q 422 3509 836 4129 
Q 1250 4750 2034 4750 
z
" id="DejaVuSans-30" transform="scale(0.015625)"/>
        <path d="M 794 531 
L 1825 531 
L 1825 4091 
L 703 3866 
L 703 4441 
L 1819 4666 
L 2450 4666 
L 2450 531 
L 3481 531 
L 3481 0 
L 794 0 
L 794 531 
z
" id="DejaVuSans-31" transform="scale(0.015625)"/>
        <path d="M 313 2009 
L 1997 2009 
L 1997 1497 
L 313 1497 
L 313 2009 
z
" id="DejaVuSans-2d" transform="scale(0.015625)"/>
        <path d="M 2419 4116 
L 825 1625 
L 2419 1625 
L 2419 4116 
z
M 2253 4666 
L 3047 4666 
L 3047 1625 
L 3713 1625 
L 3713 1100 
L 3047 1100 
L 3047 0 
L 2419 0 
L 2419 1100 
L 313 1100 
L 313 1709 
L 2253 4666 
z
" id="DejaVuSans-34" transform="scale(0.015625)"/>
        <path d="M 2034 2216 
Q 1584 2216 1326 1975 
Q 1069 1734 1069 1313 
Q 1069 891 1326 650 
Q 1584 409 2034 409 
Q 2484 409 2743 651 
Q 3003 894 3003 1313 
Q 3003 1734 2745 1975 
Q 2488 2216 2034 2216 
z
M 1403 2484 
Q 997 2584 770 2862 
Q 544 3141 544 3541 
Q 544 4100 942 4425 
Q 1341 4750 2034 4750 
Q 2731 4750 3128 4425 
Q 3525 4100 3525 3541 
Q 3525 3141 3298 2862 
Q 3072 2584 2669 2484 
Q 3125 2378 3379 2068 
Q 3634 1759 3634 1313 
Q 3634 634 3220 271 
Q 2806 -91 2034 -91 
Q 1263 -91 848 271 
Q 434 634 434 1313 
Q 434 1759 690 2068 
Q 947 2378 1403 2484 
z
M 1172 3481 
Q 1172 3119 1398 2916 
Q 1625 2713 2034 2713 
Q 2441 2713 2670 2916 
Q 2900 3119 2900 3481 
Q 2900 3844 2670 4047 
Q 2441 4250 2034 4250 
Q 1625 4250 1398 4047 
Q 1172 3844 1172 3481 
z
" id="DejaVuSans-38" transform="scale(0.015625)"/>
        <path id="DejaVuSans-20" transform="scale(0.015625)"/>
        <path d="M 750 794 
L 1409 794 
L 1409 0 
L 750 0 
L 750 794 
z
M 750 3309 
L 1409 3309 
L 1409 2516 
L 750 2516 
L 750 3309 
z
" id="DejaVuSans-3a" transform="scale(0.015625)"/>
        <path d="M 750 794 
L 1409 794 
L 1409 256 
L 897 -744 
L 494 -744 
L 750 256 
L 750 794 
z
" id="DejaVuSans-2c" transform="scale(0.015625)"/>
        <path d="M -19 4666 
L 3928 4666 
L 3928 4134 
L 2272 4134 
L 2272 0 
L 1638 0 
L 1638 4134 
L -19 4134 
L -19 4666 
z
" id="DejaVuSans-54" transform="scale(0.015625)"/>
        <path d="M 2194 1759 
Q 1497 1759 1228 1600 
Q 959 1441 959 1056 
Q 959 750 1161 570 
Q 1363 391 1709 391 
Q 2188 391 2477 730 
Q 2766 1069 2766 1631 
L 2766 1759 
L 2194 1759 
z
M 3341 1997 
L 3341 0 
L 2766 0 
L 2766 531 
Q 2569 213 2275 61 
Q 1981 -91 1556 -91 
Q 1019 -91 701 211 
Q 384 513 384 1019 
Q 384 1609 779 1909 
Q 1175 2209 1959 2209 
L 2766 2209 
L 2766 2266 
Q 2766 2663 2505 2880 
Q 2244 3097 1772 3097 
Q 1472 3097 1187 3025 
Q 903 2953 641 2809 
L 641 3341 
Q 956 3463 1253 3523 
Q 1550 3584 1831 3584 
Q 2591 3584 2966 3190 
Q 3341 2797 3341 1997 
z
" id="DejaVuSans-61" transform="scale(0.015625)"/>
        <path d="M 3328 2828 
Q 3544 3216 3844 3400 
Q 4144 3584 4550 3584 
Q 5097 3584 5394 3201 
Q 5691 2819 5691 2113 
L 5691 0 
L 5113 0 
L 5113 2094 
Q 5113 2597 4934 2840 
Q 4756 3084 4391 3084 
Q 3944 3084 3684 2787 
Q 3425 2491 3425 1978 
L 3425 0 
L 2847 0 
L 2847 2094 
Q 2847 2600 2669 2842 
Q 2491 3084 2119 3084 
Q 1678 3084 1418 2786 
Q 1159 2488 1159 1978 
L 1159 0 
L 581 0 
L 581 3500 
L 1159 3500 
L 1159 2956 
Q 1356 3278 1631 3431 
Q 1906 3584 2284 3584 
Q 2666 3584 2933 3390 
Q 3200 3197 3328 2828 
z
" id="DejaVuSans-6d" transform="scale(0.015625)"/>
        <path d="M 1159 525 
L 1159 -1331 
L 581 -1331 
L 581 3500 
L 1159 3500 
L 1159 2969 
Q 1341 3281 1617 3432 
Q 1894 3584 2278 3584 
Q 2916 3584 3314 3078 
Q 3713 2572 3713 1747 
Q 3713 922 3314 415 
Q 2916 -91 2278 -91 
Q 1894 -91 1617 61 
Q 1341 213 1159 525 
z
M 3116 1747 
Q 3116 2381 2855 2742 
Q 2594 3103 2138 3103 
Q 1681 3103 1420 2742 
Q 1159 2381 1159 1747 
Q 1159 1113 1420 752 
Q 1681 391 2138 391 
Q 2594 391 2855 752 
Q 3116 1113 3116 1747 
z
" id="DejaVuSans-70" transform="scale(0.015625)"/>
        <path d="M 628 4666 
L 3309 4666 
L 3309 4134 
L 1259 4134 
L 1259 2759 
L 3109 2759 
L 3109 2228 
L 1259 2228 
L 1259 0 
L 628 0 
L 628 4666 
z
" id="DejaVuSans-46" transform="scale(0.015625)"/>
        <path d="M 628 4666 
L 1259 4666 
L 1259 531 
L 3531 531 
L 3531 0 
L 628 0 
L 628 4666 
z
" id="DejaVuSans-4c" transform="scale(0.015625)"/>
        <path d="M 513 4856 
L 1013 4856 
Q 1481 4119 1714 3412 
Q 1947 2706 1947 2009 
Q 1947 1309 1714 600 
Q 1481 -109 1013 -844 
L 513 -844 
Q 928 -128 1133 580 
Q 1338 1288 1338 2009 
Q 1338 2731 1133 3434 
Q 928 4138 513 4856 
z
" id="DejaVuSans-29" transform="scale(0.015625)"/>
       </defs>
       <use xlink:href="#DejaVuSans-28"/>
       <use x="39.013672" xlink:href="#DejaVuSans-32"/>
       <use x="102.636719" xlink:href="#DejaVuSans-30"/>
       <use x="166.259766" xlink:href="#DejaVuSans-32"/>
       <use x="229.882812" xlink:href="#DejaVuSans-31"/>
       <use x="293.505859" xlink:href="#DejaVuSans-2d"/>
       <use x="329.589844" xlink:href="#DejaVuSans-30"/>
       <use x="393.212891" xlink:href="#DejaVuSans-34"/>
       <use x="456.835938" xlink:href="#DejaVuSans-2d"/>
       <use x="492.919922" xlink:href="#DejaVuSans-32"/>
       <use x="556.542969" xlink:href="#DejaVuSans-38"/>
       <use x="620.166016" xlink:href="#DejaVuSans-20"/>
       <use x="651.953125" xlink:href="#DejaVuSans-30"/>
       <use x="715.576172" xlink:href="#DejaVuSans-30"/>
       <use x="779.199219" xlink:href="#DejaVuSans-3a"/>
       <use x="812.890625" xlink:href="#DejaVuSans-34"/>
       <use x="876.513672" xlink:href="#DejaVuSans-32"/>
       <use x="940.136719" xlink:href="#DejaVuSans-3a"/>
       <use x="973.828125" xlink:href="#DejaVuSans-30"/>
       <use x="1037.451172" xlink:href="#DejaVuSans-30"/>
       <use x="1101.074219" xlink:href="#DejaVuSans-2c"/>
       <use x="1132.861328" xlink:href="#DejaVuSans-20"/>
       <use x="1164.648438" xlink:href="#DejaVuSans-54"/>
       <use x="1209.232422" xlink:href="#DejaVuSans-61"/>
       <use x="1270.511719" xlink:href="#DejaVuSans-6d"/>
       <use x="1367.923828" xlink:href="#DejaVuSans-70"/>
       <use x="1431.400391" xlink:href="#DejaVuSans-61"/>
       <use x="1492.679688" xlink:href="#DejaVuSans-2c"/>
       <use x="1524.466797" xlink:href="#DejaVuSans-20"/>
       <use x="1556.253906" xlink:href="#DejaVuSans-46"/>
       <use x="1613.773438" xlink:href="#DejaVuSans-4c"/>
       <use x="1669.486328" xlink:href="#DejaVuSans-29"/>
      </g>
     </g>
    </g>
    <g id="xtick_2">
     <g id="line2d_2">
      <g>
       <use style="stroke:#000000;" x="95.542749" xlink:href="#m231a9c4f19" y="246.332"/>
      </g>
     </g>
     <g id="text_2">
      <!-- (2021-05-04 06:42:00, Tampa, FL) -->
      <g transform="translate(20.369437 261.318625)scale(0.088 -0.088)">
       <defs>
        <path d="M 691 4666 
L 3169 4666 
L 3169 4134 
L 1269 4134 
L 1269 2991 
Q 1406 3038 1543 3061 
Q 1681 3084 1819 3084 
Q 2600 3084 3056 2656 
Q 3513 2228 3513 1497 
Q 3513 744 3044 326 
Q 2575 -91 1722 -91 
Q 1428 -91 1123 -41 
Q 819 9 494 109 
L 494 744 
Q 775 591 1075 516 
Q 1375 441 1709 441 
Q 2250 441 2565 725 
Q 2881 1009 2881 1497 
Q 2881 1984 2565 2268 
Q 2250 2553 1709 2553 
Q 1456 2553 1204 2497 
Q 953 2441 691 2322 
L 691 4666 
z
" id="DejaVuSans-35" transform="scale(0.015625)"/>
        <path d="M 2113 2584 
Q 1688 2584 1439 2293 
Q 1191 2003 1191 1497 
Q 1191 994 1439 701 
Q 1688 409 2113 409 
Q 2538 409 2786 701 
Q 3034 994 3034 1497 
Q 3034 2003 2786 2293 
Q 2538 2584 2113 2584 
z
M 3366 4563 
L 3366 3988 
Q 3128 4100 2886 4159 
Q 2644 4219 2406 4219 
Q 1781 4219 1451 3797 
Q 1122 3375 1075 2522 
Q 1259 2794 1537 2939 
Q 1816 3084 2150 3084 
Q 2853 3084 3261 2657 
Q 3669 2231 3669 1497 
Q 3669 778 3244 343 
Q 2819 -91 2113 -91 
Q 1303 -91 875 529 
Q 447 1150 447 2328 
Q 447 3434 972 4092 
Q 1497 4750 2381 4750 
Q 2619 4750 2861 4703 
Q 3103 4656 3366 4563 
z
" id="DejaVuSans-36" transform="scale(0.015625)"/>
       </defs>
       <use xlink:href="#DejaVuSans-28"/>
       <use x="39.013672" xlink:href="#DejaVuSans-32"/>
       <use x="102.636719" xlink:href="#DejaVuSans-30"/>
       <use x="166.259766" xlink:href="#DejaVuSans-32"/>
       <use x="229.882812" xlink:href="#DejaVuSans-31"/>
       <use x="293.505859" xlink:href="#DejaVuSans-2d"/>
       <use x="329.589844" xlink:href="#DejaVuSans-30"/>
       <use x="393.212891" xlink:href="#DejaVuSans-35"/>
       <use x="456.835938" xlink:href="#DejaVuSans-2d"/>
       <use x="492.919922" xlink:href="#DejaVuSans-30"/>
       <use x="556.542969" xlink:href="#DejaVuSans-34"/>
       <use x="620.166016" xlink:href="#DejaVuSans-20"/>
       <use x="651.953125" xlink:href="#DejaVuSans-30"/>
       <use x="715.576172" xlink:href="#DejaVuSans-36"/>
       <use x="779.199219" xlink:href="#DejaVuSans-3a"/>
       <use x="812.890625" xlink:href="#DejaVuSans-34"/>
       <use x="876.513672" xlink:href="#DejaVuSans-32"/>
       <use x="940.136719" xlink:href="#DejaVuSans-3a"/>
       <use x="973.828125" xlink:href="#DejaVuSans-30"/>
       <use x="1037.451172" xlink:href="#DejaVuSans-30"/>
       <use x="1101.074219" xlink:href="#DejaVuSans-2c"/>
       <use x="1132.861328" xlink:href="#DejaVuSans-20"/>
       <use x="1164.648438" xlink:href="#DejaVuSans-54"/>
       <use x="1209.232422" xlink:href="#DejaVuSans-61"/>
       <use x="1270.511719" xlink:href="#DejaVuSans-6d"/>
       <use x="1367.923828" xlink:href="#DejaVuSans-70"/>
       <use x="1431.400391" xlink:href="#DejaVuSans-61"/>
       <use x="1492.679688" xlink:href="#DejaVuSans-2c"/>
       <use x="1524.466797" xlink:href="#DejaVuSans-20"/>
       <use x="1556.253906" xlink:href="#DejaVuSans-46"/>
       <use x="1613.773438" xlink:href="#DejaVuSans-4c"/>
       <use x="1669.486328" xlink:href="#DejaVuSans-29"/>
      </g>
     </g>
    </g>
    <g id="xtick_3">
     <g id="line2d_3">
      <g>
       <use style="stroke:#000000;" x="105.54472" xlink:href="#m231a9c4f19" y="246.332"/>
      </g>
     </g>
     <g id="text_3">
      <!-- (2021-05-01 13:36:00, Tampa, FL) -->
      <g transform="translate(30.371408 261.318625)scale(0.088 -0.088)">
       <defs>
        <path d="M 2597 2516 
Q 3050 2419 3304 2112 
Q 3559 1806 3559 1356 
Q 3559 666 3084 287 
Q 2609 -91 1734 -91 
Q 1441 -91 1130 -33 
Q 819 25 488 141 
L 488 750 
Q 750 597 1062 519 
Q 1375 441 1716 441 
Q 2309 441 2620 675 
Q 2931 909 2931 1356 
Q 2931 1769 2642 2001 
Q 2353 2234 1838 2234 
L 1294 2234 
L 1294 2753 
L 1863 2753 
Q 2328 2753 2575 2939 
Q 2822 3125 2822 3475 
Q 2822 3834 2567 4026 
Q 2313 4219 1838 4219 
Q 1578 4219 1281 4162 
Q 984 4106 628 3988 
L 628 4550 
Q 988 4650 1302 4700 
Q 1616 4750 1894 4750 
Q 2613 4750 3031 4423 
Q 3450 4097 3450 3541 
Q 3450 3153 3228 2886 
Q 3006 2619 2597 2516 
z
" id="DejaVuSans-33" transform="scale(0.015625)"/>
       </defs>
       <use xlink:href="#DejaVuSans-28"/>
       <use x="39.013672" xlink:href="#DejaVuSans-32"/>
       <use x="102.636719" xlink:href="#DejaVuSans-30"/>
       <use x="166.259766" xlink:href="#DejaVuSans-32"/>
       <use x="229.882812" xlink:href="#DejaVuSans-31"/>
       <use x="293.505859" xlink:href="#DejaVuSans-2d"/>
       <use x="329.589844" xlink:href="#DejaVuSans-30"/>
       <use x="393.212891" xlink:href="#DejaVuSans-35"/>
       <use x="456.835938" xlink:href="#DejaVuSans-2d"/>
       <use x="492.919922" xlink:href="#DejaVuSans-30"/>
       <use x="556.542969" xlink:href="#DejaVuSans-31"/>
       <use x="620.166016" xlink:href="#DejaVuSans-20"/>
       <use x="651.953125" xlink:href="#DejaVuSans-31"/>
       <use x="715.576172" xlink:href="#DejaVuSans-33"/>
       <use x="779.199219" xlink:href="#DejaVuSans-3a"/>
       <use x="812.890625" xlink:href="#DejaVuSans-33"/>
       <use x="876.513672" xlink:href="#DejaVuSans-36"/>
       <use x="940.136719" xlink:href="#DejaVuSans-3a"/>
       <use x="973.828125" xlink:href="#DejaVuSans-30"/>
       <use x="1037.451172" xlink:href="#DejaVuSans-30"/>
       <use x="1101.074219" xlink:href="#DejaVuSans-2c"/>
       <use x="1132.861328" xlink:href="#DejaVuSans-20"/>
       <use x="1164.648438" xlink:href="#DejaVuSans-54"/>
       <use x="1209.232422" xlink:href="#DejaVuSans-61"/>
       <use x="1270.511719" xlink:href="#DejaVuSans-6d"/>
       <use x="1367.923828" xlink:href="#DejaVuSans-70"/>
       <use x="1431.400391" xlink:href="#DejaVuSans-61"/>
       <use x="1492.679688" xlink:href="#DejaVuSans-2c"/>
       <use x="1524.466797" xlink:href="#DejaVuSans-20"/>
       <use x="1556.253906" xlink:href="#DejaVuSans-46"/>
       <use x="1613.773438" xlink:href="#DejaVuSans-4c"/>
       <use x="1669.486328" xlink:href="#DejaVuSans-29"/>
      </g>
     </g>
    </g>
    <g id="xtick_4">
     <g id="line2d_4">
      <g>
       <use style="stroke:#000000;" x="115.546691" xlink:href="#m231a9c4f19" y="246.332"/>
      </g>
     </g>
     <g id="text_4">
      <!-- (2021-04-30 19:36:00, Tampa, FL) -->
      <g transform="translate(40.373378 261.318625)scale(0.088 -0.088)">
       <defs>
        <path d="M 703 97 
L 703 672 
Q 941 559 1184 500 
Q 1428 441 1663 441 
Q 2288 441 2617 861 
Q 2947 1281 2994 2138 
Q 2813 1869 2534 1725 
Q 2256 1581 1919 1581 
Q 1219 1581 811 2004 
Q 403 2428 403 3163 
Q 403 3881 828 4315 
Q 1253 4750 1959 4750 
Q 2769 4750 3195 4129 
Q 3622 3509 3622 2328 
Q 3622 1225 3098 567 
Q 2575 -91 1691 -91 
Q 1453 -91 1209 -44 
Q 966 3 703 97 
z
M 1959 2075 
Q 2384 2075 2632 2365 
Q 2881 2656 2881 3163 
Q 2881 3666 2632 3958 
Q 2384 4250 1959 4250 
Q 1534 4250 1286 3958 
Q 1038 3666 1038 3163 
Q 1038 2656 1286 2365 
Q 1534 2075 1959 2075 
z
" id="DejaVuSans-39" transform="scale(0.015625)"/>
       </defs>
       <use xlink:href="#DejaVuSans-28"/>
       <use x="39.013672" xlink:href="#DejaVuSans-32"/>
       <use x="102.636719" xlink:href="#DejaVuSans-30"/>
       <use x="166.259766" xlink:href="#DejaVuSans-32"/>
       <use x="229.882812" xlink:href="#DejaVuSans-31"/>
       <use x="293.505859" xlink:href="#DejaVuSans-2d"/>
       <use x="329.589844" xlink:href="#DejaVuSans-30"/>
       <use x="393.212891" xlink:href="#DejaVuSans-34"/>
       <use x="456.835938" xlink:href="#DejaVuSans-2d"/>
       <use x="492.919922" xlink:href="#DejaVuSans-33"/>
       <use x="556.542969" xlink:href="#DejaVuSans-30"/>
       <use x="620.166016" xlink:href="#DejaVuSans-20"/>
       <use x="651.953125" xlink:href="#DejaVuSans-31"/>
       <use x="715.576172" xlink:href="#DejaVuSans-39"/>
       <use x="779.199219" xlink:href="#DejaVuSans-3a"/>
       <use x="812.890625" xlink:href="#DejaVuSans-33"/>
       <use x="876.513672" xlink:href="#DejaVuSans-36"/>
       <use x="940.136719" xlink:href="#DejaVuSans-3a"/>
       <use x="973.828125" xlink:href="#DejaVuSans-30"/>
       <use x="1037.451172" xlink:href="#DejaVuSans-30"/>
       <use x="1101.074219" xlink:href="#DejaVuSans-2c"/>
       <use x="1132.861328" xlink:href="#DejaVuSans-20"/>
       <use x="1164.648438" xlink:href="#DejaVuSans-54"/>
       <use x="1209.232422" xlink:href="#DejaVuSans-61"/>
       <use x="1270.511719" xlink:href="#DejaVuSans-6d"/>
       <use x="1367.923828" xlink:href="#DejaVuSans-70"/>
       <use x="1431.400391" xlink:href="#DejaVuSans-61"/>
       <use x="1492.679688" xlink:href="#DejaVuSans-2c"/>
       <use x="1524.466797" xlink:href="#DejaVuSans-20"/>
       <use x="1556.253906" xlink:href="#DejaVuSans-46"/>
       <use x="1613.773438" xlink:href="#DejaVuSans-4c"/>
       <use x="1669.486328" xlink:href="#DejaVuSans-29"/>
      </g>
     </g>
    </g>
    <g id="xtick_5">
     <g id="line2d_5">
      <g>
       <use style="stroke:#000000;" x="125.548661" xlink:href="#m231a9c4f19" y="246.332"/>
      </g>
     </g>
     <g id="text_5">
      <!-- (2021-04-25 05:00:00, Tampa, FL) -->
      <g transform="translate(50.375349 261.318625)scale(0.088 -0.088)">
       <use xlink:href="#DejaVuSans-28"/>
       <use x="39.013672" xlink:href="#DejaVuSans-32"/>
       <use x="102.636719" xlink:href="#DejaVuSans-30"/>
       <use x="166.259766" xlink:href="#DejaVuSans-32"/>
       <use x="229.882812" xlink:href="#DejaVuSans-31"/>
       <use x="293.505859" xlink:href="#DejaVuSans-2d"/>
       <use x="329.589844" xlink:href="#DejaVuSans-30"/>
       <use x="393.212891" xlink:href="#DejaVuSans-34"/>
       <use x="456.835938" xlink:href="#DejaVuSans-2d"/>
       <use x="492.919922" xlink:href="#DejaVuSans-32"/>
       <use x="556.542969" xlink:href="#DejaVuSans-35"/>
       <use x="620.166016" xlink:href="#DejaVuSans-20"/>
       <use x="651.953125" xlink:href="#DejaVuSans-30"/>
       <use x="715.576172" xlink:href="#DejaVuSans-35"/>
       <use x="779.199219" xlink:href="#DejaVuSans-3a"/>
       <use x="812.890625" xlink:href="#DejaVuSans-30"/>
       <use x="876.513672" xlink:href="#DejaVuSans-30"/>
       <use x="940.136719" xlink:href="#DejaVuSans-3a"/>
       <use x="973.828125" xlink:href="#DejaVuSans-30"/>
       <use x="1037.451172" xlink:href="#DejaVuSans-30"/>
       <use x="1101.074219" xlink:href="#DejaVuSans-2c"/>
       <use x="1132.861328" xlink:href="#DejaVuSans-20"/>
       <use x="1164.648438" xlink:href="#DejaVuSans-54"/>
       <use x="1209.232422" xlink:href="#DejaVuSans-61"/>
       <use x="1270.511719" xlink:href="#DejaVuSans-6d"/>
       <use x="1367.923828" xlink:href="#DejaVuSans-70"/>
       <use x="1431.400391" xlink:href="#DejaVuSans-61"/>
       <use x="1492.679688" xlink:href="#DejaVuSans-2c"/>
       <use x="1524.466797" xlink:href="#DejaVuSans-20"/>
       <use x="1556.253906" xlink:href="#DejaVuSans-46"/>
       <use x="1613.773438" xlink:href="#DejaVuSans-4c"/>
       <use x="1669.486328" xlink:href="#DejaVuSans-29"/>
      </g>
     </g>
    </g>
    <g id="xtick_6">
     <g id="line2d_6">
      <g>
       <use style="stroke:#000000;" x="135.550632" xlink:href="#m231a9c4f19" y="246.332"/>
      </g>
     </g>
     <g id="text_6">
      <!-- (2021-04-23 11:00:00, Tampa, FL) -->
      <g transform="translate(60.37732 261.318625)scale(0.088 -0.088)">
       <use xlink:href="#DejaVuSans-28"/>
       <use x="39.013672" xlink:href="#DejaVuSans-32"/>
       <use x="102.636719" xlink:href="#DejaVuSans-30"/>
       <use x="166.259766" xlink:href="#DejaVuSans-32"/>
       <use x="229.882812" xlink:href="#DejaVuSans-31"/>
       <use x="293.505859" xlink:href="#DejaVuSans-2d"/>
       <use x="329.589844" xlink:href="#DejaVuSans-30"/>
       <use x="393.212891" xlink:href="#DejaVuSans-34"/>
       <use x="456.835938" xlink:href="#DejaVuSans-2d"/>
       <use x="492.919922" xlink:href="#DejaVuSans-32"/>
       <use x="556.542969" xlink:href="#DejaVuSans-33"/>
       <use x="620.166016" xlink:href="#DejaVuSans-20"/>
       <use x="651.953125" xlink:href="#DejaVuSans-31"/>
       <use x="715.576172" xlink:href="#DejaVuSans-31"/>
       <use x="779.199219" xlink:href="#DejaVuSans-3a"/>
       <use x="812.890625" xlink:href="#DejaVuSans-30"/>
       <use x="876.513672" xlink:href="#DejaVuSans-30"/>
       <use x="940.136719" xlink:href="#DejaVuSans-3a"/>
       <use x="973.828125" xlink:href="#DejaVuSans-30"/>
       <use x="1037.451172" xlink:href="#DejaVuSans-30"/>
       <use x="1101.074219" xlink:href="#DejaVuSans-2c"/>
       <use x="1132.861328" xlink:href="#DejaVuSans-20"/>
       <use x="1164.648438" xlink:href="#DejaVuSans-54"/>
       <use x="1209.232422" xlink:href="#DejaVuSans-61"/>
       <use x="1270.511719" xlink:href="#DejaVuSans-6d"/>
       <use x="1367.923828" xlink:href="#DejaVuSans-70"/>
       <use x="1431.400391" xlink:href="#DejaVuSans-61"/>
       <use x="1492.679688" xlink:href="#DejaVuSans-2c"/>
       <use x="1524.466797" xlink:href="#DejaVuSans-20"/>
       <use x="1556.253906" xlink:href="#DejaVuSans-46"/>
       <use x="1613.773438" xlink:href="#DejaVuSans-4c"/>
       <use x="1669.486328" xlink:href="#DejaVuSans-29"/>
      </g>
     </g>
    </g>
    <g id="xtick_7">
     <g id="line2d_7">
      <g>
       <use style="stroke:#000000;" x="145.552603" xlink:href="#m231a9c4f19" y="246.332"/>
      </g>
     </g>
     <g id="text_7">
      <!-- (2021-04-03 15:54:00, Tampa, FL) -->
      <g transform="translate(70.37929 261.318625)scale(0.088 -0.088)">
       <use xlink:href="#DejaVuSans-28"/>
       <use x="39.013672" xlink:href="#DejaVuSans-32"/>
       <use x="102.636719" xlink:href="#DejaVuSans-30"/>
       <use x="166.259766" xlink:href="#DejaVuSans-32"/>
       <use x="229.882812" xlink:href="#DejaVuSans-31"/>
       <use x="293.505859" xlink:href="#DejaVuSans-2d"/>
       <use x="329.589844" xlink:href="#DejaVuSans-30"/>
       <use x="393.212891" xlink:href="#DejaVuSans-34"/>
       <use x="456.835938" xlink:href="#DejaVuSans-2d"/>
       <use x="492.919922" xlink:href="#DejaVuSans-30"/>
       <use x="556.542969" xlink:href="#DejaVuSans-33"/>
       <use x="620.166016" xlink:href="#DejaVuSans-20"/>
       <use x="651.953125" xlink:href="#DejaVuSans-31"/>
       <use x="715.576172" xlink:href="#DejaVuSans-35"/>
       <use x="779.199219" xlink:href="#DejaVuSans-3a"/>
       <use x="812.890625" xlink:href="#DejaVuSans-35"/>
       <use x="876.513672" xlink:href="#DejaVuSans-34"/>
       <use x="940.136719" xlink:href="#DejaVuSans-3a"/>
       <use x="973.828125" xlink:href="#DejaVuSans-30"/>
       <use x="1037.451172" xlink:href="#DejaVuSans-30"/>
       <use x="1101.074219" xlink:href="#DejaVuSans-2c"/>
       <use x="1132.861328" xlink:href="#DejaVuSans-20"/>
       <use x="1164.648438" xlink:href="#DejaVuSans-54"/>
       <use x="1209.232422" xlink:href="#DejaVuSans-61"/>
       <use x="1270.511719" xlink:href="#DejaVuSans-6d"/>
       <use x="1367.923828" xlink:href="#DejaVuSans-70"/>
       <use x="1431.400391" xlink:href="#DejaVuSans-61"/>
       <use x="1492.679688" xlink:href="#DejaVuSans-2c"/>
       <use x="1524.466797" xlink:href="#DejaVuSans-20"/>
       <use x="1556.253906" xlink:href="#DejaVuSans-46"/>
       <use x="1613.773438" xlink:href="#DejaVuSans-4c"/>
       <use x="1669.486328" xlink:href="#DejaVuSans-29"/>
      </g>
     </g>
    </g>
    <g id="text_8">
     <!-- timestamp,Name -->
     <g transform="translate(209.245595 274.44325)scale(0.096 -0.096)">
      <defs>
       <path d="M 1172 4494 
L 1172 3500 
L 2356 3500 
L 2356 3053 
L 1172 3053 
L 1172 1153 
Q 1172 725 1289 603 
Q 1406 481 1766 481 
L 2356 481 
L 2356 0 
L 1766 0 
Q 1100 0 847 248 
Q 594 497 594 1153 
L 594 3053 
L 172 3053 
L 172 3500 
L 594 3500 
L 594 4494 
L 1172 4494 
z
" id="DejaVuSans-74" transform="scale(0.015625)"/>
       <path d="M 603 3500 
L 1178 3500 
L 1178 0 
L 603 0 
L 603 3500 
z
M 603 4863 
L 1178 4863 
L 1178 4134 
L 603 4134 
L 603 4863 
z
" id="DejaVuSans-69" transform="scale(0.015625)"/>
       <path d="M 3597 1894 
L 3597 1613 
L 953 1613 
Q 991 1019 1311 708 
Q 1631 397 2203 397 
Q 2534 397 2845 478 
Q 3156 559 3463 722 
L 3463 178 
Q 3153 47 2828 -22 
Q 2503 -91 2169 -91 
Q 1331 -91 842 396 
Q 353 884 353 1716 
Q 353 2575 817 3079 
Q 1281 3584 2069 3584 
Q 2775 3584 3186 3129 
Q 3597 2675 3597 1894 
z
M 3022 2063 
Q 3016 2534 2758 2815 
Q 2500 3097 2075 3097 
Q 1594 3097 1305 2825 
Q 1016 2553 972 2059 
L 3022 2063 
z
" id="DejaVuSans-65" transform="scale(0.015625)"/>
       <path d="M 2834 3397 
L 2834 2853 
Q 2591 2978 2328 3040 
Q 2066 3103 1784 3103 
Q 1356 3103 1142 2972 
Q 928 2841 928 2578 
Q 928 2378 1081 2264 
Q 1234 2150 1697 2047 
L 1894 2003 
Q 2506 1872 2764 1633 
Q 3022 1394 3022 966 
Q 3022 478 2636 193 
Q 2250 -91 1575 -91 
Q 1294 -91 989 -36 
Q 684 19 347 128 
L 347 722 
Q 666 556 975 473 
Q 1284 391 1588 391 
Q 1994 391 2212 530 
Q 2431 669 2431 922 
Q 2431 1156 2273 1281 
Q 2116 1406 1581 1522 
L 1381 1569 
Q 847 1681 609 1914 
Q 372 2147 372 2553 
Q 372 3047 722 3315 
Q 1072 3584 1716 3584 
Q 2034 3584 2315 3537 
Q 2597 3491 2834 3397 
z
" id="DejaVuSans-73" transform="scale(0.015625)"/>
       <path d="M 628 4666 
L 1478 4666 
L 3547 763 
L 3547 4666 
L 4159 4666 
L 4159 0 
L 3309 0 
L 1241 3903 
L 1241 0 
L 628 0 
L 628 4666 
z
" id="DejaVuSans-4e" transform="scale(0.015625)"/>
      </defs>
      <use xlink:href="#DejaVuSans-74"/>
      <use x="39.208984" xlink:href="#DejaVuSans-69"/>
      <use x="66.992188" xlink:href="#DejaVuSans-6d"/>
      <use x="164.404297" xlink:href="#DejaVuSans-65"/>
      <use x="225.927734" xlink:href="#DejaVuSans-73"/>
      <use x="278.027344" xlink:href="#DejaVuSans-74"/>
      <use x="317.236328" xlink:href="#DejaVuSans-61"/>
      <use x="378.515625" xlink:href="#DejaVuSans-6d"/>
      <use x="475.927734" xlink:href="#DejaVuSans-70"/>
      <use x="539.404297" xlink:href="#DejaVuSans-2c"/>
      <use x="571.191406" xlink:href="#DejaVuSans-4e"/>
      <use x="645.996094" xlink:href="#DejaVuSans-61"/>
      <use x="707.275391" xlink:href="#DejaVuSans-6d"/>
      <use x="804.6875" xlink:href="#DejaVuSans-65"/>
     </g>
    </g>
   </g>
   <g id="matplotlib.axis_2">
    <g id="ytick_1">
     <g id="line2d_8">
      <defs>
       <path d="M 0 0 
L -4.8 0 
" id="mcfd82902b2" style="stroke:#000000;"/>
      </defs>
      <g>
       <use style="stroke:#000000;" x="80.01469" xlink:href="#mcfd82902b2" y="237.259455"/>
      </g>
     </g>
     <g id="text_9">
      <!-- 0 -->
      <g transform="translate(66.11569 240.602767)scale(0.088 -0.088)">
       <use xlink:href="#DejaVuSans-30"/>
      </g>
     </g>
    </g>
    <g id="ytick_2">
     <g id="line2d_9">
      <g>
       <use style="stroke:#000000;" x="80.01469" xlink:href="#mcfd82902b2" y="202.365049"/>
      </g>
     </g>
     <g id="text_10">
      <!-- 5 -->
      <g transform="translate(66.11569 205.708361)scale(0.088 -0.088)">
       <use xlink:href="#DejaVuSans-35"/>
      </g>
     </g>
    </g>
    <g id="ytick_3">
     <g id="line2d_10">
      <g>
       <use style="stroke:#000000;" x="80.01469" xlink:href="#mcfd82902b2" y="167.470643"/>
      </g>
     </g>
     <g id="text_11">
      <!-- 10 -->
      <g transform="translate(60.51669 170.813956)scale(0.088 -0.088)">
       <use xlink:href="#DejaVuSans-31"/>
       <use x="63.623047" xlink:href="#DejaVuSans-30"/>
      </g>
     </g>
    </g>
    <g id="ytick_4">
     <g id="line2d_11">
      <g>
       <use style="stroke:#000000;" x="80.01469" xlink:href="#mcfd82902b2" y="132.576238"/>
      </g>
     </g>
     <g id="text_12">
      <!-- 15 -->
      <g transform="translate(60.51669 135.91955)scale(0.088 -0.088)">
       <use xlink:href="#DejaVuSans-31"/>
       <use x="63.623047" xlink:href="#DejaVuSans-35"/>
      </g>
     </g>
    </g>
    <g id="ytick_5">
     <g id="line2d_12">
      <g>
       <use style="stroke:#000000;" x="80.01469" xlink:href="#mcfd82902b2" y="97.681832"/>
      </g>
     </g>
     <g id="text_13">
      <!-- 20 -->
      <g transform="translate(60.51669 101.025145)scale(0.088 -0.088)">
       <use xlink:href="#DejaVuSans-32"/>
       <use x="63.623047" xlink:href="#DejaVuSans-30"/>
      </g>
     </g>
    </g>
    <g id="ytick_6">
     <g id="line2d_13">
      <g>
       <use style="stroke:#000000;" x="80.01469" xlink:href="#mcfd82902b2" y="62.787427"/>
      </g>
     </g>
     <g id="text_14">
      <!-- 25 -->
      <g transform="translate(60.51669 66.130739)scale(0.088 -0.088)">
       <use xlink:href="#DejaVuSans-32"/>
       <use x="63.623047" xlink:href="#DejaVuSans-35"/>
      </g>
     </g>
    </g>
   </g>
   <g id="line2d_14">
    <path clip-path="url(#pcf404559f6)" d="M 80.01469 132.576238 
L 421.632 132.576238 
" style="fill:none;stroke:#1f77b4;stroke-linecap:square;stroke-width:1.2;"/>
   </g>
   <g id="line2d_15">
    <path clip-path="url(#pcf404559f6)" d="M 95.542749 181.428406 
L 96.042848 132.576238 
L 96.542946 153.512881 
L 97.043045 167.470643 
L 97.543143 188.407287 
L 98.043242 223.301692 
L 98.543341 139.555119 
L 99.043439 188.407287 
L 99.543538 167.470643 
L 100.043636 237.259455 
L 100.543735 139.555119 
M 101.543932 167.470643 
L 102.04403 139.555119 
L 102.544129 202.365049 
L 103.044227 153.512881 
L 103.544326 202.365049 
L 104.044424 188.407287 
L 104.544523 181.428406 
M 106.044819 167.470643 
L 106.544917 202.365049 
L 107.045016 188.407287 
L 107.545114 139.555119 
L 108.045213 181.428406 
M 109.545508 188.407287 
L 110.045607 188.407287 
L 110.545705 167.470643 
L 111.045804 139.555119 
L 111.545902 167.470643 
L 112.046001 167.470643 
L 112.5461 167.470643 
M 113.546297 139.555119 
L 114.046395 181.428406 
M 115.046592 153.512881 
L 115.546691 153.512881 
L 116.046789 167.470643 
L 116.546888 139.555119 
L 117.046986 181.428406 
L 117.547085 181.428406 
L 118.047183 167.470643 
L 118.547282 153.512881 
L 119.04738 153.512881 
L 119.547479 188.407287 
L 120.047578 167.470643 
L 120.547676 167.470643 
L 121.047775 153.512881 
L 121.547873 153.512881 
M 123.048169 216.322811 
L 123.548267 132.576238 
L 124.048366 153.512881 
M 125.048563 139.555119 
L 125.548661 181.428406 
M 127.048957 104.660713 
M 128.049154 181.428406 
M 129.049351 153.512881 
L 129.54945 216.322811 
M 130.549647 167.470643 
L 131.049745 167.470643 
L 131.549844 216.322811 
L 132.049942 188.407287 
L 132.550041 181.428406 
L 133.05014 181.428406 
L 133.550238 167.470643 
L 134.050337 167.470643 
L 134.550435 202.365049 
L 135.050534 139.555119 
L 135.550632 132.576238 
M 137.050928 181.428406 
L 137.551026 153.512881 
M 138.551223 181.428406 
L 139.051322 181.428406 
" style="fill:none;stroke:#1f77b4;stroke-linecap:square;stroke-width:1.2;"/>
   </g>
   <g id="line2d_16">
    <path clip-path="url(#pcf404559f6)" d="M 95.542749 209.34393 
L 96.042848 230.280573 
L 96.542946 160.491762 
L 97.043045 188.407287 
L 97.543143 223.301692 
L 98.043242 237.259455 
L 98.543341 230.280573 
L 99.543538 188.407287 
L 100.043636 209.34393 
L 100.543735 216.322811 
L 101.043833 209.34393 
L 101.543932 195.386168 
L 102.04403 188.407287 
L 102.544129 195.386168 
L 103.044227 209.34393 
L 103.544326 209.34393 
L 104.044424 167.470643 
L 104.544523 195.386168 
L 105.044621 153.512881 
L 105.54472 209.34393 
L 106.044819 230.280573 
L 106.544917 237.259455 
L 107.045016 167.470643 
L 107.545114 237.259455 
L 108.045213 209.34393 
L 108.545311 188.407287 
M 109.545508 167.470643 
L 110.045607 174.449524 
L 110.545705 209.34393 
L 111.045804 209.34393 
L 111.545902 216.322811 
L 112.046001 195.386168 
L 112.5461 209.34393 
M 113.546297 212.833371 
L 114.046395 195.386168 
L 114.546494 209.34393 
L 115.046592 209.34393 
L 116.046789 237.259455 
L 116.546888 167.470643 
M 117.547085 160.491762 
L 118.047183 230.280573 
L 118.547282 198.875608 
L 119.04738 184.917846 
M 120.047578 209.34393 
L 120.547676 219.812252 
L 121.047775 202.365049 
L 121.547873 209.34393 
L 122.047972 223.301692 
L 122.54807 209.34393 
L 123.048169 202.365049 
L 123.548267 209.34393 
L 124.048366 174.449524 
L 124.548464 209.34393 
L 125.048563 209.34393 
L 125.548661 188.407287 
L 126.04876 195.386168 
L 126.548859 181.428406 
L 127.048957 205.85449 
L 127.549056 188.407287 
L 128.049154 223.301692 
L 128.549253 202.365049 
L 129.049351 191.896727 
L 129.54945 188.407287 
L 130.049548 216.322811 
L 130.549647 209.34393 
L 131.049745 230.280573 
L 131.549844 216.322811 
L 132.049942 237.259455 
L 132.550041 174.449524 
L 133.05014 216.322811 
L 133.550238 202.365049 
L 134.050337 237.259455 
L 134.550435 216.322811 
L 135.050534 223.301692 
L 135.550632 181.428406 
L 136.050731 160.491762 
M 137.050928 174.449524 
L 137.551026 167.470643 
L 138.051125 146.534 
L 138.551223 223.301692 
L 139.051322 209.34393 
L 139.55142 174.449524 
L 140.051519 188.407287 
L 140.551618 195.386168 
L 141.051716 167.470643 
L 141.551815 181.428406 
L 142.051913 188.407287 
L 142.552012 174.449524 
L 143.05211 223.301692 
L 143.552209 202.365049 
L 144.052307 219.812252 
L 144.552406 223.301692 
L 145.052504 223.301692 
L 145.552603 167.470643 
L 146.052701 174.449524 
L 147.052899 230.280573 
L 147.552997 188.407287 
L 148.053096 212.833371 
L 148.553194 223.301692 
L 149.053293 216.322811 
L 149.553391 223.301692 
L 150.05349 198.875608 
L 150.553588 195.386168 
M 151.553785 230.280573 
L 152.053884 237.259455 
L 152.553982 216.322811 
L 153.054081 223.301692 
L 153.55418 195.386168 
L 154.054278 223.301692 
L 154.554377 202.365049 
L 155.054475 188.407287 
L 155.554574 216.322811 
L 156.054672 188.407287 
L 156.554771 223.301692 
L 157.054869 202.365049 
L 157.554968 223.301692 
L 158.055066 188.407287 
L 158.555165 202.365049 
L 159.055263 237.259455 
L 159.555362 195.386168 
L 160.05546 216.322811 
M 161.055658 209.34393 
L 161.555756 223.301692 
L 162.055855 212.833371 
L 162.555953 223.301692 
L 163.056052 209.34393 
L 163.55615 160.491762 
L 164.056249 181.428406 
L 164.556347 181.428406 
L 165.056446 167.470643 
L 165.556544 223.301692 
L 166.056643 181.428406 
L 166.556741 209.34393 
L 167.05684 188.407287 
L 167.556939 209.34393 
L 168.057037 216.322811 
M 169.057234 125.597357 
L 169.557333 188.407287 
L 170.057431 181.428406 
L 170.55753 146.534 
L 171.057628 209.34393 
L 171.557727 170.960084 
L 172.057825 237.259455 
L 172.557924 237.259455 
L 173.058022 209.34393 
L 173.558121 223.301692 
L 174.05822 195.386168 
L 175.058417 209.34393 
L 175.558515 223.301692 
L 176.058614 209.34393 
L 176.558712 219.812252 
M 177.558909 212.833371 
L 178.059008 212.833371 
L 178.559106 230.280573 
L 179.059205 209.34393 
L 179.559303 223.301692 
L 180.059402 188.407287 
L 180.5595 209.34393 
L 181.059599 167.470643 
L 181.559698 216.322811 
L 182.059796 174.449524 
L 182.559895 223.301692 
L 183.059993 230.280573 
L 183.560092 209.34393 
L 184.06019 195.386168 
L 184.560289 237.259455 
L 185.060387 153.512881 
L 185.560486 202.365049 
L 186.060584 209.34393 
L 186.560683 209.34393 
L 187.56088 195.386168 
L 188.060979 167.470643 
L 188.561077 209.34393 
L 189.061176 188.407287 
L 189.561274 202.365049 
L 190.061373 209.34393 
L 190.561471 181.428406 
L 191.06157 188.407287 
L 191.561668 160.491762 
L 192.061767 230.280573 
L 192.561865 230.280573 
L 193.061964 167.470643 
L 193.562062 167.470643 
L 194.062161 188.407287 
L 194.56226 174.449524 
L 195.062358 209.34393 
L 195.562457 174.449524 
L 196.062555 209.34393 
L 196.562654 167.470643 
M 197.562851 188.407287 
L 198.062949 216.322811 
L 198.563048 195.386168 
L 199.063146 223.301692 
L 199.563245 223.301692 
L 200.063343 230.280573 
L 200.563442 160.491762 
L 201.06354 181.428406 
M 202.063738 167.470643 
L 202.563836 209.34393 
L 203.063935 174.449524 
L 203.564033 216.322811 
L 204.064132 167.470643 
M 205.064329 181.428406 
L 205.564427 181.428406 
L 206.064526 195.386168 
L 206.564624 195.386168 
L 207.064723 216.322811 
L 207.564821 202.365049 
L 208.565019 202.365049 
L 209.065117 209.34393 
L 209.565216 202.365049 
L 210.065314 237.259455 
L 210.565413 216.322811 
L 211.065511 177.938965 
L 211.56561 167.470643 
L 212.065708 209.34393 
L 212.565807 188.407287 
L 213.065905 125.597357 
L 213.566004 209.34393 
L 214.066102 202.365049 
L 214.566201 167.470643 
L 215.0663 209.34393 
L 215.566398 209.34393 
L 216.066497 223.301692 
L 216.566595 216.322811 
L 217.566792 188.407287 
L 218.066891 216.322811 
L 218.566989 195.386168 
L 219.067088 195.386168 
L 219.567186 202.365049 
L 220.067285 237.259455 
L 220.567383 209.34393 
L 221.067482 209.34393 
L 221.56758 202.365049 
L 222.067679 237.259455 
L 222.567778 188.407287 
L 223.067876 209.34393 
L 223.567975 209.34393 
L 224.068073 167.470643 
L 224.568172 202.365049 
L 225.06827 223.301692 
L 225.568369 209.34393 
L 226.068467 209.34393 
L 226.568566 174.449524 
L 227.068664 216.322811 
L 227.568763 167.470643 
L 228.068861 181.428406 
L 228.56896 209.34393 
L 229.569157 209.34393 
M 231.569551 230.280573 
L 232.06965 209.34393 
L 232.569748 209.34393 
L 233.069847 160.491762 
L 233.569945 216.322811 
L 234.070044 181.428406 
L 234.570142 209.34393 
M 235.570339 209.34393 
L 237.070635 209.34393 
L 237.570734 188.407287 
L 238.070832 195.386168 
L 238.570931 209.34393 
L 239.071029 174.449524 
L 239.571128 216.322811 
L 240.071226 209.34393 
L 240.571325 230.280573 
L 241.071423 216.322811 
L 241.571522 216.322811 
L 242.07162 202.365049 
L 242.571719 216.322811 
M 243.571916 209.34393 
L 244.072015 181.428406 
L 244.572113 237.259455 
L 245.072212 118.618476 
L 245.57231 195.386168 
L 246.072409 195.386168 
L 246.572507 181.428406 
M 247.572704 230.280573 
L 248.072803 209.34393 
L 248.572901 181.428406 
L 249.073 167.470643 
L 249.573099 195.386168 
L 250.073197 209.34393 
L 250.573296 174.449524 
L 251.073394 188.407287 
L 251.573493 188.407287 
L 252.073591 223.301692 
L 252.57369 209.34393 
L 253.073788 230.280573 
L 253.573887 150.023441 
L 254.073985 160.491762 
L 254.574084 223.301692 
M 255.574281 212.833371 
L 256.074379 195.386168 
L 256.574478 223.301692 
L 257.074577 216.322811 
L 257.574675 223.301692 
L 258.074774 188.407287 
L 258.574872 216.322811 
L 259.074971 202.365049 
L 259.575069 181.428406 
L 260.075168 195.386168 
L 260.575266 216.322811 
L 261.075365 174.449524 
L 261.575463 174.449524 
M 262.57566 181.428406 
L 263.075759 174.449524 
L 263.575858 209.34393 
L 264.075956 195.386168 
L 264.576055 223.301692 
L 265.076153 209.34393 
L 265.576252 223.301692 
L 266.07635 202.365049 
L 266.576449 188.407287 
L 267.076547 188.407287 
L 267.576646 209.34393 
L 268.076744 209.34393 
L 268.576843 216.322811 
L 269.076941 209.34393 
L 269.57704 216.322811 
L 270.077139 167.470643 
L 270.577237 195.386168 
L 271.077336 216.322811 
L 271.577434 226.791133 
L 271.577434 226.791133 
" style="fill:none;stroke:#ff7f0e;stroke-linecap:square;stroke-width:1.2;"/>
   </g>
   <g id="line2d_17">
    <path clip-path="url(#pcf404559f6)" d="M 95.542749 223.301692 
L 96.042848 223.301692 
L 96.542946 219.812252 
L 97.043045 209.34393 
L 97.543143 216.322811 
L 98.543341 188.407287 
L 99.043439 181.428406 
L 99.543538 209.34393 
L 100.043636 181.428406 
L 101.043833 223.301692 
L 101.543932 202.365049 
L 102.04403 174.449524 
L 102.544129 167.470643 
L 103.044227 188.407287 
L 103.544326 223.301692 
L 104.044424 212.833371 
L 104.544523 223.301692 
L 105.044621 216.322811 
L 105.54472 223.301692 
L 106.044819 209.34393 
L 107.045016 209.34393 
L 107.545114 216.322811 
L 108.045213 216.322811 
L 108.545311 167.470643 
L 109.04541 223.301692 
L 109.545508 216.322811 
L 110.045607 188.407287 
L 110.545705 216.322811 
L 111.045804 198.875608 
L 111.545902 202.365049 
L 112.046001 211.670224 
L 112.5461 202.365049 
L 113.046198 216.322811 
L 113.546297 202.365049 
L 114.046395 195.386168 
L 114.546494 153.512881 
L 115.046592 230.280573 
L 115.546691 216.322811 
L 116.046789 167.470643 
L 116.546888 209.34393 
L 117.046986 223.301692 
L 118.047183 167.470643 
L 118.547282 216.322811 
L 119.04738 230.280573 
L 119.547479 202.365049 
L 120.047578 188.407287 
L 120.547676 209.34393 
L 121.047775 209.34393 
L 121.547873 223.301692 
L 122.047972 118.618476 
L 122.54807 202.365049 
L 123.048169 209.34393 
L 123.548267 181.428406 
L 124.048366 216.322811 
M 125.048563 223.301692 
L 125.548661 216.322811 
L 126.04876 174.449524 
L 126.548859 195.386168 
L 127.048957 209.34393 
L 127.549056 209.34393 
L 128.049154 216.322811 
L 128.549253 209.34393 
L 129.049351 181.428406 
L 129.54945 216.322811 
L 130.049548 195.386168 
L 130.549647 209.34393 
L 131.049745 174.449524 
L 131.549844 202.365049 
L 132.049942 216.322811 
L 132.550041 223.301692 
L 133.05014 174.449524 
L 133.550238 212.833371 
L 134.050337 195.386168 
L 134.550435 188.407287 
L 135.050534 195.386168 
L 135.550632 237.259455 
L 136.050731 174.449524 
L 136.550829 160.491762 
L 137.050928 195.386168 
L 137.551026 209.34393 
L 138.051125 160.491762 
L 138.551223 188.407287 
L 139.051322 202.365049 
L 139.55142 188.407287 
L 140.051519 209.34393 
L 140.551618 209.34393 
L 141.051716 188.407287 
L 141.551815 195.386168 
L 142.051913 195.386168 
L 142.552012 216.322811 
L 143.05211 209.34393 
L 144.052307 209.34393 
L 144.552406 195.386168 
L 145.052504 223.301692 
L 145.552603 181.428406 
L 146.052701 181.428406 
L 146.5528 223.301692 
L 147.052899 209.34393 
L 147.552997 191.896727 
L 148.053096 188.407287 
L 148.553194 237.259455 
L 149.053293 223.301692 
L 149.553391 195.386168 
L 150.553588 209.34393 
L 151.053687 188.407287 
L 151.553785 195.386168 
L 152.053884 167.470643 
L 152.553982 177.938965 
L 153.054081 195.386168 
L 153.55418 188.407287 
L 154.054278 195.386168 
L 154.554377 181.428406 
L 155.054475 202.365049 
L 155.554574 162.818056 
L 156.054672 219.812252 
L 156.554771 209.34393 
L 157.054869 230.280573 
L 157.554968 132.576238 
L 158.055066 209.34393 
L 158.555165 181.428406 
L 159.055263 167.470643 
L 159.555362 209.34393 
L 160.05546 219.812252 
L 160.555559 195.386168 
L 161.055658 237.259455 
L 161.555756 195.386168 
L 162.055855 209.34393 
L 162.555953 202.365049 
L 163.056052 223.301692 
L 163.55615 188.407287 
L 164.056249 223.301692 
L 164.556347 223.301692 
L 165.056446 177.938965 
L 165.556544 223.301692 
L 166.056643 209.34393 
L 166.556741 209.34393 
L 167.05684 216.322811 
L 167.556939 167.470643 
L 168.057037 209.34393 
L 168.557136 174.449524 
L 169.057234 195.386168 
L 169.557333 209.34393 
L 170.057431 209.34393 
L 170.55753 174.449524 
L 171.057628 209.34393 
L 171.557727 230.280573 
L 172.557924 202.365049 
L 173.058022 216.322811 
L 173.558121 202.365049 
L 174.05822 209.34393 
L 174.558318 223.301692 
L 175.058417 167.470643 
L 175.558515 181.428406 
L 176.558712 195.386168 
L 177.058811 216.322811 
L 177.558909 209.34393 
L 178.059008 219.812252 
L 178.559106 188.407287 
L 179.059205 174.449524 
L 179.559303 209.34393 
L 180.059402 216.322811 
L 180.5595 195.386168 
L 181.059599 188.407287 
L 181.559698 139.555119 
L 182.059796 237.259455 
L 182.559895 132.576238 
L 183.059993 209.34393 
L 183.560092 118.618476 
L 184.06019 223.301692 
L 184.560289 223.301692 
L 185.060387 216.322811 
L 185.560486 195.386168 
L 186.060584 209.34393 
L 186.560683 216.322811 
L 187.060781 216.322811 
L 187.56088 237.259455 
L 188.060979 223.301692 
L 188.561077 188.407287 
L 189.061176 216.322811 
L 189.561274 202.365049 
L 190.061373 209.34393 
L 190.561471 209.34393 
L 191.06157 167.470643 
L 191.561668 209.34393 
L 192.061767 216.322811 
L 192.561865 237.259455 
L 193.061964 181.428406 
L 194.062161 237.259455 
L 194.56226 209.34393 
L 195.062358 174.449524 
L 195.562457 202.365049 
L 196.062555 209.34393 
L 196.562654 188.407287 
L 197.562851 216.322811 
L 198.062949 209.34393 
L 198.563048 167.470643 
L 199.063146 209.34393 
L 199.563245 216.322811 
L 200.063343 174.449524 
L 200.563442 209.34393 
L 201.06354 160.491762 
L 201.563639 230.280573 
L 202.063738 209.34393 
L 202.563836 209.34393 
L 203.063935 223.301692 
L 204.064132 160.491762 
L 204.56423 237.259455 
L 205.064329 177.938965 
L 205.564427 160.491762 
L 206.064526 202.365049 
L 206.564624 195.386168 
L 207.564821 223.301692 
L 208.06492 209.34393 
L 208.565019 202.365049 
L 209.065117 174.449524 
L 209.565216 230.280573 
L 210.065314 216.322811 
L 210.565413 181.428406 
L 211.065511 223.301692 
L 211.56561 174.449524 
L 212.065708 153.512881 
L 212.565807 223.301692 
L 213.065905 181.428406 
L 213.566004 216.322811 
L 214.066102 195.386168 
L 214.566201 216.322811 
L 215.0663 167.470643 
L 215.566398 195.386168 
L 216.066497 209.34393 
L 216.566595 216.322811 
L 217.066694 209.34393 
L 217.566792 174.449524 
L 218.066891 188.407287 
L 218.566989 167.470643 
L 219.067088 230.280573 
L 219.567186 198.875608 
L 220.067285 202.365049 
L 220.567383 209.34393 
L 221.067482 209.34393 
L 221.56758 216.322811 
L 222.067679 209.34393 
L 222.567778 216.322811 
L 223.067876 202.365049 
L 223.567975 209.34393 
L 224.068073 223.301692 
L 224.568172 181.428406 
L 225.06827 167.470643 
L 225.568369 167.470643 
L 226.068467 181.428406 
L 226.568566 181.428406 
L 227.068664 226.791133 
L 227.568763 188.407287 
L 228.068861 237.259455 
L 228.56896 188.407287 
L 229.069059 209.34393 
L 229.569157 153.512881 
L 230.069256 202.365049 
L 230.569354 207.017636 
L 231.069453 223.301692 
L 231.569551 209.34393 
L 232.06965 237.259455 
L 232.569748 216.322811 
L 233.069847 209.34393 
L 233.569945 160.491762 
L 234.070044 174.449524 
L 234.570142 223.301692 
L 235.070241 209.34393 
L 236.570537 209.34393 
L 237.070635 174.449524 
L 237.570734 188.407287 
L 238.070832 195.386168 
L 238.570931 209.34393 
L 239.071029 209.34393 
L 239.571128 202.365049 
L 240.071226 209.34393 
L 240.571325 209.34393 
L 241.071423 202.365049 
L 241.571522 202.365049 
L 242.07162 181.428406 
L 242.571719 167.470643 
L 243.071818 184.917846 
L 243.571916 237.259455 
L 244.072015 195.386168 
L 245.072212 167.470643 
L 245.57231 209.34393 
L 246.072409 195.386168 
L 246.572507 237.259455 
L 247.072606 176.775818 
L 247.572704 188.407287 
L 248.072803 209.34393 
L 248.572901 181.428406 
L 249.073 216.322811 
L 249.573099 202.365049 
L 250.073197 174.449524 
L 250.573296 202.365049 
L 251.073394 223.301692 
L 251.573493 184.917846 
L 252.073591 188.407287 
L 252.57369 202.365049 
L 253.073788 181.428406 
L 253.573887 167.470643 
L 254.073985 209.34393 
L 254.574084 188.407287 
L 255.074182 237.259455 
L 255.574281 216.322811 
L 256.074379 181.428406 
L 256.574478 223.301692 
L 257.074577 230.280573 
L 257.574675 188.407287 
L 258.074774 195.386168 
L 258.574872 174.449524 
L 259.074971 212.833371 
L 259.575069 202.365049 
L 259.575069 202.365049 
" style="fill:none;stroke:#2ca02c;stroke-linecap:square;stroke-width:1.2;"/>
   </g>
   <g id="line2d_18">
    <path clip-path="url(#pcf404559f6)" d="M 96.042848 230.280573 
L 96.542946 209.34393 
L 97.043045 195.386168 
M 98.043242 230.280573 
L 98.543341 195.386168 
M 99.543538 209.34393 
L 100.543735 195.386168 
L 101.043833 223.301692 
L 101.543932 181.428406 
L 102.04403 188.407287 
M 106.044819 181.428406 
L 106.544917 209.34393 
M 107.545114 188.407287 
L 108.045213 209.34393 
M 109.04541 174.449524 
L 109.545508 223.301692 
L 110.045607 202.365049 
M 111.045804 146.534 
L 111.545902 209.34393 
L 112.046001 230.280573 
L 112.5461 132.576238 
L 113.046198 216.322811 
L 113.546297 153.512881 
L 114.046395 202.365049 
L 115.046592 188.407287 
L 115.546691 209.34393 
L 116.046789 195.386168 
L 116.546888 209.34393 
M 117.547085 209.34393 
L 118.047183 209.34393 
M 119.04738 223.301692 
L 119.547479 195.386168 
L 120.047578 195.386168 
L 120.547676 223.301692 
L 121.047775 181.428406 
L 121.547873 167.470643 
M 123.048169 118.618476 
L 123.548267 209.34393 
M 125.048563 174.449524 
L 125.548661 167.470643 
M 126.548859 174.449524 
L 127.048957 209.34393 
L 127.549056 195.386168 
L 128.049154 216.322811 
M 131.049745 195.386168 
L 131.549844 223.301692 
L 132.049942 174.449524 
L 132.550041 209.34393 
L 133.05014 202.365049 
M 134.550435 202.365049 
L 135.050534 209.34393 
L 135.550632 223.301692 
L 136.050731 216.322811 
L 136.550829 153.512881 
L 137.050928 202.365049 
M 138.051125 237.259455 
L 138.551223 202.365049 
L 139.051322 195.386168 
L 139.55142 209.34393 
L 140.051519 195.386168 
L 140.551618 195.386168 
L 141.051716 216.322811 
M 143.552209 209.34393 
L 144.052307 209.34393 
M 146.052701 202.365049 
L 146.5528 237.259455 
L 147.052899 174.449524 
L 147.552997 202.365049 
M 152.053884 202.365049 
L 152.553982 202.365049 
L 153.054081 181.428406 
L 153.55418 202.365049 
L 154.054278 209.34393 
L 154.554377 202.365049 
L 155.054475 167.470643 
L 155.554574 223.301692 
L 156.054672 188.407287 
L 156.554771 209.34393 
M 158.555165 209.34393 
L 159.055263 188.407287 
M 161.055658 174.449524 
L 161.555756 216.322811 
L 162.055855 237.259455 
M 163.056052 202.365049 
L 163.55615 209.34393 
L 164.056249 174.449524 
L 164.556347 209.34393 
L 165.556544 209.34393 
L 165.556544 209.34393 
" style="fill:none;stroke:#d62728;stroke-linecap:square;stroke-width:1.2;"/>
   </g>
   <g id="line2d_19">
    <path clip-path="url(#pcf404559f6)" d="M 95.542749 216.322811 
L 96.042848 237.259455 
L 97.043045 167.470643 
L 97.543143 202.365049 
M 98.543341 209.34393 
L 99.043439 118.618476 
L 99.543538 202.365049 
L 100.043636 160.491762 
L 100.543735 209.34393 
L 101.043833 216.322811 
L 101.543932 174.449524 
L 102.04403 202.365049 
L 102.544129 223.301692 
L 103.044227 209.34393 
L 103.544326 209.34393 
L 104.044424 181.428406 
L 104.544523 209.34393 
L 105.044621 209.34393 
L 105.54472 195.386168 
L 106.044819 216.322811 
L 106.544917 188.407287 
L 107.045016 223.301692 
M 108.045213 195.386168 
L 108.545311 209.34393 
L 109.04541 219.812252 
L 109.545508 146.534 
L 110.045607 195.386168 
L 110.545705 146.534 
L 111.045804 209.34393 
L 111.545902 181.428406 
L 112.046001 188.407287 
L 112.5461 237.259455 
L 113.046198 205.85449 
L 113.546297 216.322811 
L 114.046395 174.449524 
L 114.546494 167.470643 
L 115.046592 139.555119 
L 115.546691 167.470643 
L 116.046789 237.259455 
L 117.046986 181.428406 
L 117.547085 188.407287 
L 118.047183 216.322811 
L 118.547282 209.34393 
L 119.04738 160.491762 
L 119.547479 195.386168 
L 120.047578 174.449524 
L 121.047775 202.365049 
L 121.547873 177.938965 
L 122.047972 195.386168 
L 122.54807 181.428406 
L 123.048169 237.259455 
L 123.548267 216.322811 
L 124.048366 167.470643 
L 124.548464 209.34393 
L 125.048563 167.470643 
L 125.548661 202.365049 
L 126.04876 209.34393 
L 127.048957 167.470643 
L 127.549056 209.34393 
L 128.049154 167.470643 
L 128.549253 209.34393 
L 129.049351 188.407287 
L 130.049548 216.322811 
L 130.549647 195.386168 
L 131.049745 181.428406 
L 131.549844 223.301692 
L 132.049942 195.386168 
L 132.550041 209.34393 
L 133.05014 167.470643 
L 133.550238 202.365049 
L 134.050337 167.470643 
L 134.550435 153.512881 
L 135.050534 216.322811 
L 135.550632 188.407287 
L 136.050731 216.322811 
L 136.550829 223.301692 
L 137.050928 139.555119 
L 137.551026 160.491762 
L 138.051125 174.449524 
L 138.551223 174.449524 
L 139.051322 209.34393 
L 139.55142 216.322811 
L 140.051519 188.407287 
L 140.551618 209.34393 
M 141.551815 139.555119 
L 142.051913 209.34393 
M 143.05211 153.512881 
L 143.552209 209.34393 
L 144.052307 195.386168 
L 144.552406 209.34393 
L 145.052504 209.34393 
L 145.552603 202.365049 
M 146.5528 209.34393 
L 147.052899 160.491762 
L 147.552997 202.365049 
L 148.053096 216.322811 
L 148.553194 174.449524 
L 149.053293 167.470643 
L 149.553391 209.34393 
L 150.05349 160.491762 
L 150.553588 132.576238 
L 151.053687 167.470643 
L 151.553785 212.833371 
L 152.053884 237.259455 
L 152.553982 174.449524 
L 153.55418 202.365049 
L 154.054278 198.875608 
L 154.554377 209.34393 
L 155.054475 237.259455 
L 156.054672 195.386168 
L 156.554771 167.470643 
M 157.554968 202.365049 
L 158.055066 209.34393 
L 158.555165 230.280573 
M 159.555362 209.34393 
L 160.05546 167.470643 
L 160.555559 237.259455 
L 161.055658 188.407287 
L 161.555756 216.322811 
L 162.055855 125.597357 
L 162.555953 188.407287 
L 163.056052 202.365049 
L 163.55615 195.386168 
L 164.056249 195.386168 
M 165.056446 209.34393 
L 165.556544 174.449524 
L 166.056643 209.34393 
L 166.556741 160.491762 
L 167.05684 202.365049 
L 167.556939 167.470643 
L 168.057037 195.386168 
L 168.557136 181.428406 
L 169.057234 209.34393 
L 170.057431 146.534 
M 171.057628 167.470643 
L 171.557727 237.259455 
L 172.057825 181.428406 
L 172.557924 209.34393 
L 173.558121 209.34393 
L 174.05822 125.597357 
L 174.558318 188.407287 
L 175.058417 209.34393 
L 175.558515 139.555119 
L 176.058614 167.470643 
L 176.558712 209.34393 
L 177.058811 209.34393 
L 177.558909 181.428406 
L 178.059008 188.407287 
L 178.559106 209.34393 
L 179.059205 104.660713 
L 179.559303 188.407287 
L 180.059402 209.34393 
L 180.5595 160.491762 
L 181.059599 216.322811 
L 181.559698 111.639594 
L 182.059796 167.470643 
L 182.559895 181.428406 
L 183.059993 160.491762 
L 183.560092 111.639594 
L 184.06019 209.34393 
L 184.560289 167.470643 
L 185.060387 174.449524 
L 185.560486 202.365049 
L 186.060584 167.470643 
L 186.560683 230.280573 
L 187.060781 167.470643 
L 187.56088 223.301692 
L 188.060979 174.449524 
L 188.561077 167.470643 
L 189.061176 181.428406 
L 189.561274 181.428406 
M 191.06157 209.34393 
L 191.561668 181.428406 
L 192.061767 195.386168 
L 192.561865 202.365049 
L 193.562062 188.407287 
L 194.56226 188.407287 
L 195.062358 202.365049 
L 195.562457 195.386168 
L 196.062555 167.470643 
L 196.562654 157.002322 
L 197.062752 223.301692 
L 197.562851 202.365049 
L 198.062949 167.470643 
L 199.063146 209.34393 
L 199.563245 223.301692 
L 199.563245 223.301692 
" style="fill:none;stroke:#9467bd;stroke-linecap:square;stroke-width:1.2;"/>
   </g>
   <g id="line2d_20">
    <path clip-path="url(#pcf404559f6)" d="M 95.542749 209.34393 
L 96.042848 230.280573 
L 96.542946 223.301692 
L 97.043045 223.301692 
M 98.043242 202.365049 
L 98.543341 162.818056 
L 99.043439 167.470643 
L 99.543538 209.34393 
L 100.043636 195.386168 
L 100.543735 167.470643 
L 101.043833 202.365049 
M 102.04403 202.365049 
L 102.544129 209.34393 
L 103.044227 188.407287 
L 103.544326 191.896727 
M 104.544523 216.322811 
L 105.54472 160.491762 
L 106.044819 202.365049 
L 106.544917 167.470643 
L 107.045016 160.491762 
L 107.545114 167.470643 
L 108.045213 202.365049 
L 108.545311 160.491762 
L 109.04541 202.365049 
M 110.045607 209.34393 
L 110.545705 209.34393 
L 111.045804 202.365049 
L 111.545902 198.875608 
L 112.046001 209.34393 
L 112.5461 209.34393 
M 113.546297 167.470643 
L 114.046395 216.322811 
L 114.546494 209.34393 
L 115.046592 181.428406 
L 115.546691 202.365049 
M 116.546888 216.322811 
L 117.046986 209.34393 
L 117.547085 237.259455 
L 118.047183 216.322811 
L 118.547282 160.491762 
L 119.04738 200.038755 
L 119.547479 216.322811 
L 120.547676 202.365049 
L 121.047775 202.365049 
L 121.547873 188.407287 
M 122.54807 209.34393 
L 123.048169 212.833371 
L 123.548267 181.428406 
L 124.048366 202.365049 
L 124.548464 195.386168 
L 125.048563 209.34393 
L 125.548661 202.365049 
L 126.04876 184.917846 
L 126.548859 223.301692 
L 127.048957 209.34393 
L 127.549056 212.833371 
L 128.049154 188.407287 
L 128.549253 153.512881 
L 129.049351 223.301692 
M 130.049548 174.449524 
L 130.549647 223.301692 
L 131.049745 216.322811 
L 131.549844 230.280573 
L 132.049942 209.34393 
L 132.550041 160.491762 
L 133.05014 174.449524 
M 134.550435 205.85449 
L 135.050534 195.386168 
L 135.550632 191.896727 
L 136.050731 209.34393 
M 138.051125 188.407287 
L 138.551223 167.470643 
L 139.051322 209.34393 
L 139.55142 167.470643 
L 140.051519 188.407287 
L 140.551618 167.470643 
L 141.051716 202.365049 
L 141.551815 209.34393 
L 142.051913 230.280573 
L 142.552012 202.365049 
L 143.05211 209.34393 
M 144.052307 202.365049 
L 145.052504 163.981203 
M 146.5528 118.618476 
L 147.052899 146.534 
L 147.552997 195.386168 
L 148.053096 209.34393 
L 148.553194 188.407287 
L 149.053293 209.34393 
L 149.553391 223.301692 
L 150.05349 188.407287 
L 150.553588 209.34393 
L 151.053687 209.34393 
L 151.553785 160.491762 
L 152.053884 209.34393 
L 152.553982 174.449524 
L 153.55418 216.322811 
M 154.554377 174.449524 
L 155.054475 188.407287 
L 155.554574 216.322811 
L 156.054672 202.365049 
L 157.054869 223.301692 
L 158.055066 209.34393 
L 158.555165 205.85449 
L 159.055263 216.322811 
L 159.555362 167.470643 
L 160.555559 209.34393 
M 161.555756 209.34393 
L 162.055855 195.386168 
L 162.555953 174.449524 
L 163.056052 188.407287 
L 163.55615 209.34393 
L 164.056249 167.470643 
L 165.056446 167.470643 
L 165.556544 188.407287 
L 166.056643 195.386168 
L 166.556741 181.428406 
L 167.05684 181.428406 
L 167.556939 212.833371 
L 168.057037 202.365049 
L 168.557136 198.875608 
L 169.057234 188.407287 
L 169.557333 202.365049 
L 170.057431 209.34393 
L 170.55753 181.428406 
L 171.057628 167.470643 
L 171.557727 188.407287 
L 172.057825 195.386168 
L 172.557924 181.428406 
L 173.058022 209.34393 
L 173.558121 132.576238 
L 174.05822 174.449524 
L 174.558318 160.491762 
L 175.058417 223.301692 
L 175.558515 216.322811 
L 176.058614 167.470643 
L 176.558712 223.301692 
L 177.058811 216.322811 
L 177.558909 202.365049 
L 178.059008 216.322811 
L 178.559106 188.407287 
L 179.059205 167.470643 
L 179.559303 181.428406 
L 180.059402 202.365049 
L 180.5595 202.365049 
L 181.059599 195.386168 
M 182.059796 153.512881 
L 182.559895 167.470643 
L 183.059993 195.386168 
L 183.560092 167.470643 
L 184.06019 160.491762 
L 184.560289 216.322811 
L 185.060387 237.259455 
M 186.560683 223.301692 
L 187.060781 181.428406 
L 187.56088 209.34393 
L 188.060979 209.34393 
L 188.561077 160.491762 
L 189.061176 195.386168 
L 189.561274 202.365049 
L 190.061373 188.407287 
L 190.561471 223.301692 
L 191.06157 188.407287 
L 191.561668 195.386168 
L 192.061767 174.449524 
L 193.061964 188.407287 
L 193.562062 202.365049 
L 194.062161 209.34393 
L 194.56226 153.512881 
L 195.062358 209.34393 
L 195.562457 230.280573 
L 196.062555 195.386168 
L 196.562654 195.386168 
L 197.562851 223.301692 
L 198.062949 181.428406 
L 198.563048 209.34393 
L 199.063146 223.301692 
L 199.563245 202.365049 
L 200.063343 188.407287 
M 202.063738 195.386168 
L 202.563836 195.386168 
L 203.063935 230.280573 
L 203.564033 160.491762 
L 204.064132 195.386168 
L 204.56423 198.875608 
L 205.064329 160.491762 
L 205.564427 216.322811 
M 206.564624 209.34393 
L 207.064723 237.259455 
L 207.564821 209.34393 
L 208.06492 195.386168 
L 208.565019 202.365049 
L 209.065117 237.259455 
L 209.565216 160.491762 
L 210.065314 188.407287 
L 210.565413 153.512881 
M 211.56561 216.322811 
L 212.065708 230.280573 
M 213.065905 195.386168 
L 213.566004 181.428406 
L 214.066102 202.365049 
L 214.566201 209.34393 
L 215.0663 167.470643 
L 215.566398 188.407287 
L 216.066497 181.428406 
L 216.566595 181.428406 
M 217.566792 188.407287 
L 218.066891 195.386168 
L 218.566989 209.34393 
L 219.567186 209.34393 
L 220.067285 230.280573 
L 220.567383 195.386168 
L 221.067482 188.407287 
L 221.56758 160.491762 
L 222.067679 160.491762 
L 222.567778 209.34393 
L 223.067876 209.34393 
L 223.567975 205.85449 
L 224.068073 230.280573 
L 224.568172 188.407287 
L 225.06827 167.470643 
L 225.568369 223.301692 
L 226.068467 139.555119 
L 226.568566 167.470643 
L 227.068664 209.34393 
L 227.568763 181.428406 
L 228.068861 195.386168 
M 229.069059 209.34393 
L 229.569157 188.407287 
L 230.069256 209.34393 
L 230.569354 209.34393 
M 231.569551 132.576238 
L 232.06965 209.34393 
M 233.069847 223.301692 
L 233.569945 223.301692 
L 234.070044 167.470643 
L 234.570142 188.407287 
L 235.070241 237.259455 
L 235.570339 202.365049 
L 236.070438 209.34393 
L 236.570537 209.34393 
L 237.070635 160.491762 
L 237.570734 209.34393 
L 238.070832 167.470643 
L 238.570931 223.301692 
L 239.071029 191.896727 
L 239.571128 188.407287 
L 240.071226 209.34393 
L 240.571325 202.365049 
L 241.071423 188.407287 
L 241.571522 160.491762 
M 242.571719 209.34393 
L 243.071818 202.365049 
L 243.571916 188.407287 
L 244.072015 209.34393 
L 244.572113 202.365049 
L 245.072212 209.34393 
L 245.57231 181.428406 
L 246.572507 209.34393 
L 247.072606 202.365049 
M 248.072803 216.322811 
L 249.073 202.365049 
L 249.573099 209.34393 
L 250.073197 170.960084 
L 250.573296 223.301692 
L 251.073394 219.812252 
L 251.573493 160.491762 
L 252.073591 202.365049 
L 252.57369 167.470643 
L 254.073985 230.280573 
L 254.073985 230.280573 
" style="fill:none;stroke:#8c564b;stroke-linecap:square;stroke-width:1.2;"/>
   </g>
   <g id="line2d_21">
    <path clip-path="url(#pcf404559f6)" d="M 95.542749 209.34393 
L 96.042848 188.407287 
L 96.542946 202.365049 
L 97.043045 167.470643 
L 97.543143 202.365049 
L 98.043242 209.34393 
L 98.543341 195.386168 
L 99.043439 209.34393 
L 99.543538 216.322811 
L 100.043636 174.449524 
L 100.543735 237.259455 
L 101.043833 202.365049 
M 103.044227 181.428406 
L 103.544326 219.812252 
L 104.044424 167.470643 
L 104.544523 195.386168 
L 105.044621 188.407287 
L 105.54472 209.34393 
L 106.044819 209.34393 
L 106.544917 163.981203 
L 107.045016 181.428406 
L 107.545114 209.34393 
L 108.045213 223.301692 
L 108.545311 188.407287 
L 109.04541 167.470643 
L 109.545508 216.322811 
L 110.045607 202.365049 
L 110.545705 223.301692 
L 111.045804 216.322811 
L 111.545902 223.301692 
L 112.046001 153.512881 
L 112.5461 174.449524 
L 113.046198 188.407287 
L 113.546297 188.407287 
L 114.046395 209.34393 
L 114.546494 223.301692 
L 115.046592 223.301692 
L 115.546691 174.449524 
L 116.046789 153.512881 
M 117.046986 181.428406 
L 117.547085 172.123231 
L 118.047183 188.407287 
M 119.04738 216.322811 
L 119.547479 167.470643 
L 120.047578 202.365049 
L 120.547676 181.428406 
L 121.547873 223.301692 
L 122.047972 191.896727 
L 122.54807 205.85449 
L 123.048169 153.512881 
M 124.048366 223.301692 
L 124.548464 160.491762 
L 125.048563 202.365049 
L 125.548661 146.534 
L 126.04876 202.365049 
L 126.548859 209.34393 
L 127.048957 209.34393 
L 127.549056 167.470643 
L 128.049154 216.322811 
L 128.549253 118.618476 
L 129.049351 209.34393 
L 129.54945 195.386168 
M 131.049745 209.34393 
L 131.549844 209.34393 
L 132.049942 191.896727 
L 132.550041 188.407287 
L 133.05014 160.491762 
M 134.050337 195.386168 
L 134.550435 188.407287 
L 135.050534 209.34393 
L 135.550632 188.407287 
M 137.050928 195.386168 
L 137.551026 125.597357 
L 138.051125 193.059874 
L 138.551223 195.386168 
M 139.55142 223.301692 
L 140.051519 153.512881 
L 140.551618 195.386168 
L 141.051716 209.34393 
L 142.051913 146.534 
L 142.552012 195.386168 
L 143.05211 198.875608 
L 143.552209 195.386168 
L 144.052307 153.512881 
L 144.552406 223.301692 
L 145.052504 202.365049 
L 145.552603 167.470643 
L 146.052701 179.102112 
M 147.552997 181.428406 
L 148.053096 209.34393 
L 148.553194 209.34393 
L 149.053293 188.407287 
L 149.553391 188.407287 
L 150.05349 174.449524 
L 150.553588 202.365049 
L 151.053687 195.386168 
L 151.553785 209.34393 
L 152.053884 174.449524 
L 152.553982 195.386168 
L 153.054081 198.875608 
L 153.55418 237.259455 
L 154.054278 195.386168 
L 154.554377 163.981203 
L 155.054475 174.449524 
L 155.554574 195.386168 
L 156.054672 181.428406 
L 156.554771 237.259455 
M 157.554968 205.85449 
L 158.055066 209.34393 
L 158.555165 160.491762 
L 159.055263 237.259455 
L 159.555362 167.470643 
L 160.05546 230.280573 
L 160.555559 160.491762 
L 161.055658 195.386168 
L 161.555756 181.428406 
L 162.055855 188.407287 
L 162.555953 174.449524 
L 163.056052 167.470643 
M 164.056249 202.365049 
L 164.556347 230.280573 
L 165.056446 153.512881 
L 165.556544 181.428406 
L 166.056643 216.322811 
L 166.556741 167.470643 
L 167.05684 153.512881 
L 167.556939 174.449524 
L 168.057037 181.428406 
L 168.557136 209.34393 
M 169.557333 195.386168 
L 170.057431 223.301692 
L 170.55753 174.449524 
L 171.057628 216.322811 
L 171.557727 216.322811 
L 172.057825 230.280573 
L 172.557924 216.322811 
L 173.058022 195.386168 
M 174.558318 209.34393 
L 175.058417 209.34393 
L 175.558515 188.407287 
L 176.058614 195.386168 
L 176.558712 209.34393 
L 177.058811 125.597357 
L 177.558909 223.301692 
L 178.559106 167.470643 
L 179.059205 195.386168 
L 179.559303 212.833371 
L 180.059402 202.365049 
L 180.5595 209.34393 
L 181.059599 160.491762 
L 181.559698 209.34393 
M 182.559895 132.576238 
L 183.059993 167.470643 
M 184.06019 209.34393 
L 184.560289 153.512881 
L 185.560486 153.512881 
L 186.060584 195.386168 
L 186.560683 202.365049 
L 187.060781 202.365049 
L 187.56088 160.491762 
M 188.561077 188.407287 
L 189.061176 202.365049 
L 189.561274 209.34393 
L 190.061373 118.618476 
L 190.561471 198.875608 
L 191.06157 216.322811 
L 191.561668 209.34393 
L 192.561865 209.34393 
L 193.061964 230.280573 
L 193.562062 195.386168 
L 194.062161 195.386168 
L 194.56226 209.34393 
L 195.062358 205.85449 
L 195.562457 174.449524 
L 196.062555 230.280573 
M 197.062752 198.875608 
L 197.562851 195.386168 
L 198.062949 216.322811 
L 198.563048 209.34393 
L 199.063146 181.428406 
L 199.563245 55.808545 
L 200.063343 209.34393 
M 202.063738 209.34393 
L 202.563836 202.365049 
M 204.56423 223.301692 
L 205.064329 167.470643 
L 205.564427 209.34393 
L 206.064526 216.322811 
L 206.564624 174.449524 
M 207.564821 198.875608 
L 208.06492 209.34393 
L 208.565019 209.34393 
L 209.065117 181.428406 
L 209.565216 184.917846 
L 210.065314 181.428406 
M 211.065511 181.428406 
L 211.56561 209.34393 
L 212.065708 209.34393 
L 212.565807 216.322811 
L 213.566004 188.407287 
L 214.066102 195.386168 
L 214.566201 226.791133 
L 215.0663 209.34393 
L 215.566398 216.322811 
L 216.066497 209.34393 
L 216.566595 188.407287 
M 218.566989 209.34393 
L 219.067088 202.365049 
L 219.567186 181.428406 
L 220.067285 198.875608 
L 220.567383 160.491762 
L 221.067482 223.301692 
L 221.56758 181.428406 
L 222.067679 184.917846 
M 223.067876 174.449524 
L 223.567975 209.34393 
L 224.068073 195.386168 
L 224.568172 195.386168 
L 225.06827 219.812252 
L 225.568369 202.365049 
L 226.068467 223.301692 
L 226.568566 188.407287 
M 227.568763 202.365049 
L 228.068861 146.534 
L 228.56896 216.322811 
L 229.069059 209.34393 
L 229.569157 167.470643 
M 230.569354 209.34393 
L 231.069453 216.322811 
M 232.06965 174.449524 
L 232.569748 202.365049 
L 233.569945 202.365049 
L 234.070044 209.34393 
L 234.570142 209.34393 
L 235.070241 216.322811 
L 235.570339 202.365049 
L 236.070438 195.386168 
L 236.570537 209.34393 
L 237.070635 216.322811 
L 237.570734 125.597357 
L 238.070832 198.875608 
L 238.570931 209.34393 
L 239.071029 216.322811 
L 239.571128 205.85449 
L 240.071226 209.34393 
L 240.571325 216.322811 
M 241.571522 167.470643 
L 242.07162 181.428406 
L 242.571719 188.407287 
M 243.571916 174.449524 
L 244.072015 160.491762 
M 245.072212 223.301692 
L 245.57231 167.470643 
L 246.072409 216.322811 
L 246.572507 216.322811 
L 247.072606 167.470643 
L 247.572704 209.34393 
L 248.072803 209.34393 
M 249.573099 216.322811 
L 250.073197 202.365049 
L 250.573296 167.470643 
L 251.073394 167.470643 
M 252.073591 223.301692 
L 252.57369 209.34393 
L 253.073788 237.259455 
M 254.073985 209.34393 
L 254.574084 223.301692 
L 255.074182 202.365049 
L 256.074379 216.322811 
L 256.574478 181.428406 
L 257.074577 195.386168 
L 257.574675 223.301692 
L 258.074774 198.875608 
L 258.574872 205.85449 
L 259.074971 167.470643 
M 260.075168 139.555119 
L 260.575266 202.365049 
L 261.075365 202.365049 
M 263.575858 209.34393 
L 264.075956 202.365049 
L 264.576055 209.34393 
L 265.076153 167.470643 
L 265.576252 195.386168 
L 266.07635 174.449524 
L 266.576449 202.365049 
L 267.076547 205.85449 
L 267.576646 167.470643 
L 268.076744 202.365049 
L 268.576843 211.670224 
L 269.076941 183.754699 
L 269.57704 195.386168 
L 270.077139 223.301692 
L 270.577237 230.280573 
L 271.077336 209.34393 
L 271.577434 216.322811 
L 272.077533 205.85449 
M 274.077927 195.386168 
L 274.578025 216.322811 
L 275.078124 169.796937 
L 275.578222 209.34393 
L 276.078321 209.34393 
L 276.578419 153.512881 
L 277.078518 205.85449 
L 277.578617 195.386168 
L 278.078715 223.301692 
L 278.578814 202.365049 
L 279.579011 188.407287 
M 280.579208 223.301692 
L 281.079306 216.322811 
M 282.079503 209.34393 
L 282.579602 177.938965 
L 283.579799 209.34393 
M 284.579996 223.301692 
L 285.080095 146.534 
L 285.580193 188.407287 
L 286.080292 174.449524 
L 286.58039 184.917846 
L 287.080489 209.34393 
L 287.580587 195.386168 
L 288.080686 195.386168 
L 288.580784 181.428406 
M 289.580981 177.938965 
L 290.08108 216.322811 
L 290.581179 191.896727 
L 291.081277 223.301692 
L 291.581376 202.365049 
L 292.081474 174.449524 
L 292.581573 237.259455 
L 293.081671 209.34393 
L 293.58177 209.34393 
L 294.081868 216.322811 
L 294.581967 202.365049 
L 295.082065 195.386168 
L 295.582164 209.34393 
L 296.082262 111.639594 
L 296.582361 216.322811 
L 297.082459 160.491762 
L 297.582558 202.365049 
M 300.583149 153.512881 
L 301.083248 188.407287 
L 301.583346 195.386168 
L 302.083445 188.407287 
M 303.58374 160.491762 
L 304.083839 188.407287 
L 304.583938 202.365049 
L 305.084036 209.34393 
L 305.584135 223.301692 
L 306.084233 205.85449 
L 306.584332 209.34393 
M 309.084824 209.34393 
L 309.584923 150.023441 
L 310.085021 146.534 
M 311.085219 202.365049 
L 311.585317 181.428406 
M 312.585514 202.365049 
L 313.085613 160.491762 
M 314.08581 160.491762 
L 314.585908 167.470643 
M 315.586105 209.34393 
L 316.086204 209.34393 
L 316.586302 181.428406 
L 317.086401 174.449524 
L 317.586499 205.85449 
L 318.086598 209.34393 
L 318.586697 195.386168 
L 319.086795 188.407287 
L 319.586894 191.896727 
L 320.086992 223.301692 
L 320.587091 153.512881 
L 321.087189 177.938965 
L 321.587288 209.34393 
L 322.087386 209.34393 
L 322.587485 160.491762 
L 323.087583 205.85449 
L 323.587682 209.34393 
M 324.587879 237.259455 
L 325.087978 167.470643 
M 326.088175 167.470643 
L 327.088372 223.301692 
L 327.58847 202.365049 
L 328.088569 223.301692 
L 328.588667 223.301692 
L 329.088766 167.470643 
L 329.588864 195.386168 
L 330.088963 230.280573 
M 331.08916 195.386168 
L 331.589259 202.365049 
L 332.089357 167.470643 
L 332.589456 188.407287 
L 333.089554 237.259455 
L 333.589653 223.301692 
L 334.089751 174.449524 
L 334.58985 209.34393 
L 335.089948 230.280573 
L 335.590047 197.712462 
L 336.090145 216.322811 
L 336.590244 146.534 
L 337.090342 216.322811 
M 338.090539 209.34393 
L 338.590638 223.301692 
L 339.090737 202.365049 
M 340.090934 160.491762 
L 340.591032 188.407287 
M 341.591229 181.428406 
L 342.091328 209.34393 
M 343.591623 111.639594 
L 344.091722 188.407287 
L 344.59182 230.280573 
L 345.091919 167.470643 
M 348.09251 209.34393 
L 348.592609 209.34393 
L 349.092707 181.428406 
L 349.592806 195.386168 
L 350.092904 223.301692 
L 350.593003 209.34393 
L 351.093101 174.449524 
M 352.093299 195.386168 
L 352.593397 209.34393 
L 353.093496 230.280573 
L 353.593594 216.322811 
L 354.093693 216.322811 
M 355.09389 209.34393 
L 355.593988 167.470643 
L 356.094087 202.365049 
L 356.594185 188.407287 
L 357.094284 216.322811 
M 358.094481 230.280573 
L 358.594579 202.365049 
L 359.094678 202.365049 
L 359.594777 188.407287 
L 360.094875 209.34393 
L 360.594974 212.833371 
L 361.095072 174.449524 
L 361.595171 209.34393 
L 362.095269 188.407287 
M 364.095663 174.449524 
L 364.595762 195.386168 
L 365.09586 181.428406 
L 365.595959 181.428406 
L 366.096058 216.322811 
L 366.596156 181.428406 
L 367.096255 167.470643 
L 367.596353 195.386168 
L 368.096452 209.34393 
L 368.59655 160.491762 
L 369.596747 223.301692 
L 370.096846 188.407287 
L 370.596944 181.428406 
L 371.097043 209.34393 
M 372.09724 209.34393 
L 372.597338 223.301692 
L 373.097437 230.280573 
L 373.597536 188.407287 
L 374.097634 167.470643 
L 374.597733 202.365049 
L 375.097831 146.534 
L 375.59793 188.407287 
L 376.098028 209.34393 
L 376.598127 195.386168 
L 377.098225 195.386168 
M 378.098422 209.34393 
L 378.598521 223.301692 
M 380.598915 209.34393 
L 381.099014 181.428406 
L 381.599112 223.301692 
L 382.099211 167.470643 
L 382.599309 202.365049 
M 383.599506 167.470643 
L 384.099605 209.34393 
L 384.599703 174.449524 
L 385.099802 209.34393 
L 385.5999 188.407287 
L 386.099999 223.301692 
L 386.600098 202.365049 
L 387.100196 195.386168 
L 387.600295 202.365049 
L 388.100393 195.386168 
L 388.600492 211.670224 
L 389.10059 181.428406 
L 389.600689 195.386168 
M 390.600886 237.259455 
L 391.100984 202.365049 
L 391.601083 188.407287 
L 392.101181 202.365049 
L 392.60128 195.386168 
L 393.101378 191.896727 
L 393.601477 181.428406 
M 395.601871 160.491762 
L 396.10197 223.301692 
L 396.602068 205.85449 
L 397.102167 237.259455 
M 398.602462 188.407287 
L 399.102561 172.123231 
L 399.602659 188.407287 
M 400.602857 167.470643 
L 401.102955 181.428406 
L 401.603054 216.322811 
L 402.103152 153.512881 
L 402.603251 198.875608 
L 403.103349 181.428406 
L 403.603448 202.365049 
L 404.103546 216.322811 
L 404.603645 209.34393 
L 405.103743 230.280573 
L 405.603842 195.386168 
L 406.10394 188.407287 
L 406.10394 188.407287 
" style="fill:none;stroke:#e377c2;stroke-linecap:square;stroke-width:1.2;"/>
   </g>
   <g id="patch_3">
    <path d="M 80.01469 246.332 
L 80.01469 46.736 
" style="fill:none;stroke:#000000;stroke-linecap:square;stroke-linejoin:miter;"/>
   </g>
   <g id="patch_4">
    <path d="M 421.632 246.332 
L 421.632 46.736 
" style="fill:none;stroke:#000000;stroke-linecap:square;stroke-linejoin:miter;"/>
   </g>
   <g id="patch_5">
    <path d="M 80.01469 246.332 
L 421.632 246.332 
" style="fill:none;stroke:#000000;stroke-linecap:square;stroke-linejoin:miter;"/>
   </g>
   <g id="patch_6">
    <path d="M 80.01469 46.736 
L 421.632 46.736 
" style="fill:none;stroke:#000000;stroke-linecap:square;stroke-linejoin:miter;"/>
   </g>
   <g id="text_15">
    <!-- Sample #1 - 10% of 1.6 million records -->
    <g transform="translate(156.588845 40.736)scale(0.096 -0.096)">
     <defs>
      <path d="M 3425 4513 
L 3425 3897 
Q 3066 4069 2747 4153 
Q 2428 4238 2131 4238 
Q 1616 4238 1336 4038 
Q 1056 3838 1056 3469 
Q 1056 3159 1242 3001 
Q 1428 2844 1947 2747 
L 2328 2669 
Q 3034 2534 3370 2195 
Q 3706 1856 3706 1288 
Q 3706 609 3251 259 
Q 2797 -91 1919 -91 
Q 1588 -91 1214 -16 
Q 841 59 441 206 
L 441 856 
Q 825 641 1194 531 
Q 1563 422 1919 422 
Q 2459 422 2753 634 
Q 3047 847 3047 1241 
Q 3047 1584 2836 1778 
Q 2625 1972 2144 2069 
L 1759 2144 
Q 1053 2284 737 2584 
Q 422 2884 422 3419 
Q 422 4038 858 4394 
Q 1294 4750 2059 4750 
Q 2388 4750 2728 4690 
Q 3069 4631 3425 4513 
z
" id="DejaVuSans-53" transform="scale(0.015625)"/>
      <path d="M 603 4863 
L 1178 4863 
L 1178 0 
L 603 0 
L 603 4863 
z
" id="DejaVuSans-6c" transform="scale(0.015625)"/>
      <path d="M 3272 2816 
L 2363 2816 
L 2100 1772 
L 3016 1772 
L 3272 2816 
z
M 2803 4594 
L 2478 3297 
L 3391 3297 
L 3719 4594 
L 4219 4594 
L 3897 3297 
L 4872 3297 
L 4872 2816 
L 3775 2816 
L 3519 1772 
L 4513 1772 
L 4513 1294 
L 3397 1294 
L 3072 0 
L 2572 0 
L 2894 1294 
L 1978 1294 
L 1656 0 
L 1153 0 
L 1478 1294 
L 494 1294 
L 494 1772 
L 1594 1772 
L 1856 2816 
L 850 2816 
L 850 3297 
L 1978 3297 
L 2297 4594 
L 2803 4594 
z
" id="DejaVuSans-23" transform="scale(0.015625)"/>
      <path d="M 4653 2053 
Q 4381 2053 4226 1822 
Q 4072 1591 4072 1178 
Q 4072 772 4226 539 
Q 4381 306 4653 306 
Q 4919 306 5073 539 
Q 5228 772 5228 1178 
Q 5228 1588 5073 1820 
Q 4919 2053 4653 2053 
z
M 4653 2450 
Q 5147 2450 5437 2106 
Q 5728 1763 5728 1178 
Q 5728 594 5436 251 
Q 5144 -91 4653 -91 
Q 4153 -91 3862 251 
Q 3572 594 3572 1178 
Q 3572 1766 3864 2108 
Q 4156 2450 4653 2450 
z
M 1428 4353 
Q 1159 4353 1004 4120 
Q 850 3888 850 3481 
Q 850 3069 1003 2837 
Q 1156 2606 1428 2606 
Q 1700 2606 1854 2837 
Q 2009 3069 2009 3481 
Q 2009 3884 1853 4118 
Q 1697 4353 1428 4353 
z
M 4250 4750 
L 4750 4750 
L 1831 -91 
L 1331 -91 
L 4250 4750 
z
M 1428 4750 
Q 1922 4750 2215 4408 
Q 2509 4066 2509 3481 
Q 2509 2891 2217 2550 
Q 1925 2209 1428 2209 
Q 931 2209 642 2551 
Q 353 2894 353 3481 
Q 353 4063 643 4406 
Q 934 4750 1428 4750 
z
" id="DejaVuSans-25" transform="scale(0.015625)"/>
      <path d="M 1959 3097 
Q 1497 3097 1228 2736 
Q 959 2375 959 1747 
Q 959 1119 1226 758 
Q 1494 397 1959 397 
Q 2419 397 2687 759 
Q 2956 1122 2956 1747 
Q 2956 2369 2687 2733 
Q 2419 3097 1959 3097 
z
M 1959 3584 
Q 2709 3584 3137 3096 
Q 3566 2609 3566 1747 
Q 3566 888 3137 398 
Q 2709 -91 1959 -91 
Q 1206 -91 779 398 
Q 353 888 353 1747 
Q 353 2609 779 3096 
Q 1206 3584 1959 3584 
z
" id="DejaVuSans-6f" transform="scale(0.015625)"/>
      <path d="M 2375 4863 
L 2375 4384 
L 1825 4384 
Q 1516 4384 1395 4259 
Q 1275 4134 1275 3809 
L 1275 3500 
L 2222 3500 
L 2222 3053 
L 1275 3053 
L 1275 0 
L 697 0 
L 697 3053 
L 147 3053 
L 147 3500 
L 697 3500 
L 697 3744 
Q 697 4328 969 4595 
Q 1241 4863 1831 4863 
L 2375 4863 
z
" id="DejaVuSans-66" transform="scale(0.015625)"/>
      <path d="M 684 794 
L 1344 794 
L 1344 0 
L 684 0 
L 684 794 
z
" id="DejaVuSans-2e" transform="scale(0.015625)"/>
      <path d="M 3513 2113 
L 3513 0 
L 2938 0 
L 2938 2094 
Q 2938 2591 2744 2837 
Q 2550 3084 2163 3084 
Q 1697 3084 1428 2787 
Q 1159 2491 1159 1978 
L 1159 0 
L 581 0 
L 581 3500 
L 1159 3500 
L 1159 2956 
Q 1366 3272 1645 3428 
Q 1925 3584 2291 3584 
Q 2894 3584 3203 3211 
Q 3513 2838 3513 2113 
z
" id="DejaVuSans-6e" transform="scale(0.015625)"/>
      <path d="M 2631 2963 
Q 2534 3019 2420 3045 
Q 2306 3072 2169 3072 
Q 1681 3072 1420 2755 
Q 1159 2438 1159 1844 
L 1159 0 
L 581 0 
L 581 3500 
L 1159 3500 
L 1159 2956 
Q 1341 3275 1631 3429 
Q 1922 3584 2338 3584 
Q 2397 3584 2469 3576 
Q 2541 3569 2628 3553 
L 2631 2963 
z
" id="DejaVuSans-72" transform="scale(0.015625)"/>
      <path d="M 3122 3366 
L 3122 2828 
Q 2878 2963 2633 3030 
Q 2388 3097 2138 3097 
Q 1578 3097 1268 2742 
Q 959 2388 959 1747 
Q 959 1106 1268 751 
Q 1578 397 2138 397 
Q 2388 397 2633 464 
Q 2878 531 3122 666 
L 3122 134 
Q 2881 22 2623 -34 
Q 2366 -91 2075 -91 
Q 1284 -91 818 406 
Q 353 903 353 1747 
Q 353 2603 823 3093 
Q 1294 3584 2113 3584 
Q 2378 3584 2631 3529 
Q 2884 3475 3122 3366 
z
" id="DejaVuSans-63" transform="scale(0.015625)"/>
      <path d="M 2906 2969 
L 2906 4863 
L 3481 4863 
L 3481 0 
L 2906 0 
L 2906 525 
Q 2725 213 2448 61 
Q 2172 -91 1784 -91 
Q 1150 -91 751 415 
Q 353 922 353 1747 
Q 353 2572 751 3078 
Q 1150 3584 1784 3584 
Q 2172 3584 2448 3432 
Q 2725 3281 2906 2969 
z
M 947 1747 
Q 947 1113 1208 752 
Q 1469 391 1925 391 
Q 2381 391 2643 752 
Q 2906 1113 2906 1747 
Q 2906 2381 2643 2742 
Q 2381 3103 1925 3103 
Q 1469 3103 1208 2742 
Q 947 2381 947 1747 
z
" id="DejaVuSans-64" transform="scale(0.015625)"/>
     </defs>
     <use xlink:href="#DejaVuSans-53"/>
     <use x="63.476562" xlink:href="#DejaVuSans-61"/>
     <use x="124.755859" xlink:href="#DejaVuSans-6d"/>
     <use x="222.167969" xlink:href="#DejaVuSans-70"/>
     <use x="285.644531" xlink:href="#DejaVuSans-6c"/>
     <use x="313.427734" xlink:href="#DejaVuSans-65"/>
     <use x="374.951172" xlink:href="#DejaVuSans-20"/>
     <use x="406.738281" xlink:href="#DejaVuSans-23"/>
     <use x="490.527344" xlink:href="#DejaVuSans-31"/>
     <use x="554.150391" xlink:href="#DejaVuSans-20"/>
     <use x="585.9375" xlink:href="#DejaVuSans-2d"/>
     <use x="622.021484" xlink:href="#DejaVuSans-20"/>
     <use x="653.808594" xlink:href="#DejaVuSans-31"/>
     <use x="717.431641" xlink:href="#DejaVuSans-30"/>
     <use x="781.054688" xlink:href="#DejaVuSans-25"/>
     <use x="876.074219" xlink:href="#DejaVuSans-20"/>
     <use x="907.861328" xlink:href="#DejaVuSans-6f"/>
     <use x="969.042969" xlink:href="#DejaVuSans-66"/>
     <use x="1004.248047" xlink:href="#DejaVuSans-20"/>
     <use x="1036.035156" xlink:href="#DejaVuSans-31"/>
     <use x="1099.658203" xlink:href="#DejaVuSans-2e"/>
     <use x="1131.445312" xlink:href="#DejaVuSans-36"/>
     <use x="1195.068359" xlink:href="#DejaVuSans-20"/>
     <use x="1226.855469" xlink:href="#DejaVuSans-6d"/>
     <use x="1324.267578" xlink:href="#DejaVuSans-69"/>
     <use x="1352.050781" xlink:href="#DejaVuSans-6c"/>
     <use x="1379.833984" xlink:href="#DejaVuSans-6c"/>
     <use x="1407.617188" xlink:href="#DejaVuSans-69"/>
     <use x="1435.400391" xlink:href="#DejaVuSans-6f"/>
     <use x="1496.582031" xlink:href="#DejaVuSans-6e"/>
     <use x="1559.960938" xlink:href="#DejaVuSans-20"/>
     <use x="1591.748047" xlink:href="#DejaVuSans-72"/>
     <use x="1630.611328" xlink:href="#DejaVuSans-65"/>
     <use x="1692.134766" xlink:href="#DejaVuSans-63"/>
     <use x="1747.115234" xlink:href="#DejaVuSans-6f"/>
     <use x="1808.296875" xlink:href="#DejaVuSans-72"/>
     <use x="1847.660156" xlink:href="#DejaVuSans-64"/>
     <use x="1911.136719" xlink:href="#DejaVuSans-73"/>
    </g>
   </g>
   <g id="legend_1">
    <g id="patch_7">
     <path d="M 84.21469 113.184125 
L 161.696252 113.184125 
Q 162.896252 113.184125 162.896252 111.984125 
L 162.896252 50.936 
Q 162.896252 49.736 161.696252 49.736 
L 84.21469 49.736 
Q 83.01469 49.736 83.01469 50.936 
L 83.01469 111.984125 
Q 83.01469 113.184125 84.21469 113.184125 
z
" style="fill:#ffffff;opacity:0.8;stroke:#cccccc;stroke-linejoin:miter;stroke-width:0.8;"/>
    </g>
    <g id="line2d_22">
     <path d="M 85.41469 54.595063 
L 97.41469 54.595063 
" style="fill:none;stroke:#1f77b4;stroke-linecap:square;stroke-width:1.2;"/>
    </g>
    <g id="line2d_23"/>
    <g id="text_16">
     <!-- Cape Canaveral, FL -->
     <g transform="translate(102.21469 56.695063)scale(0.06 -0.06)">
      <defs>
       <path d="M 4122 4306 
L 4122 3641 
Q 3803 3938 3442 4084 
Q 3081 4231 2675 4231 
Q 1875 4231 1450 3742 
Q 1025 3253 1025 2328 
Q 1025 1406 1450 917 
Q 1875 428 2675 428 
Q 3081 428 3442 575 
Q 3803 722 4122 1019 
L 4122 359 
Q 3791 134 3420 21 
Q 3050 -91 2638 -91 
Q 1578 -91 968 557 
Q 359 1206 359 2328 
Q 359 3453 968 4101 
Q 1578 4750 2638 4750 
Q 3056 4750 3426 4639 
Q 3797 4528 4122 4306 
z
" id="DejaVuSans-43" transform="scale(0.015625)"/>
       <path d="M 191 3500 
L 800 3500 
L 1894 563 
L 2988 3500 
L 3597 3500 
L 2284 0 
L 1503 0 
L 191 3500 
z
" id="DejaVuSans-76" transform="scale(0.015625)"/>
      </defs>
      <use xlink:href="#DejaVuSans-43"/>
      <use x="69.824219" xlink:href="#DejaVuSans-61"/>
      <use x="131.103516" xlink:href="#DejaVuSans-70"/>
      <use x="194.580078" xlink:href="#DejaVuSans-65"/>
      <use x="256.103516" xlink:href="#DejaVuSans-20"/>
      <use x="287.890625" xlink:href="#DejaVuSans-43"/>
      <use x="357.714844" xlink:href="#DejaVuSans-61"/>
      <use x="418.994141" xlink:href="#DejaVuSans-6e"/>
      <use x="482.373047" xlink:href="#DejaVuSans-61"/>
      <use x="543.652344" xlink:href="#DejaVuSans-76"/>
      <use x="602.832031" xlink:href="#DejaVuSans-65"/>
      <use x="664.355469" xlink:href="#DejaVuSans-72"/>
      <use x="705.46875" xlink:href="#DejaVuSans-61"/>
      <use x="766.748047" xlink:href="#DejaVuSans-6c"/>
      <use x="794.53125" xlink:href="#DejaVuSans-2c"/>
      <use x="826.318359" xlink:href="#DejaVuSans-20"/>
      <use x="858.105469" xlink:href="#DejaVuSans-46"/>
      <use x="915.625" xlink:href="#DejaVuSans-4c"/>
     </g>
    </g>
    <g id="line2d_24">
     <path d="M 85.41469 63.401937 
L 97.41469 63.401937 
" style="fill:none;stroke:#ff7f0e;stroke-linecap:square;stroke-width:1.2;"/>
    </g>
    <g id="line2d_25"/>
    <g id="text_17">
     <!-- Daytona, FL -->
     <g transform="translate(102.21469 65.501937)scale(0.06 -0.06)">
      <defs>
       <path d="M 1259 4147 
L 1259 519 
L 2022 519 
Q 2988 519 3436 956 
Q 3884 1394 3884 2338 
Q 3884 3275 3436 3711 
Q 2988 4147 2022 4147 
L 1259 4147 
z
M 628 4666 
L 1925 4666 
Q 3281 4666 3915 4102 
Q 4550 3538 4550 2338 
Q 4550 1131 3912 565 
Q 3275 0 1925 0 
L 628 0 
L 628 4666 
z
" id="DejaVuSans-44" transform="scale(0.015625)"/>
       <path d="M 2059 -325 
Q 1816 -950 1584 -1140 
Q 1353 -1331 966 -1331 
L 506 -1331 
L 506 -850 
L 844 -850 
Q 1081 -850 1212 -737 
Q 1344 -625 1503 -206 
L 1606 56 
L 191 3500 
L 800 3500 
L 1894 763 
L 2988 3500 
L 3597 3500 
L 2059 -325 
z
" id="DejaVuSans-79" transform="scale(0.015625)"/>
      </defs>
      <use xlink:href="#DejaVuSans-44"/>
      <use x="77.001953" xlink:href="#DejaVuSans-61"/>
      <use x="138.28125" xlink:href="#DejaVuSans-79"/>
      <use x="197.460938" xlink:href="#DejaVuSans-74"/>
      <use x="236.669922" xlink:href="#DejaVuSans-6f"/>
      <use x="297.851562" xlink:href="#DejaVuSans-6e"/>
      <use x="361.230469" xlink:href="#DejaVuSans-61"/>
      <use x="422.509766" xlink:href="#DejaVuSans-2c"/>
      <use x="454.296875" xlink:href="#DejaVuSans-20"/>
      <use x="486.083984" xlink:href="#DejaVuSans-46"/>
      <use x="543.603516" xlink:href="#DejaVuSans-4c"/>
     </g>
    </g>
    <g id="line2d_26">
     <path d="M 85.41469 72.208813 
L 97.41469 72.208813 
" style="fill:none;stroke:#2ca02c;stroke-linecap:square;stroke-width:1.2;"/>
    </g>
    <g id="line2d_27"/>
    <g id="text_18">
     <!-- Jacksonville, FL -->
     <g transform="translate(102.21469 74.308813)scale(0.06 -0.06)">
      <defs>
       <path d="M 628 4666 
L 1259 4666 
L 1259 325 
Q 1259 -519 939 -900 
Q 619 -1281 -91 -1281 
L -331 -1281 
L -331 -750 
L -134 -750 
Q 284 -750 456 -515 
Q 628 -281 628 325 
L 628 4666 
z
" id="DejaVuSans-4a" transform="scale(0.015625)"/>
       <path d="M 581 4863 
L 1159 4863 
L 1159 1991 
L 2875 3500 
L 3609 3500 
L 1753 1863 
L 3688 0 
L 2938 0 
L 1159 1709 
L 1159 0 
L 581 0 
L 581 4863 
z
" id="DejaVuSans-6b" transform="scale(0.015625)"/>
      </defs>
      <use xlink:href="#DejaVuSans-4a"/>
      <use x="29.492188" xlink:href="#DejaVuSans-61"/>
      <use x="90.771484" xlink:href="#DejaVuSans-63"/>
      <use x="145.751953" xlink:href="#DejaVuSans-6b"/>
      <use x="203.662109" xlink:href="#DejaVuSans-73"/>
      <use x="255.761719" xlink:href="#DejaVuSans-6f"/>
      <use x="316.943359" xlink:href="#DejaVuSans-6e"/>
      <use x="380.322266" xlink:href="#DejaVuSans-76"/>
      <use x="439.501953" xlink:href="#DejaVuSans-69"/>
      <use x="467.285156" xlink:href="#DejaVuSans-6c"/>
      <use x="495.068359" xlink:href="#DejaVuSans-6c"/>
      <use x="522.851562" xlink:href="#DejaVuSans-65"/>
      <use x="584.375" xlink:href="#DejaVuSans-2c"/>
      <use x="616.162109" xlink:href="#DejaVuSans-20"/>
      <use x="647.949219" xlink:href="#DejaVuSans-46"/>
      <use x="705.46875" xlink:href="#DejaVuSans-4c"/>
     </g>
    </g>
    <g id="line2d_28">
     <path d="M 85.41469 81.015688 
L 97.41469 81.015688 
" style="fill:none;stroke:#d62728;stroke-linecap:square;stroke-width:1.2;"/>
    </g>
    <g id="line2d_29"/>
    <g id="text_19">
     <!-- Panama City, FL -->
     <g transform="translate(102.21469 83.115688)scale(0.06 -0.06)">
      <defs>
       <path d="M 1259 4147 
L 1259 2394 
L 2053 2394 
Q 2494 2394 2734 2622 
Q 2975 2850 2975 3272 
Q 2975 3691 2734 3919 
Q 2494 4147 2053 4147 
L 1259 4147 
z
M 628 4666 
L 2053 4666 
Q 2838 4666 3239 4311 
Q 3641 3956 3641 3272 
Q 3641 2581 3239 2228 
Q 2838 1875 2053 1875 
L 1259 1875 
L 1259 0 
L 628 0 
L 628 4666 
z
" id="DejaVuSans-50" transform="scale(0.015625)"/>
      </defs>
      <use xlink:href="#DejaVuSans-50"/>
      <use x="55.802734" xlink:href="#DejaVuSans-61"/>
      <use x="117.082031" xlink:href="#DejaVuSans-6e"/>
      <use x="180.460938" xlink:href="#DejaVuSans-61"/>
      <use x="241.740234" xlink:href="#DejaVuSans-6d"/>
      <use x="339.152344" xlink:href="#DejaVuSans-61"/>
      <use x="400.431641" xlink:href="#DejaVuSans-20"/>
      <use x="432.21875" xlink:href="#DejaVuSans-43"/>
      <use x="502.042969" xlink:href="#DejaVuSans-69"/>
      <use x="529.826172" xlink:href="#DejaVuSans-74"/>
      <use x="569.035156" xlink:href="#DejaVuSans-79"/>
      <use x="628.214844" xlink:href="#DejaVuSans-2c"/>
      <use x="660.001953" xlink:href="#DejaVuSans-20"/>
      <use x="691.789062" xlink:href="#DejaVuSans-46"/>
      <use x="749.308594" xlink:href="#DejaVuSans-4c"/>
     </g>
    </g>
    <g id="line2d_30">
     <path d="M 85.41469 89.822563 
L 97.41469 89.822563 
" style="fill:none;stroke:#9467bd;stroke-linecap:square;stroke-width:1.2;"/>
    </g>
    <g id="line2d_31"/>
    <g id="text_20">
     <!-- Pensacola, FL -->
     <g transform="translate(102.21469 91.922563)scale(0.06 -0.06)">
      <use xlink:href="#DejaVuSans-50"/>
      <use x="56.677734" xlink:href="#DejaVuSans-65"/>
      <use x="118.201172" xlink:href="#DejaVuSans-6e"/>
      <use x="181.580078" xlink:href="#DejaVuSans-73"/>
      <use x="233.679688" xlink:href="#DejaVuSans-61"/>
      <use x="294.958984" xlink:href="#DejaVuSans-63"/>
      <use x="349.939453" xlink:href="#DejaVuSans-6f"/>
      <use x="411.121094" xlink:href="#DejaVuSans-6c"/>
      <use x="438.904297" xlink:href="#DejaVuSans-61"/>
      <use x="500.183594" xlink:href="#DejaVuSans-2c"/>
      <use x="531.970703" xlink:href="#DejaVuSans-20"/>
      <use x="563.757812" xlink:href="#DejaVuSans-46"/>
      <use x="621.277344" xlink:href="#DejaVuSans-4c"/>
     </g>
    </g>
    <g id="line2d_32">
     <path d="M 85.41469 98.629438 
L 97.41469 98.629438 
" style="fill:none;stroke:#8c564b;stroke-linecap:square;stroke-width:1.2;"/>
    </g>
    <g id="line2d_33"/>
    <g id="text_21">
     <!-- Tallahassee, FL -->
     <g transform="translate(102.21469 100.729438)scale(0.06 -0.06)">
      <defs>
       <path d="M 3513 2113 
L 3513 0 
L 2938 0 
L 2938 2094 
Q 2938 2591 2744 2837 
Q 2550 3084 2163 3084 
Q 1697 3084 1428 2787 
Q 1159 2491 1159 1978 
L 1159 0 
L 581 0 
L 581 4863 
L 1159 4863 
L 1159 2956 
Q 1366 3272 1645 3428 
Q 1925 3584 2291 3584 
Q 2894 3584 3203 3211 
Q 3513 2838 3513 2113 
z
" id="DejaVuSans-68" transform="scale(0.015625)"/>
      </defs>
      <use xlink:href="#DejaVuSans-54"/>
      <use x="44.583984" xlink:href="#DejaVuSans-61"/>
      <use x="105.863281" xlink:href="#DejaVuSans-6c"/>
      <use x="133.646484" xlink:href="#DejaVuSans-6c"/>
      <use x="161.429688" xlink:href="#DejaVuSans-61"/>
      <use x="222.708984" xlink:href="#DejaVuSans-68"/>
      <use x="286.087891" xlink:href="#DejaVuSans-61"/>
      <use x="347.367188" xlink:href="#DejaVuSans-73"/>
      <use x="399.466797" xlink:href="#DejaVuSans-73"/>
      <use x="451.566406" xlink:href="#DejaVuSans-65"/>
      <use x="513.089844" xlink:href="#DejaVuSans-65"/>
      <use x="574.613281" xlink:href="#DejaVuSans-2c"/>
      <use x="606.400391" xlink:href="#DejaVuSans-20"/>
      <use x="638.1875" xlink:href="#DejaVuSans-46"/>
      <use x="695.707031" xlink:href="#DejaVuSans-4c"/>
     </g>
    </g>
    <g id="line2d_34">
     <path d="M 85.41469 107.436313 
L 97.41469 107.436313 
" style="fill:none;stroke:#e377c2;stroke-linecap:square;stroke-width:1.2;"/>
    </g>
    <g id="line2d_35"/>
    <g id="text_22">
     <!-- Tampa, FL -->
     <g transform="translate(102.21469 109.536313)scale(0.06 -0.06)">
      <use xlink:href="#DejaVuSans-54"/>
      <use x="44.583984" xlink:href="#DejaVuSans-61"/>
      <use x="105.863281" xlink:href="#DejaVuSans-6d"/>
      <use x="203.275391" xlink:href="#DejaVuSans-70"/>
      <use x="266.751953" xlink:href="#DejaVuSans-61"/>
      <use x="328.03125" xlink:href="#DejaVuSans-2c"/>
      <use x="359.818359" xlink:href="#DejaVuSans-20"/>
      <use x="391.605469" xlink:href="#DejaVuSans-46"/>
      <use x="449.125" xlink:href="#DejaVuSans-4c"/>
     </g>
    </g>
   </g>
  </g>
  <g id="text_23">
   <!-- Previous 72 hours, average wind by site -->
   <g transform="translate(100.6542 14.5134)scale(0.1152 -0.1152)">
    <defs>
     <path d="M 544 1381 
L 544 3500 
L 1119 3500 
L 1119 1403 
Q 1119 906 1312 657 
Q 1506 409 1894 409 
Q 2359 409 2629 706 
Q 2900 1003 2900 1516 
L 2900 3500 
L 3475 3500 
L 3475 0 
L 2900 0 
L 2900 538 
Q 2691 219 2414 64 
Q 2138 -91 1772 -91 
Q 1169 -91 856 284 
Q 544 659 544 1381 
z
M 1991 3584 
L 1991 3584 
z
" id="DejaVuSans-75" transform="scale(0.015625)"/>
     <path d="M 525 4666 
L 3525 4666 
L 3525 4397 
L 1831 0 
L 1172 0 
L 2766 4134 
L 525 4134 
L 525 4666 
z
" id="DejaVuSans-37" transform="scale(0.015625)"/>
     <path d="M 2906 1791 
Q 2906 2416 2648 2759 
Q 2391 3103 1925 3103 
Q 1463 3103 1205 2759 
Q 947 2416 947 1791 
Q 947 1169 1205 825 
Q 1463 481 1925 481 
Q 2391 481 2648 825 
Q 2906 1169 2906 1791 
z
M 3481 434 
Q 3481 -459 3084 -895 
Q 2688 -1331 1869 -1331 
Q 1566 -1331 1297 -1286 
Q 1028 -1241 775 -1147 
L 775 -588 
Q 1028 -725 1275 -790 
Q 1522 -856 1778 -856 
Q 2344 -856 2625 -561 
Q 2906 -266 2906 331 
L 2906 616 
Q 2728 306 2450 153 
Q 2172 0 1784 0 
Q 1141 0 747 490 
Q 353 981 353 1791 
Q 353 2603 747 3093 
Q 1141 3584 1784 3584 
Q 2172 3584 2450 3431 
Q 2728 3278 2906 2969 
L 2906 3500 
L 3481 3500 
L 3481 434 
z
" id="DejaVuSans-67" transform="scale(0.015625)"/>
     <path d="M 269 3500 
L 844 3500 
L 1563 769 
L 2278 3500 
L 2956 3500 
L 3675 769 
L 4391 3500 
L 4966 3500 
L 4050 0 
L 3372 0 
L 2619 2869 
L 1863 0 
L 1184 0 
L 269 3500 
z
" id="DejaVuSans-77" transform="scale(0.015625)"/>
     <path d="M 3116 1747 
Q 3116 2381 2855 2742 
Q 2594 3103 2138 3103 
Q 1681 3103 1420 2742 
Q 1159 2381 1159 1747 
Q 1159 1113 1420 752 
Q 1681 391 2138 391 
Q 2594 391 2855 752 
Q 3116 1113 3116 1747 
z
M 1159 2969 
Q 1341 3281 1617 3432 
Q 1894 3584 2278 3584 
Q 2916 3584 3314 3078 
Q 3713 2572 3713 1747 
Q 3713 922 3314 415 
Q 2916 -91 2278 -91 
Q 1894 -91 1617 61 
Q 1341 213 1159 525 
L 1159 0 
L 581 0 
L 581 4863 
L 1159 4863 
L 1159 2969 
z
" id="DejaVuSans-62" transform="scale(0.015625)"/>
    </defs>
    <use xlink:href="#DejaVuSans-50"/>
    <use x="58.552734" xlink:href="#DejaVuSans-72"/>
    <use x="97.416016" xlink:href="#DejaVuSans-65"/>
    <use x="158.939453" xlink:href="#DejaVuSans-76"/>
    <use x="218.119141" xlink:href="#DejaVuSans-69"/>
    <use x="245.902344" xlink:href="#DejaVuSans-6f"/>
    <use x="307.083984" xlink:href="#DejaVuSans-75"/>
    <use x="370.462891" xlink:href="#DejaVuSans-73"/>
    <use x="422.5625" xlink:href="#DejaVuSans-20"/>
    <use x="454.349609" xlink:href="#DejaVuSans-37"/>
    <use x="517.972656" xlink:href="#DejaVuSans-32"/>
    <use x="581.595703" xlink:href="#DejaVuSans-20"/>
    <use x="613.382812" xlink:href="#DejaVuSans-68"/>
    <use x="676.761719" xlink:href="#DejaVuSans-6f"/>
    <use x="737.943359" xlink:href="#DejaVuSans-75"/>
    <use x="801.322266" xlink:href="#DejaVuSans-72"/>
    <use x="842.435547" xlink:href="#DejaVuSans-73"/>
    <use x="894.535156" xlink:href="#DejaVuSans-2c"/>
    <use x="926.322266" xlink:href="#DejaVuSans-20"/>
    <use x="958.109375" xlink:href="#DejaVuSans-61"/>
    <use x="1019.388672" xlink:href="#DejaVuSans-76"/>
    <use x="1078.568359" xlink:href="#DejaVuSans-65"/>
    <use x="1140.091797" xlink:href="#DejaVuSans-72"/>
    <use x="1181.205078" xlink:href="#DejaVuSans-61"/>
    <use x="1242.484375" xlink:href="#DejaVuSans-67"/>
    <use x="1305.960938" xlink:href="#DejaVuSans-65"/>
    <use x="1367.484375" xlink:href="#DejaVuSans-20"/>
    <use x="1399.271484" xlink:href="#DejaVuSans-77"/>
    <use x="1481.058594" xlink:href="#DejaVuSans-69"/>
    <use x="1508.841797" xlink:href="#DejaVuSans-6e"/>
    <use x="1572.220703" xlink:href="#DejaVuSans-64"/>
    <use x="1635.697266" xlink:href="#DejaVuSans-20"/>
    <use x="1667.484375" xlink:href="#DejaVuSans-62"/>
    <use x="1730.960938" xlink:href="#DejaVuSans-79"/>
    <use x="1790.140625" xlink:href="#DejaVuSans-20"/>
    <use x="1821.927734" xlink:href="#DejaVuSans-73"/>
    <use x="1874.027344" xlink:href="#DejaVuSans-69"/>
    <use x="1901.810547" xlink:href="#DejaVuSans-74"/>
    <use x="1941.019531" xlink:href="#DejaVuSans-65"/>
   </g>
  </g>
 </g>
 <defs>
  <clipPath id="pcf404559f6">
   <rect height="199.596" width="341.61731" x="80.01469" y="46.736"/>
  </clipPath>
 </defs>
</svg>
