<?xml version="1.0" encoding="utf-8" standalone="no"?>
<!DOCTYPE svg PUBLIC "-//W3C//DTD SVG 1.1//EN"
  "http://www.w3.org/Graphics/SVG/1.1/DTD/svg11.dtd">
<svg height="288pt" version="1.1" viewBox="0 0 432 288" width="432pt" xmlns="http://www.w3.org/2000/svg" xmlns:xlink="http://www.w3.org/1999/xlink">
 <metadata>
  <rdf:RDF xmlns:cc="http://creativecommons.org/ns#" xmlns:dc="http://purl.org/dc/elements/1.1/" xmlns:rdf="http://www.w3.org/1999/02/22-rdf-syntax-ns#">
   <cc:Work>
    <dc:type rdf:resource="http://purl.org/dc/dcmitype/StillImage"/>
    <dc:date>2021-05-12T04:40:03.387716</dc:date>
    <dc:format>image/svg+xml</dc:format>
    <dc:creator>
     <cc:Agent>
      <dc:title>Matplotlib v3.4.1, https://matplotlib.org/</dc:title>
     </cc:Agent>
    </dc:creator>
   </cc:Work>
  </rdf:RDF>
 </metadata>
 <defs>
  <style type="text/css">*{stroke-linecap:butt;stroke-linejoin:round;}</style>
 </defs>
 <g id="figure_1">
  <g id="patch_1">
   <path d="M 0 288 
L 432 288 
L 432 0 
L 0 0 
z
" style="fill:#ffffff;"/>
  </g>
  <g id="axes_1">
   <g id="patch_2">
    <path d="M 80.408755 246.332 
L 421.632 246.332 
L 421.632 46.736 
L 80.408755 46.736 
z
" style="fill:#ffffff;"/>
   </g>
   <g id="matplotlib.axis_1">
    <g id="xtick_1">
     <g id="line2d_1">
      <defs>
       <path d="M 0 0 
L 0 4.8 
" id="m54b4e7cee6" style="stroke:#000000;"/>
      </defs>
      <g>
       <use style="stroke:#000000;" x="85.526844" xlink:href="#m54b4e7cee6" y="246.332"/>
      </g>
     </g>
     <g id="text_1">
      <!-- (2021-04-10 02:00:00, Tampa, FL) -->
      <g transform="translate(10.353531 261.318625)scale(0.088 -0.088)">
       <defs>
        <path d="M 1984 4856 
Q 1566 4138 1362 3434 
Q 1159 2731 1159 2009 
Q 1159 1288 1364 580 
Q 1569 -128 1984 -844 
L 1484 -844 
Q 1016 -109 783 600 
Q 550 1309 550 2009 
Q 550 2706 781 3412 
Q 1013 4119 1484 4856 
L 1984 4856 
z
" id="DejaVuSans-28" transform="scale(0.015625)"/>
        <path d="M 1228 531 
L 3431 531 
L 3431 0 
L 469 0 
L 469 531 
Q 828 903 1448 1529 
Q 2069 2156 2228 2338 
Q 2531 2678 2651 2914 
Q 2772 3150 2772 3378 
Q 2772 3750 2511 3984 
Q 2250 4219 1831 4219 
Q 1534 4219 1204 4116 
Q 875 4013 500 3803 
L 500 4441 
Q 881 4594 1212 4672 
Q 1544 4750 1819 4750 
Q 2544 4750 2975 4387 
Q 3406 4025 3406 3419 
Q 3406 3131 3298 2873 
Q 3191 2616 2906 2266 
Q 2828 2175 2409 1742 
Q 1991 1309 1228 531 
z
" id="DejaVuSans-32" transform="scale(0.015625)"/>
        <path d="M 2034 4250 
Q 1547 4250 1301 3770 
Q 1056 3291 1056 2328 
Q 1056 1369 1301 889 
Q 1547 409 2034 409 
Q 2525 409 2770 889 
Q 3016 1369 3016 2328 
Q 3016 3291 2770 3770 
Q 2525 4250 2034 4250 
z
M 2034 4750 
Q 2819 4750 3233 4129 
Q 3647 3509 3647 2328 
Q 3647 1150 3233 529 
Q 2819 -91 2034 -91 
Q 1250 -91 836 529 
Q 422 1150 422 2328 
Q 422 3509 836 4129 
Q 1250 4750 2034 4750 
z
" id="DejaVuSans-30" transform="scale(0.015625)"/>
        <path d="M 794 531 
L 1825 531 
L 1825 4091 
L 703 3866 
L 703 4441 
L 1819 4666 
L 2450 4666 
L 2450 531 
L 3481 531 
L 3481 0 
L 794 0 
L 794 531 
z
" id="DejaVuSans-31" transform="scale(0.015625)"/>
        <path d="M 313 2009 
L 1997 2009 
L 1997 1497 
L 313 1497 
L 313 2009 
z
" id="DejaVuSans-2d" transform="scale(0.015625)"/>
        <path d="M 2419 4116 
L 825 1625 
L 2419 1625 
L 2419 4116 
z
M 2253 4666 
L 3047 4666 
L 3047 1625 
L 3713 1625 
L 3713 1100 
L 3047 1100 
L 3047 0 
L 2419 0 
L 2419 1100 
L 313 1100 
L 313 1709 
L 2253 4666 
z
" id="DejaVuSans-34" transform="scale(0.015625)"/>
        <path id="DejaVuSans-20" transform="scale(0.015625)"/>
        <path d="M 750 794 
L 1409 794 
L 1409 0 
L 750 0 
L 750 794 
z
M 750 3309 
L 1409 3309 
L 1409 2516 
L 750 2516 
L 750 3309 
z
" id="DejaVuSans-3a" transform="scale(0.015625)"/>
        <path d="M 750 794 
L 1409 794 
L 1409 256 
L 897 -744 
L 494 -744 
L 750 256 
L 750 794 
z
" id="DejaVuSans-2c" transform="scale(0.015625)"/>
        <path d="M -19 4666 
L 3928 4666 
L 3928 4134 
L 2272 4134 
L 2272 0 
L 1638 0 
L 1638 4134 
L -19 4134 
L -19 4666 
z
" id="DejaVuSans-54" transform="scale(0.015625)"/>
        <path d="M 2194 1759 
Q 1497 1759 1228 1600 
Q 959 1441 959 1056 
Q 959 750 1161 570 
Q 1363 391 1709 391 
Q 2188 391 2477 730 
Q 2766 1069 2766 1631 
L 2766 1759 
L 2194 1759 
z
M 3341 1997 
L 3341 0 
L 2766 0 
L 2766 531 
Q 2569 213 2275 61 
Q 1981 -91 1556 -91 
Q 1019 -91 701 211 
Q 384 513 384 1019 
Q 384 1609 779 1909 
Q 1175 2209 1959 2209 
L 2766 2209 
L 2766 2266 
Q 2766 2663 2505 2880 
Q 2244 3097 1772 3097 
Q 1472 3097 1187 3025 
Q 903 2953 641 2809 
L 641 3341 
Q 956 3463 1253 3523 
Q 1550 3584 1831 3584 
Q 2591 3584 2966 3190 
Q 3341 2797 3341 1997 
z
" id="DejaVuSans-61" transform="scale(0.015625)"/>
        <path d="M 3328 2828 
Q 3544 3216 3844 3400 
Q 4144 3584 4550 3584 
Q 5097 3584 5394 3201 
Q 5691 2819 5691 2113 
L 5691 0 
L 5113 0 
L 5113 2094 
Q 5113 2597 4934 2840 
Q 4756 3084 4391 3084 
Q 3944 3084 3684 2787 
Q 3425 2491 3425 1978 
L 3425 0 
L 2847 0 
L 2847 2094 
Q 2847 2600 2669 2842 
Q 2491 3084 2119 3084 
Q 1678 3084 1418 2786 
Q 1159 2488 1159 1978 
L 1159 0 
L 581 0 
L 581 3500 
L 1159 3500 
L 1159 2956 
Q 1356 3278 1631 3431 
Q 1906 3584 2284 3584 
Q 2666 3584 2933 3390 
Q 3200 3197 3328 2828 
z
" id="DejaVuSans-6d" transform="scale(0.015625)"/>
        <path d="M 1159 525 
L 1159 -1331 
L 581 -1331 
L 581 3500 
L 1159 3500 
L 1159 2969 
Q 1341 3281 1617 3432 
Q 1894 3584 2278 3584 
Q 2916 3584 3314 3078 
Q 3713 2572 3713 1747 
Q 3713 922 3314 415 
Q 2916 -91 2278 -91 
Q 1894 -91 1617 61 
Q 1341 213 1159 525 
z
M 3116 1747 
Q 3116 2381 2855 2742 
Q 2594 3103 2138 3103 
Q 1681 3103 1420 2742 
Q 1159 2381 1159 1747 
Q 1159 1113 1420 752 
Q 1681 391 2138 391 
Q 2594 391 2855 752 
Q 3116 1113 3116 1747 
z
" id="DejaVuSans-70" transform="scale(0.015625)"/>
        <path d="M 628 4666 
L 3309 4666 
L 3309 4134 
L 1259 4134 
L 1259 2759 
L 3109 2759 
L 3109 2228 
L 1259 2228 
L 1259 0 
L 628 0 
L 628 4666 
z
" id="DejaVuSans-46" transform="scale(0.015625)"/>
        <path d="M 628 4666 
L 1259 4666 
L 1259 531 
L 3531 531 
L 3531 0 
L 628 0 
L 628 4666 
z
" id="DejaVuSans-4c" transform="scale(0.015625)"/>
        <path d="M 513 4856 
L 1013 4856 
Q 1481 4119 1714 3412 
Q 1947 2706 1947 2009 
Q 1947 1309 1714 600 
Q 1481 -109 1013 -844 
L 513 -844 
Q 928 -128 1133 580 
Q 1338 1288 1338 2009 
Q 1338 2731 1133 3434 
Q 928 4138 513 4856 
z
" id="DejaVuSans-29" transform="scale(0.015625)"/>
       </defs>
       <use xlink:href="#DejaVuSans-28"/>
       <use x="39.013672" xlink:href="#DejaVuSans-32"/>
       <use x="102.636719" xlink:href="#DejaVuSans-30"/>
       <use x="166.259766" xlink:href="#DejaVuSans-32"/>
       <use x="229.882812" xlink:href="#DejaVuSans-31"/>
       <use x="293.505859" xlink:href="#DejaVuSans-2d"/>
       <use x="329.589844" xlink:href="#DejaVuSans-30"/>
       <use x="393.212891" xlink:href="#DejaVuSans-34"/>
       <use x="456.835938" xlink:href="#DejaVuSans-2d"/>
       <use x="492.919922" xlink:href="#DejaVuSans-31"/>
       <use x="556.542969" xlink:href="#DejaVuSans-30"/>
       <use x="620.166016" xlink:href="#DejaVuSans-20"/>
       <use x="651.953125" xlink:href="#DejaVuSans-30"/>
       <use x="715.576172" xlink:href="#DejaVuSans-32"/>
       <use x="779.199219" xlink:href="#DejaVuSans-3a"/>
       <use x="812.890625" xlink:href="#DejaVuSans-30"/>
       <use x="876.513672" xlink:href="#DejaVuSans-30"/>
       <use x="940.136719" xlink:href="#DejaVuSans-3a"/>
       <use x="973.828125" xlink:href="#DejaVuSans-30"/>
       <use x="1037.451172" xlink:href="#DejaVuSans-30"/>
       <use x="1101.074219" xlink:href="#DejaVuSans-2c"/>
       <use x="1132.861328" xlink:href="#DejaVuSans-20"/>
       <use x="1164.648438" xlink:href="#DejaVuSans-54"/>
       <use x="1209.232422" xlink:href="#DejaVuSans-61"/>
       <use x="1270.511719" xlink:href="#DejaVuSans-6d"/>
       <use x="1367.923828" xlink:href="#DejaVuSans-70"/>
       <use x="1431.400391" xlink:href="#DejaVuSans-61"/>
       <use x="1492.679688" xlink:href="#DejaVuSans-2c"/>
       <use x="1524.466797" xlink:href="#DejaVuSans-20"/>
       <use x="1556.253906" xlink:href="#DejaVuSans-46"/>
       <use x="1613.773438" xlink:href="#DejaVuSans-4c"/>
       <use x="1669.486328" xlink:href="#DejaVuSans-29"/>
      </g>
     </g>
    </g>
    <g id="xtick_2">
     <g id="line2d_2">
      <g>
       <use style="stroke:#000000;" x="95.918902" xlink:href="#m54b4e7cee6" y="246.332"/>
      </g>
     </g>
     <g id="text_2">
      <!-- (2021-05-01 03:00:00, Tampa, FL) -->
      <g transform="translate(20.74559 261.318625)scale(0.088 -0.088)">
       <defs>
        <path d="M 691 4666 
L 3169 4666 
L 3169 4134 
L 1269 4134 
L 1269 2991 
Q 1406 3038 1543 3061 
Q 1681 3084 1819 3084 
Q 2600 3084 3056 2656 
Q 3513 2228 3513 1497 
Q 3513 744 3044 326 
Q 2575 -91 1722 -91 
Q 1428 -91 1123 -41 
Q 819 9 494 109 
L 494 744 
Q 775 591 1075 516 
Q 1375 441 1709 441 
Q 2250 441 2565 725 
Q 2881 1009 2881 1497 
Q 2881 1984 2565 2268 
Q 2250 2553 1709 2553 
Q 1456 2553 1204 2497 
Q 953 2441 691 2322 
L 691 4666 
z
" id="DejaVuSans-35" transform="scale(0.015625)"/>
        <path d="M 2597 2516 
Q 3050 2419 3304 2112 
Q 3559 1806 3559 1356 
Q 3559 666 3084 287 
Q 2609 -91 1734 -91 
Q 1441 -91 1130 -33 
Q 819 25 488 141 
L 488 750 
Q 750 597 1062 519 
Q 1375 441 1716 441 
Q 2309 441 2620 675 
Q 2931 909 2931 1356 
Q 2931 1769 2642 2001 
Q 2353 2234 1838 2234 
L 1294 2234 
L 1294 2753 
L 1863 2753 
Q 2328 2753 2575 2939 
Q 2822 3125 2822 3475 
Q 2822 3834 2567 4026 
Q 2313 4219 1838 4219 
Q 1578 4219 1281 4162 
Q 984 4106 628 3988 
L 628 4550 
Q 988 4650 1302 4700 
Q 1616 4750 1894 4750 
Q 2613 4750 3031 4423 
Q 3450 4097 3450 3541 
Q 3450 3153 3228 2886 
Q 3006 2619 2597 2516 
z
" id="DejaVuSans-33" transform="scale(0.015625)"/>
       </defs>
       <use xlink:href="#DejaVuSans-28"/>
       <use x="39.013672" xlink:href="#DejaVuSans-32"/>
       <use x="102.636719" xlink:href="#DejaVuSans-30"/>
       <use x="166.259766" xlink:href="#DejaVuSans-32"/>
       <use x="229.882812" xlink:href="#DejaVuSans-31"/>
       <use x="293.505859" xlink:href="#DejaVuSans-2d"/>
       <use x="329.589844" xlink:href="#DejaVuSans-30"/>
       <use x="393.212891" xlink:href="#DejaVuSans-35"/>
       <use x="456.835938" xlink:href="#DejaVuSans-2d"/>
       <use x="492.919922" xlink:href="#DejaVuSans-30"/>
       <use x="556.542969" xlink:href="#DejaVuSans-31"/>
       <use x="620.166016" xlink:href="#DejaVuSans-20"/>
       <use x="651.953125" xlink:href="#DejaVuSans-30"/>
       <use x="715.576172" xlink:href="#DejaVuSans-33"/>
       <use x="779.199219" xlink:href="#DejaVuSans-3a"/>
       <use x="812.890625" xlink:href="#DejaVuSans-30"/>
       <use x="876.513672" xlink:href="#DejaVuSans-30"/>
       <use x="940.136719" xlink:href="#DejaVuSans-3a"/>
       <use x="973.828125" xlink:href="#DejaVuSans-30"/>
       <use x="1037.451172" xlink:href="#DejaVuSans-30"/>
       <use x="1101.074219" xlink:href="#DejaVuSans-2c"/>
       <use x="1132.861328" xlink:href="#DejaVuSans-20"/>
       <use x="1164.648438" xlink:href="#DejaVuSans-54"/>
       <use x="1209.232422" xlink:href="#DejaVuSans-61"/>
       <use x="1270.511719" xlink:href="#DejaVuSans-6d"/>
       <use x="1367.923828" xlink:href="#DejaVuSans-70"/>
       <use x="1431.400391" xlink:href="#DejaVuSans-61"/>
       <use x="1492.679688" xlink:href="#DejaVuSans-2c"/>
       <use x="1524.466797" xlink:href="#DejaVuSans-20"/>
       <use x="1556.253906" xlink:href="#DejaVuSans-46"/>
       <use x="1613.773438" xlink:href="#DejaVuSans-4c"/>
       <use x="1669.486328" xlink:href="#DejaVuSans-29"/>
      </g>
     </g>
    </g>
    <g id="xtick_3">
     <g id="line2d_3">
      <g>
       <use style="stroke:#000000;" x="106.310961" xlink:href="#m54b4e7cee6" y="246.332"/>
      </g>
     </g>
     <g id="text_3">
      <!-- (2021-04-03 19:36:00, Tampa, FL) -->
      <g transform="translate(31.137649 261.318625)scale(0.088 -0.088)">
       <defs>
        <path d="M 703 97 
L 703 672 
Q 941 559 1184 500 
Q 1428 441 1663 441 
Q 2288 441 2617 861 
Q 2947 1281 2994 2138 
Q 2813 1869 2534 1725 
Q 2256 1581 1919 1581 
Q 1219 1581 811 2004 
Q 403 2428 403 3163 
Q 403 3881 828 4315 
Q 1253 4750 1959 4750 
Q 2769 4750 3195 4129 
Q 3622 3509 3622 2328 
Q 3622 1225 3098 567 
Q 2575 -91 1691 -91 
Q 1453 -91 1209 -44 
Q 966 3 703 97 
z
M 1959 2075 
Q 2384 2075 2632 2365 
Q 2881 2656 2881 3163 
Q 2881 3666 2632 3958 
Q 2384 4250 1959 4250 
Q 1534 4250 1286 3958 
Q 1038 3666 1038 3163 
Q 1038 2656 1286 2365 
Q 1534 2075 1959 2075 
z
" id="DejaVuSans-39" transform="scale(0.015625)"/>
        <path d="M 2113 2584 
Q 1688 2584 1439 2293 
Q 1191 2003 1191 1497 
Q 1191 994 1439 701 
Q 1688 409 2113 409 
Q 2538 409 2786 701 
Q 3034 994 3034 1497 
Q 3034 2003 2786 2293 
Q 2538 2584 2113 2584 
z
M 3366 4563 
L 3366 3988 
Q 3128 4100 2886 4159 
Q 2644 4219 2406 4219 
Q 1781 4219 1451 3797 
Q 1122 3375 1075 2522 
Q 1259 2794 1537 2939 
Q 1816 3084 2150 3084 
Q 2853 3084 3261 2657 
Q 3669 2231 3669 1497 
Q 3669 778 3244 343 
Q 2819 -91 2113 -91 
Q 1303 -91 875 529 
Q 447 1150 447 2328 
Q 447 3434 972 4092 
Q 1497 4750 2381 4750 
Q 2619 4750 2861 4703 
Q 3103 4656 3366 4563 
z
" id="DejaVuSans-36" transform="scale(0.015625)"/>
       </defs>
       <use xlink:href="#DejaVuSans-28"/>
       <use x="39.013672" xlink:href="#DejaVuSans-32"/>
       <use x="102.636719" xlink:href="#DejaVuSans-30"/>
       <use x="166.259766" xlink:href="#DejaVuSans-32"/>
       <use x="229.882812" xlink:href="#DejaVuSans-31"/>
       <use x="293.505859" xlink:href="#DejaVuSans-2d"/>
       <use x="329.589844" xlink:href="#DejaVuSans-30"/>
       <use x="393.212891" xlink:href="#DejaVuSans-34"/>
       <use x="456.835938" xlink:href="#DejaVuSans-2d"/>
       <use x="492.919922" xlink:href="#DejaVuSans-30"/>
       <use x="556.542969" xlink:href="#DejaVuSans-33"/>
       <use x="620.166016" xlink:href="#DejaVuSans-20"/>
       <use x="651.953125" xlink:href="#DejaVuSans-31"/>
       <use x="715.576172" xlink:href="#DejaVuSans-39"/>
       <use x="779.199219" xlink:href="#DejaVuSans-3a"/>
       <use x="812.890625" xlink:href="#DejaVuSans-33"/>
       <use x="876.513672" xlink:href="#DejaVuSans-36"/>
       <use x="940.136719" xlink:href="#DejaVuSans-3a"/>
       <use x="973.828125" xlink:href="#DejaVuSans-30"/>
       <use x="1037.451172" xlink:href="#DejaVuSans-30"/>
       <use x="1101.074219" xlink:href="#DejaVuSans-2c"/>
       <use x="1132.861328" xlink:href="#DejaVuSans-20"/>
       <use x="1164.648438" xlink:href="#DejaVuSans-54"/>
       <use x="1209.232422" xlink:href="#DejaVuSans-61"/>
       <use x="1270.511719" xlink:href="#DejaVuSans-6d"/>
       <use x="1367.923828" xlink:href="#DejaVuSans-70"/>
       <use x="1431.400391" xlink:href="#DejaVuSans-61"/>
       <use x="1492.679688" xlink:href="#DejaVuSans-2c"/>
       <use x="1524.466797" xlink:href="#DejaVuSans-20"/>
       <use x="1556.253906" xlink:href="#DejaVuSans-46"/>
       <use x="1613.773438" xlink:href="#DejaVuSans-4c"/>
       <use x="1669.486328" xlink:href="#DejaVuSans-29"/>
      </g>
     </g>
    </g>
    <g id="xtick_4">
     <g id="line2d_4">
      <g>
       <use style="stroke:#000000;" x="116.70302" xlink:href="#m54b4e7cee6" y="246.332"/>
      </g>
     </g>
     <g id="text_4">
      <!-- (2021-03-28 02:12:00, Tampa, FL) -->
      <g transform="translate(41.529707 261.318625)scale(0.088 -0.088)">
       <defs>
        <path d="M 2034 2216 
Q 1584 2216 1326 1975 
Q 1069 1734 1069 1313 
Q 1069 891 1326 650 
Q 1584 409 2034 409 
Q 2484 409 2743 651 
Q 3003 894 3003 1313 
Q 3003 1734 2745 1975 
Q 2488 2216 2034 2216 
z
M 1403 2484 
Q 997 2584 770 2862 
Q 544 3141 544 3541 
Q 544 4100 942 4425 
Q 1341 4750 2034 4750 
Q 2731 4750 3128 4425 
Q 3525 4100 3525 3541 
Q 3525 3141 3298 2862 
Q 3072 2584 2669 2484 
Q 3125 2378 3379 2068 
Q 3634 1759 3634 1313 
Q 3634 634 3220 271 
Q 2806 -91 2034 -91 
Q 1263 -91 848 271 
Q 434 634 434 1313 
Q 434 1759 690 2068 
Q 947 2378 1403 2484 
z
M 1172 3481 
Q 1172 3119 1398 2916 
Q 1625 2713 2034 2713 
Q 2441 2713 2670 2916 
Q 2900 3119 2900 3481 
Q 2900 3844 2670 4047 
Q 2441 4250 2034 4250 
Q 1625 4250 1398 4047 
Q 1172 3844 1172 3481 
z
" id="DejaVuSans-38" transform="scale(0.015625)"/>
       </defs>
       <use xlink:href="#DejaVuSans-28"/>
       <use x="39.013672" xlink:href="#DejaVuSans-32"/>
       <use x="102.636719" xlink:href="#DejaVuSans-30"/>
       <use x="166.259766" xlink:href="#DejaVuSans-32"/>
       <use x="229.882812" xlink:href="#DejaVuSans-31"/>
       <use x="293.505859" xlink:href="#DejaVuSans-2d"/>
       <use x="329.589844" xlink:href="#DejaVuSans-30"/>
       <use x="393.212891" xlink:href="#DejaVuSans-33"/>
       <use x="456.835938" xlink:href="#DejaVuSans-2d"/>
       <use x="492.919922" xlink:href="#DejaVuSans-32"/>
       <use x="556.542969" xlink:href="#DejaVuSans-38"/>
       <use x="620.166016" xlink:href="#DejaVuSans-20"/>
       <use x="651.953125" xlink:href="#DejaVuSans-30"/>
       <use x="715.576172" xlink:href="#DejaVuSans-32"/>
       <use x="779.199219" xlink:href="#DejaVuSans-3a"/>
       <use x="812.890625" xlink:href="#DejaVuSans-31"/>
       <use x="876.513672" xlink:href="#DejaVuSans-32"/>
       <use x="940.136719" xlink:href="#DejaVuSans-3a"/>
       <use x="973.828125" xlink:href="#DejaVuSans-30"/>
       <use x="1037.451172" xlink:href="#DejaVuSans-30"/>
       <use x="1101.074219" xlink:href="#DejaVuSans-2c"/>
       <use x="1132.861328" xlink:href="#DejaVuSans-20"/>
       <use x="1164.648438" xlink:href="#DejaVuSans-54"/>
       <use x="1209.232422" xlink:href="#DejaVuSans-61"/>
       <use x="1270.511719" xlink:href="#DejaVuSans-6d"/>
       <use x="1367.923828" xlink:href="#DejaVuSans-70"/>
       <use x="1431.400391" xlink:href="#DejaVuSans-61"/>
       <use x="1492.679688" xlink:href="#DejaVuSans-2c"/>
       <use x="1524.466797" xlink:href="#DejaVuSans-20"/>
       <use x="1556.253906" xlink:href="#DejaVuSans-46"/>
       <use x="1613.773438" xlink:href="#DejaVuSans-4c"/>
       <use x="1669.486328" xlink:href="#DejaVuSans-29"/>
      </g>
     </g>
    </g>
    <g id="xtick_5">
     <g id="line2d_5">
      <g>
       <use style="stroke:#000000;" x="127.095078" xlink:href="#m54b4e7cee6" y="246.332"/>
      </g>
     </g>
     <g id="text_5">
      <!-- (2021-04-04 14:12:00, Tampa, FL) -->
      <g transform="translate(51.921766 261.318625)scale(0.088 -0.088)">
       <use xlink:href="#DejaVuSans-28"/>
       <use x="39.013672" xlink:href="#DejaVuSans-32"/>
       <use x="102.636719" xlink:href="#DejaVuSans-30"/>
       <use x="166.259766" xlink:href="#DejaVuSans-32"/>
       <use x="229.882812" xlink:href="#DejaVuSans-31"/>
       <use x="293.505859" xlink:href="#DejaVuSans-2d"/>
       <use x="329.589844" xlink:href="#DejaVuSans-30"/>
       <use x="393.212891" xlink:href="#DejaVuSans-34"/>
       <use x="456.835938" xlink:href="#DejaVuSans-2d"/>
       <use x="492.919922" xlink:href="#DejaVuSans-30"/>
       <use x="556.542969" xlink:href="#DejaVuSans-34"/>
       <use x="620.166016" xlink:href="#DejaVuSans-20"/>
       <use x="651.953125" xlink:href="#DejaVuSans-31"/>
       <use x="715.576172" xlink:href="#DejaVuSans-34"/>
       <use x="779.199219" xlink:href="#DejaVuSans-3a"/>
       <use x="812.890625" xlink:href="#DejaVuSans-31"/>
       <use x="876.513672" xlink:href="#DejaVuSans-32"/>
       <use x="940.136719" xlink:href="#DejaVuSans-3a"/>
       <use x="973.828125" xlink:href="#DejaVuSans-30"/>
       <use x="1037.451172" xlink:href="#DejaVuSans-30"/>
       <use x="1101.074219" xlink:href="#DejaVuSans-2c"/>
       <use x="1132.861328" xlink:href="#DejaVuSans-20"/>
       <use x="1164.648438" xlink:href="#DejaVuSans-54"/>
       <use x="1209.232422" xlink:href="#DejaVuSans-61"/>
       <use x="1270.511719" xlink:href="#DejaVuSans-6d"/>
       <use x="1367.923828" xlink:href="#DejaVuSans-70"/>
       <use x="1431.400391" xlink:href="#DejaVuSans-61"/>
       <use x="1492.679688" xlink:href="#DejaVuSans-2c"/>
       <use x="1524.466797" xlink:href="#DejaVuSans-20"/>
       <use x="1556.253906" xlink:href="#DejaVuSans-46"/>
       <use x="1613.773438" xlink:href="#DejaVuSans-4c"/>
       <use x="1669.486328" xlink:href="#DejaVuSans-29"/>
      </g>
     </g>
    </g>
    <g id="xtick_6">
     <g id="line2d_6">
      <g>
       <use style="stroke:#000000;" x="137.487137" xlink:href="#m54b4e7cee6" y="246.332"/>
      </g>
     </g>
     <g id="text_6">
      <!-- (2021-05-04 09:36:00, Tampa, FL) -->
      <g transform="translate(62.313824 261.318625)scale(0.088 -0.088)">
       <use xlink:href="#DejaVuSans-28"/>
       <use x="39.013672" xlink:href="#DejaVuSans-32"/>
       <use x="102.636719" xlink:href="#DejaVuSans-30"/>
       <use x="166.259766" xlink:href="#DejaVuSans-32"/>
       <use x="229.882812" xlink:href="#DejaVuSans-31"/>
       <use x="293.505859" xlink:href="#DejaVuSans-2d"/>
       <use x="329.589844" xlink:href="#DejaVuSans-30"/>
       <use x="393.212891" xlink:href="#DejaVuSans-35"/>
       <use x="456.835938" xlink:href="#DejaVuSans-2d"/>
       <use x="492.919922" xlink:href="#DejaVuSans-30"/>
       <use x="556.542969" xlink:href="#DejaVuSans-34"/>
       <use x="620.166016" xlink:href="#DejaVuSans-20"/>
       <use x="651.953125" xlink:href="#DejaVuSans-30"/>
       <use x="715.576172" xlink:href="#DejaVuSans-39"/>
       <use x="779.199219" xlink:href="#DejaVuSans-3a"/>
       <use x="812.890625" xlink:href="#DejaVuSans-33"/>
       <use x="876.513672" xlink:href="#DejaVuSans-36"/>
       <use x="940.136719" xlink:href="#DejaVuSans-3a"/>
       <use x="973.828125" xlink:href="#DejaVuSans-30"/>
       <use x="1037.451172" xlink:href="#DejaVuSans-30"/>
       <use x="1101.074219" xlink:href="#DejaVuSans-2c"/>
       <use x="1132.861328" xlink:href="#DejaVuSans-20"/>
       <use x="1164.648438" xlink:href="#DejaVuSans-54"/>
       <use x="1209.232422" xlink:href="#DejaVuSans-61"/>
       <use x="1270.511719" xlink:href="#DejaVuSans-6d"/>
       <use x="1367.923828" xlink:href="#DejaVuSans-70"/>
       <use x="1431.400391" xlink:href="#DejaVuSans-61"/>
       <use x="1492.679688" xlink:href="#DejaVuSans-2c"/>
       <use x="1524.466797" xlink:href="#DejaVuSans-20"/>
       <use x="1556.253906" xlink:href="#DejaVuSans-46"/>
       <use x="1613.773438" xlink:href="#DejaVuSans-4c"/>
       <use x="1669.486328" xlink:href="#DejaVuSans-29"/>
      </g>
     </g>
    </g>
    <g id="xtick_7">
     <g id="line2d_7">
      <g>
       <use style="stroke:#000000;" x="147.879196" xlink:href="#m54b4e7cee6" y="246.332"/>
      </g>
     </g>
     <g id="text_7">
      <!-- (2021-04-03 20:45:00, Tampa, FL) -->
      <g transform="translate(72.705883 261.318625)scale(0.088 -0.088)">
       <use xlink:href="#DejaVuSans-28"/>
       <use x="39.013672" xlink:href="#DejaVuSans-32"/>
       <use x="102.636719" xlink:href="#DejaVuSans-30"/>
       <use x="166.259766" xlink:href="#DejaVuSans-32"/>
       <use x="229.882812" xlink:href="#DejaVuSans-31"/>
       <use x="293.505859" xlink:href="#DejaVuSans-2d"/>
       <use x="329.589844" xlink:href="#DejaVuSans-30"/>
       <use x="393.212891" xlink:href="#DejaVuSans-34"/>
       <use x="456.835938" xlink:href="#DejaVuSans-2d"/>
       <use x="492.919922" xlink:href="#DejaVuSans-30"/>
       <use x="556.542969" xlink:href="#DejaVuSans-33"/>
       <use x="620.166016" xlink:href="#DejaVuSans-20"/>
       <use x="651.953125" xlink:href="#DejaVuSans-32"/>
       <use x="715.576172" xlink:href="#DejaVuSans-30"/>
       <use x="779.199219" xlink:href="#DejaVuSans-3a"/>
       <use x="812.890625" xlink:href="#DejaVuSans-34"/>
       <use x="876.513672" xlink:href="#DejaVuSans-35"/>
       <use x="940.136719" xlink:href="#DejaVuSans-3a"/>
       <use x="973.828125" xlink:href="#DejaVuSans-30"/>
       <use x="1037.451172" xlink:href="#DejaVuSans-30"/>
       <use x="1101.074219" xlink:href="#DejaVuSans-2c"/>
       <use x="1132.861328" xlink:href="#DejaVuSans-20"/>
       <use x="1164.648438" xlink:href="#DejaVuSans-54"/>
       <use x="1209.232422" xlink:href="#DejaVuSans-61"/>
       <use x="1270.511719" xlink:href="#DejaVuSans-6d"/>
       <use x="1367.923828" xlink:href="#DejaVuSans-70"/>
       <use x="1431.400391" xlink:href="#DejaVuSans-61"/>
       <use x="1492.679688" xlink:href="#DejaVuSans-2c"/>
       <use x="1524.466797" xlink:href="#DejaVuSans-20"/>
       <use x="1556.253906" xlink:href="#DejaVuSans-46"/>
       <use x="1613.773438" xlink:href="#DejaVuSans-4c"/>
       <use x="1669.486328" xlink:href="#DejaVuSans-29"/>
      </g>
     </g>
    </g>
    <g id="text_8">
     <!-- timestamp,Name -->
     <g transform="translate(209.442627 274.44325)scale(0.096 -0.096)">
      <defs>
       <path d="M 1172 4494 
L 1172 3500 
L 2356 3500 
L 2356 3053 
L 1172 3053 
L 1172 1153 
Q 1172 725 1289 603 
Q 1406 481 1766 481 
L 2356 481 
L 2356 0 
L 1766 0 
Q 1100 0 847 248 
Q 594 497 594 1153 
L 594 3053 
L 172 3053 
L 172 3500 
L 594 3500 
L 594 4494 
L 1172 4494 
z
" id="DejaVuSans-74" transform="scale(0.015625)"/>
       <path d="M 603 3500 
L 1178 3500 
L 1178 0 
L 603 0 
L 603 3500 
z
M 603 4863 
L 1178 4863 
L 1178 4134 
L 603 4134 
L 603 4863 
z
" id="DejaVuSans-69" transform="scale(0.015625)"/>
       <path d="M 3597 1894 
L 3597 1613 
L 953 1613 
Q 991 1019 1311 708 
Q 1631 397 2203 397 
Q 2534 397 2845 478 
Q 3156 559 3463 722 
L 3463 178 
Q 3153 47 2828 -22 
Q 2503 -91 2169 -91 
Q 1331 -91 842 396 
Q 353 884 353 1716 
Q 353 2575 817 3079 
Q 1281 3584 2069 3584 
Q 2775 3584 3186 3129 
Q 3597 2675 3597 1894 
z
M 3022 2063 
Q 3016 2534 2758 2815 
Q 2500 3097 2075 3097 
Q 1594 3097 1305 2825 
Q 1016 2553 972 2059 
L 3022 2063 
z
" id="DejaVuSans-65" transform="scale(0.015625)"/>
       <path d="M 2834 3397 
L 2834 2853 
Q 2591 2978 2328 3040 
Q 2066 3103 1784 3103 
Q 1356 3103 1142 2972 
Q 928 2841 928 2578 
Q 928 2378 1081 2264 
Q 1234 2150 1697 2047 
L 1894 2003 
Q 2506 1872 2764 1633 
Q 3022 1394 3022 966 
Q 3022 478 2636 193 
Q 2250 -91 1575 -91 
Q 1294 -91 989 -36 
Q 684 19 347 128 
L 347 722 
Q 666 556 975 473 
Q 1284 391 1588 391 
Q 1994 391 2212 530 
Q 2431 669 2431 922 
Q 2431 1156 2273 1281 
Q 2116 1406 1581 1522 
L 1381 1569 
Q 847 1681 609 1914 
Q 372 2147 372 2553 
Q 372 3047 722 3315 
Q 1072 3584 1716 3584 
Q 2034 3584 2315 3537 
Q 2597 3491 2834 3397 
z
" id="DejaVuSans-73" transform="scale(0.015625)"/>
       <path d="M 628 4666 
L 1478 4666 
L 3547 763 
L 3547 4666 
L 4159 4666 
L 4159 0 
L 3309 0 
L 1241 3903 
L 1241 0 
L 628 0 
L 628 4666 
z
" id="DejaVuSans-4e" transform="scale(0.015625)"/>
      </defs>
      <use xlink:href="#DejaVuSans-74"/>
      <use x="39.208984" xlink:href="#DejaVuSans-69"/>
      <use x="66.992188" xlink:href="#DejaVuSans-6d"/>
      <use x="164.404297" xlink:href="#DejaVuSans-65"/>
      <use x="225.927734" xlink:href="#DejaVuSans-73"/>
      <use x="278.027344" xlink:href="#DejaVuSans-74"/>
      <use x="317.236328" xlink:href="#DejaVuSans-61"/>
      <use x="378.515625" xlink:href="#DejaVuSans-6d"/>
      <use x="475.927734" xlink:href="#DejaVuSans-70"/>
      <use x="539.404297" xlink:href="#DejaVuSans-2c"/>
      <use x="571.191406" xlink:href="#DejaVuSans-4e"/>
      <use x="645.996094" xlink:href="#DejaVuSans-61"/>
      <use x="707.275391" xlink:href="#DejaVuSans-6d"/>
      <use x="804.6875" xlink:href="#DejaVuSans-65"/>
     </g>
    </g>
   </g>
   <g id="matplotlib.axis_2">
    <g id="ytick_1">
     <g id="line2d_8">
      <defs>
       <path d="M 0 0 
L -4.8 0 
" id="mceb6812067" style="stroke:#000000;"/>
      </defs>
      <g>
       <use style="stroke:#000000;" x="80.408755" xlink:href="#mceb6812067" y="237.259455"/>
      </g>
     </g>
     <g id="text_9">
      <!-- 0 -->
      <g transform="translate(66.509755 240.602767)scale(0.088 -0.088)">
       <use xlink:href="#DejaVuSans-30"/>
      </g>
     </g>
    </g>
    <g id="ytick_2">
     <g id="line2d_9">
      <g>
       <use style="stroke:#000000;" x="80.408755" xlink:href="#mceb6812067" y="202.365049"/>
      </g>
     </g>
     <g id="text_10">
      <!-- 5 -->
      <g transform="translate(66.509755 205.708361)scale(0.088 -0.088)">
       <use xlink:href="#DejaVuSans-35"/>
      </g>
     </g>
    </g>
    <g id="ytick_3">
     <g id="line2d_10">
      <g>
       <use style="stroke:#000000;" x="80.408755" xlink:href="#mceb6812067" y="167.470643"/>
      </g>
     </g>
     <g id="text_11">
      <!-- 10 -->
      <g transform="translate(60.910755 170.813956)scale(0.088 -0.088)">
       <use xlink:href="#DejaVuSans-31"/>
       <use x="63.623047" xlink:href="#DejaVuSans-30"/>
      </g>
     </g>
    </g>
    <g id="ytick_4">
     <g id="line2d_11">
      <g>
       <use style="stroke:#000000;" x="80.408755" xlink:href="#mceb6812067" y="132.576238"/>
      </g>
     </g>
     <g id="text_12">
      <!-- 15 -->
      <g transform="translate(60.910755 135.91955)scale(0.088 -0.088)">
       <use xlink:href="#DejaVuSans-31"/>
       <use x="63.623047" xlink:href="#DejaVuSans-35"/>
      </g>
     </g>
    </g>
    <g id="ytick_5">
     <g id="line2d_12">
      <g>
       <use style="stroke:#000000;" x="80.408755" xlink:href="#mceb6812067" y="97.681832"/>
      </g>
     </g>
     <g id="text_13">
      <!-- 20 -->
      <g transform="translate(60.910755 101.025145)scale(0.088 -0.088)">
       <use xlink:href="#DejaVuSans-32"/>
       <use x="63.623047" xlink:href="#DejaVuSans-30"/>
      </g>
     </g>
    </g>
    <g id="ytick_6">
     <g id="line2d_13">
      <g>
       <use style="stroke:#000000;" x="80.408755" xlink:href="#mceb6812067" y="62.787427"/>
      </g>
     </g>
     <g id="text_14">
      <!-- 25 -->
      <g transform="translate(60.910755 66.130739)scale(0.088 -0.088)">
       <use xlink:href="#DejaVuSans-32"/>
       <use x="63.623047" xlink:href="#DejaVuSans-35"/>
      </g>
     </g>
    </g>
   </g>
   <g id="line2d_14">
    <path clip-path="url(#p68aef70ff8)" d="M 80.408755 132.576238 
L 421.632 132.576238 
" style="fill:none;stroke:#1f77b4;stroke-linecap:square;stroke-width:1.2;"/>
   </g>
   <g id="line2d_15">
    <path clip-path="url(#p68aef70ff8)" d="M 95.918902 181.428406 
L 96.438505 167.470643 
L 96.958108 202.365049 
L 97.477711 167.470643 
L 97.997314 118.618476 
L 98.516917 153.512881 
L 99.03652 153.512881 
L 99.556123 118.618476 
L 100.075726 167.470643 
L 100.595329 153.512881 
L 101.114932 132.576238 
M 102.154138 139.555119 
M 103.193343 216.322811 
L 103.712946 139.555119 
L 104.232549 188.407287 
L 104.752152 181.428406 
M 105.791358 132.576238 
M 106.830564 153.512881 
L 107.350167 104.660713 
L 107.86977 153.512881 
L 108.389373 139.555119 
L 108.908976 139.555119 
L 109.428579 153.512881 
L 109.948182 139.555119 
L 110.467784 139.555119 
M 112.026593 153.512881 
L 112.546196 188.407287 
M 114.105005 167.470643 
M 115.144211 202.365049 
L 115.663814 167.470643 
M 116.70302 104.660713 
L 117.222623 167.470643 
L 117.742226 139.555119 
M 119.301034 118.618476 
L 119.820637 202.365049 
M 120.859843 139.555119 
L 121.379446 132.576238 
L 121.899049 139.555119 
L 122.418652 188.407287 
M 123.457858 188.407287 
L 123.977461 167.470643 
M 125.016667 181.428406 
L 125.53627 139.555119 
M 127.095078 153.512881 
L 127.614681 139.555119 
L 128.134284 153.512881 
L 128.653887 139.555119 
M 129.693093 181.428406 
L 130.212696 167.470643 
L 130.732299 139.555119 
L 131.251902 153.512881 
L 131.771505 153.512881 
M 132.810711 167.470643 
L 133.330313 167.470643 
L 133.849916 118.618476 
L 134.369519 132.576238 
L 134.889122 132.576238 
L 135.408725 167.470643 
L 135.928328 181.428406 
M 136.967534 167.470643 
L 137.487137 139.555119 
L 138.00674 181.428406 
L 138.526343 167.470643 
" style="fill:none;stroke:#1f77b4;stroke-linecap:square;stroke-width:1.2;"/>
   </g>
   <g id="line2d_16">
    <path clip-path="url(#p68aef70ff8)" d="M 95.918902 209.34393 
L 96.438505 202.365049 
L 96.958108 209.34393 
L 97.477711 160.491762 
L 97.997314 223.301692 
L 98.516917 167.470643 
L 99.03652 216.322811 
L 99.556123 209.34393 
L 100.595329 209.34393 
L 101.114932 202.365049 
L 101.634535 167.470643 
M 102.673741 202.365049 
L 103.193343 209.34393 
L 103.712946 195.386168 
L 104.232549 202.365049 
L 104.752152 223.301692 
L 105.271755 216.322811 
L 105.791358 181.428406 
M 106.830564 209.34393 
L 107.350167 202.365049 
L 107.86977 188.407287 
L 108.389373 195.386168 
L 108.908976 209.34393 
L 109.428579 230.280573 
L 109.948182 174.449524 
L 110.467784 209.34393 
L 111.50699 181.428406 
L 112.546196 167.470643 
L 113.065799 153.512881 
L 113.585402 188.407287 
L 114.105005 181.428406 
M 115.144211 174.449524 
L 115.663814 209.34393 
L 116.70302 223.301692 
L 117.222623 195.386168 
L 118.261828 223.301692 
L 118.781431 191.896727 
L 119.301034 188.407287 
L 120.34024 216.322811 
M 121.379446 188.407287 
L 121.899049 174.449524 
L 122.418652 188.407287 
L 122.938255 237.259455 
L 123.457858 188.407287 
L 123.977461 216.322811 
L 124.497064 195.386168 
L 125.016667 237.259455 
L 125.53627 181.428406 
L 126.055872 174.449524 
L 126.575475 202.365049 
L 127.095078 209.34393 
L 127.614681 167.470643 
L 128.134284 216.322811 
L 128.653887 209.34393 
L 129.693093 181.428406 
L 130.212696 237.259455 
L 130.732299 195.386168 
L 131.251902 223.301692 
L 131.771505 202.365049 
L 132.291108 202.365049 
L 132.810711 237.259455 
L 133.330313 198.875608 
L 133.849916 223.301692 
L 134.369519 195.386168 
L 134.889122 195.386168 
L 135.928328 209.34393 
L 136.447931 209.34393 
L 136.967534 223.301692 
L 137.487137 223.301692 
L 138.00674 209.34393 
L 138.526343 209.34393 
L 139.045946 202.365049 
L 139.565549 188.407287 
L 140.085152 216.322811 
L 140.604755 223.301692 
L 141.124357 174.449524 
L 141.64396 188.407287 
L 142.163563 209.34393 
L 142.683166 205.85449 
L 143.202769 209.34393 
L 143.722372 181.428406 
L 144.241975 237.259455 
L 144.761578 195.386168 
L 145.281181 237.259455 
L 145.800784 202.365049 
L 146.320387 237.259455 
L 146.83999 223.301692 
L 147.879196 167.470643 
L 148.398798 202.365049 
L 148.918401 216.322811 
L 149.438004 216.322811 
L 149.957607 209.34393 
L 150.47721 181.428406 
M 151.516416 209.34393 
L 152.036019 188.407287 
L 152.555622 223.301692 
L 153.075225 209.34393 
L 153.594828 202.365049 
L 154.114431 202.365049 
L 154.634034 216.322811 
L 155.153637 223.301692 
L 156.192842 195.386168 
L 156.712445 195.386168 
L 157.232048 216.322811 
L 157.751651 216.322811 
L 158.271254 160.491762 
L 158.790857 146.534 
L 159.31046 191.896727 
L 159.830063 223.301692 
L 160.349666 202.365049 
L 160.869269 118.618476 
L 161.388872 216.322811 
M 162.428078 219.812252 
L 162.947681 237.259455 
L 163.467284 223.301692 
L 163.986886 195.386168 
L 164.506489 216.322811 
L 165.026092 188.407287 
L 165.545695 209.34393 
L 166.065298 209.34393 
M 167.104504 212.833371 
L 167.624107 181.428406 
L 168.14371 202.365049 
L 168.663313 209.34393 
L 169.182916 209.34393 
L 169.702519 181.428406 
L 170.222122 216.322811 
L 170.741725 174.449524 
L 171.261327 209.34393 
L 171.78093 146.534 
L 172.300533 212.833371 
L 172.820136 230.280573 
L 173.339739 209.34393 
M 175.418151 216.322811 
L 175.937754 153.512881 
L 176.457357 209.34393 
L 176.97696 209.34393 
L 177.496563 188.407287 
L 178.016166 188.407287 
L 178.535769 202.365049 
L 179.055371 223.301692 
L 179.574974 223.301692 
L 180.094577 118.618476 
M 182.172989 209.34393 
L 182.692592 188.407287 
L 183.212195 181.428406 
L 183.731798 216.322811 
L 184.251401 202.365049 
L 184.771004 195.386168 
L 185.81021 209.34393 
M 186.849415 202.365049 
L 187.369018 202.365049 
L 187.888621 170.960084 
L 188.408224 181.428406 
L 188.927827 216.322811 
L 189.967033 202.365049 
L 190.486636 174.449524 
L 191.006239 223.301692 
L 191.525842 216.322811 
L 192.045445 216.322811 
L 192.565048 202.365049 
L 193.084651 181.428406 
L 193.604254 174.449524 
L 194.123856 237.259455 
M 195.163062 230.280573 
L 195.682665 216.322811 
L 196.202268 125.597357 
L 196.721871 223.301692 
L 197.241474 174.449524 
L 197.761077 188.407287 
L 198.28068 216.322811 
L 198.800283 202.365049 
L 199.319886 174.449524 
L 199.839489 181.428406 
L 200.359092 223.301692 
L 200.878695 209.34393 
L 201.398298 188.407287 
L 201.9179 153.512881 
L 202.437503 174.449524 
L 202.957106 209.34393 
L 203.476709 163.981203 
L 203.996312 209.34393 
L 204.515915 223.301692 
L 205.035518 198.875608 
L 205.555121 237.259455 
L 206.074724 230.280573 
M 207.11393 209.34393 
L 207.633533 202.365049 
L 208.153136 202.365049 
L 208.672739 209.34393 
L 209.192341 174.449524 
L 209.711944 216.322811 
L 210.231547 167.470643 
L 210.75115 188.407287 
L 211.270753 146.534 
L 211.790356 202.365049 
L 212.309959 181.428406 
L 212.829562 153.512881 
L 213.349165 223.301692 
L 213.868768 223.301692 
L 214.388371 209.34393 
M 215.427577 188.407287 
L 215.94718 216.322811 
L 216.466783 202.365049 
L 216.986385 195.386168 
L 217.505988 195.386168 
L 218.025591 181.428406 
L 218.545194 216.322811 
L 219.064797 167.470643 
L 219.5844 132.576238 
L 220.623606 216.322811 
L 221.143209 209.34393 
L 221.662812 181.428406 
L 222.182415 202.365049 
L 222.702018 160.491762 
L 223.221621 209.34393 
L 223.741224 202.365049 
L 224.260826 216.322811 
L 224.780429 202.365049 
L 225.300032 209.34393 
L 225.819635 191.896727 
L 226.339238 216.322811 
L 226.858841 188.407287 
L 227.378444 195.386168 
L 227.898047 160.491762 
L 228.41765 160.491762 
L 228.937253 223.301692 
L 229.456856 216.322811 
L 229.976459 170.960084 
L 230.496062 188.407287 
L 231.015665 197.712462 
L 231.535268 188.407287 
L 232.05487 167.470643 
L 232.574473 223.301692 
L 233.094076 223.301692 
L 233.613679 195.386168 
L 234.133282 181.428406 
L 234.652885 223.301692 
L 235.172488 181.428406 
L 235.692091 237.259455 
L 236.211694 216.322811 
L 236.731297 167.470643 
L 237.2509 237.259455 
L 237.770503 153.512881 
L 238.290106 237.259455 
L 238.809709 223.301692 
L 239.329311 181.428406 
L 240.368517 223.301692 
L 240.88812 230.280573 
L 241.407723 191.896727 
L 241.927326 209.34393 
L 242.446929 195.386168 
L 242.966532 216.322811 
L 243.486135 181.428406 
L 244.005738 209.34393 
L 244.525341 167.470643 
L 245.044944 167.470643 
L 245.564547 216.322811 
L 246.603753 216.322811 
L 247.123355 188.407287 
L 247.642958 223.301692 
L 248.162561 181.428406 
M 249.201767 230.280573 
L 249.72137 181.428406 
L 250.240973 195.386168 
L 250.760576 223.301692 
L 251.280179 216.322811 
L 251.799782 132.576238 
L 252.319385 223.301692 
L 252.838988 223.301692 
L 253.358591 167.470643 
L 253.878194 205.85449 
L 254.397797 160.491762 
L 254.917399 181.428406 
L 255.437002 195.386168 
L 255.956605 195.386168 
L 256.476208 209.34393 
L 256.995811 209.34393 
L 257.515414 237.259455 
L 258.035017 174.449524 
L 258.55462 174.449524 
L 259.074223 118.618476 
L 259.593826 216.322811 
L 260.113429 216.322811 
L 260.633032 191.896727 
L 261.152635 219.812252 
M 263.231046 216.322811 
L 263.750649 209.34393 
L 264.270252 195.386168 
L 264.789855 209.34393 
L 265.309458 209.34393 
L 265.829061 202.365049 
L 266.348664 209.34393 
L 267.38787 167.470643 
L 267.907473 181.428406 
L 268.427076 167.470643 
L 268.946679 191.896727 
L 269.466282 223.301692 
L 269.985884 167.470643 
L 270.505487 209.34393 
L 271.02509 202.365049 
L 271.544693 188.407287 
L 272.064296 202.365049 
L 272.583899 167.470643 
L 273.103502 237.259455 
L 273.623105 216.322811 
L 274.142708 237.259455 
L 274.662311 230.280573 
L 275.181914 181.428406 
L 275.701517 160.491762 
M 276.740723 223.301692 
L 277.260325 195.386168 
L 277.779928 223.301692 
L 278.299531 237.259455 
L 278.819134 223.301692 
L 279.338737 188.407287 
L 279.85834 209.34393 
L 279.85834 209.34393 
" style="fill:none;stroke:#ff7f0e;stroke-linecap:square;stroke-width:1.2;"/>
   </g>
   <g id="line2d_17">
    <path clip-path="url(#p68aef70ff8)" d="M 95.918902 188.407287 
L 96.438505 195.386168 
L 96.958108 216.322811 
L 97.477711 209.34393 
L 97.997314 181.428406 
L 98.516917 230.280573 
L 99.03652 216.322811 
L 99.556123 209.34393 
L 100.075726 223.301692 
L 100.595329 195.386168 
L 101.114932 202.365049 
L 101.634535 202.365049 
L 102.154138 181.428406 
L 102.673741 174.449524 
L 103.193343 188.407287 
L 103.712946 188.407287 
L 104.232549 160.491762 
L 104.752152 216.322811 
L 105.271755 216.322811 
L 105.791358 202.365049 
L 106.310961 209.34393 
L 106.830564 230.280573 
L 107.350167 223.301692 
L 107.86977 230.280573 
L 108.389373 174.449524 
L 108.908976 202.365049 
L 109.428579 181.428406 
L 109.948182 209.34393 
L 110.467784 223.301692 
L 110.987387 209.34393 
L 111.50699 209.34393 
L 112.546196 146.534 
L 113.065799 219.812252 
L 113.585402 167.470643 
L 114.105005 181.428406 
L 114.624608 188.407287 
L 115.144211 160.491762 
L 115.663814 230.280573 
L 116.183417 174.449524 
L 116.70302 216.322811 
L 117.222623 209.34393 
L 117.742226 237.259455 
L 118.261828 209.34393 
L 118.781431 216.322811 
L 119.301034 209.34393 
L 119.820637 188.407287 
L 120.34024 216.322811 
L 120.859843 198.875608 
L 121.379446 167.470643 
L 121.899049 202.365049 
L 122.418652 202.365049 
L 122.938255 216.322811 
L 123.457858 212.833371 
L 123.977461 174.449524 
L 124.497064 209.34393 
L 125.016667 191.896727 
L 125.53627 230.280573 
L 126.055872 209.34393 
L 126.575475 181.428406 
L 127.095078 237.259455 
L 127.614681 195.386168 
L 128.134284 209.34393 
L 129.17349 209.34393 
L 129.693093 202.365049 
L 130.212696 237.259455 
L 130.732299 202.365049 
L 131.251902 188.407287 
L 131.771505 202.365049 
L 132.291108 209.34393 
L 132.810711 167.470643 
L 133.330313 223.301692 
L 134.369519 202.365049 
L 134.889122 209.34393 
L 135.408725 223.301692 
L 135.928328 188.407287 
L 136.447931 188.407287 
L 136.967534 209.34393 
L 137.487137 237.259455 
L 138.00674 184.917846 
L 138.526343 237.259455 
L 139.045946 223.301692 
L 140.085152 181.428406 
L 141.64396 223.301692 
L 142.163563 212.833371 
L 142.683166 237.259455 
L 143.202769 195.386168 
L 143.722372 167.470643 
L 144.761578 223.301692 
L 145.281181 188.407287 
L 145.800784 216.322811 
L 146.320387 209.34393 
L 146.83999 167.470643 
L 147.359593 209.34393 
L 147.879196 223.301692 
L 148.398798 209.34393 
L 148.918401 181.428406 
L 149.438004 188.407287 
L 149.957607 188.407287 
L 150.47721 230.280573 
L 150.996813 209.34393 
L 152.036019 209.34393 
L 152.555622 181.428406 
L 153.075225 167.470643 
L 153.594828 209.34393 
L 154.114431 209.34393 
L 154.634034 188.407287 
L 155.153637 188.407287 
L 155.67324 230.280573 
L 156.192842 209.34393 
L 156.712445 146.534 
L 157.232048 209.34393 
L 157.751651 216.322811 
L 158.271254 188.407287 
L 158.790857 216.322811 
L 159.31046 216.322811 
L 159.830063 202.365049 
L 160.349666 209.34393 
L 160.869269 195.386168 
L 161.388872 202.365049 
L 161.908475 188.407287 
L 162.428078 209.34393 
L 162.947681 202.365049 
L 163.467284 174.449524 
L 163.986886 223.301692 
L 164.506489 209.34393 
L 165.026092 181.428406 
L 165.545695 209.34393 
L 166.065298 188.407287 
L 166.584901 181.428406 
L 167.104504 202.365049 
L 167.624107 195.386168 
L 168.14371 202.365049 
L 168.663313 230.280573 
L 169.182916 174.449524 
L 169.702519 209.34393 
L 170.222122 209.34393 
L 170.741725 216.322811 
L 171.261327 209.34393 
L 171.78093 209.34393 
L 172.300533 202.365049 
L 172.820136 212.833371 
L 173.339739 174.449524 
L 173.859342 202.365049 
L 174.378945 209.34393 
L 174.898548 209.34393 
L 175.418151 174.449524 
L 175.937754 195.386168 
L 176.457357 223.301692 
L 176.97696 212.833371 
L 178.016166 174.449524 
L 178.535769 223.301692 
L 179.055371 167.470643 
L 179.574974 174.449524 
L 180.094577 167.470643 
L 180.61418 223.301692 
L 181.133783 181.428406 
L 181.653386 209.34393 
L 182.172989 202.365049 
L 182.692592 181.428406 
L 183.212195 209.34393 
L 183.731798 209.34393 
L 184.251401 237.259455 
L 184.771004 202.365049 
L 185.290607 209.34393 
L 185.81021 181.428406 
L 186.329812 209.34393 
L 186.849415 195.386168 
L 187.369018 216.322811 
L 187.888621 216.322811 
L 188.408224 198.875608 
L 188.927827 212.833371 
L 189.44743 202.365049 
L 189.967033 174.449524 
L 190.486636 167.470643 
L 191.006239 219.812252 
L 191.525842 181.428406 
L 192.045445 188.407287 
L 192.565048 223.301692 
L 193.084651 174.449524 
L 193.604254 191.896727 
L 194.123856 181.428406 
L 194.643459 139.555119 
L 195.163062 125.597357 
L 195.682665 209.34393 
L 196.202268 174.449524 
L 196.721871 209.34393 
L 197.241474 209.34393 
L 197.761077 223.301692 
L 198.800283 195.386168 
L 199.319886 167.470643 
L 199.839489 167.470643 
L 200.359092 188.407287 
L 200.878695 181.428406 
L 201.9179 209.34393 
L 202.437503 195.386168 
L 202.957106 216.322811 
L 203.476709 202.365049 
L 203.996312 216.322811 
L 204.515915 237.259455 
L 205.035518 216.322811 
L 205.555121 174.449524 
L 206.074724 188.407287 
L 206.594327 223.301692 
L 207.11393 223.301692 
L 207.633533 174.449524 
L 208.153136 202.365049 
L 208.672739 223.301692 
L 209.192341 202.365049 
L 209.711944 209.34393 
L 210.231547 209.34393 
L 210.75115 195.386168 
L 211.270753 237.259455 
L 211.790356 174.449524 
L 212.309959 223.301692 
L 212.829562 209.34393 
L 213.349165 181.428406 
L 213.868768 209.34393 
L 214.388371 219.812252 
L 214.907974 202.365049 
L 215.427577 219.812252 
L 215.94718 209.34393 
L 216.466783 167.470643 
L 216.986385 188.407287 
L 217.505988 230.280573 
L 218.025591 202.365049 
L 218.545194 181.428406 
L 219.064797 209.34393 
L 219.5844 216.322811 
L 220.104003 209.34393 
L 220.623606 237.259455 
L 221.143209 209.34393 
L 221.662812 174.449524 
L 222.182415 209.34393 
L 222.702018 209.34393 
L 223.221621 219.812252 
L 223.741224 195.386168 
L 224.260826 216.322811 
L 224.780429 223.301692 
L 225.300032 237.259455 
L 225.819635 209.34393 
L 226.339238 195.386168 
L 226.858841 226.791133 
L 227.378444 219.812252 
L 227.898047 195.386168 
L 228.41765 223.301692 
L 228.937253 223.301692 
L 229.456856 202.365049 
L 229.976459 160.491762 
L 230.496062 202.365049 
L 231.015665 209.34393 
L 231.535268 195.386168 
L 232.05487 219.812252 
L 232.574473 209.34393 
L 233.094076 174.449524 
L 233.613679 153.512881 
L 234.652885 237.259455 
L 236.731297 181.428406 
L 237.2509 191.896727 
L 237.770503 167.470643 
L 238.290106 160.491762 
L 238.809709 212.833371 
L 239.329311 160.491762 
L 239.848914 209.34393 
L 240.88812 181.428406 
L 241.407723 237.259455 
L 242.446929 181.428406 
L 242.966532 223.301692 
L 243.486135 209.34393 
L 244.005738 209.34393 
L 244.525341 195.386168 
L 245.044944 202.365049 
L 245.564547 223.301692 
L 246.08415 195.386168 
L 246.603753 195.386168 
L 247.123355 216.322811 
L 247.642958 205.85449 
L 248.162561 209.34393 
L 248.682164 237.259455 
L 249.201767 195.386168 
L 249.72137 195.386168 
L 250.240973 209.34393 
L 250.760576 209.34393 
L 251.280179 216.322811 
L 252.319385 202.365049 
L 252.838988 237.259455 
L 253.358591 209.34393 
L 253.878194 195.386168 
L 254.397797 226.791133 
L 254.917399 223.301692 
L 255.956605 223.301692 
L 256.476208 195.386168 
L 256.995811 209.34393 
L 257.515414 209.34393 
L 258.035017 202.365049 
L 258.55462 202.365049 
L 259.074223 209.34393 
L 259.593826 167.470643 
L 260.113429 209.34393 
L 260.633032 216.322811 
L 261.152635 181.428406 
L 261.672238 216.322811 
L 262.19184 167.470643 
L 262.711443 188.407287 
L 263.231046 223.301692 
L 263.750649 209.34393 
L 264.270252 209.34393 
L 264.789855 207.017636 
L 265.309458 188.407287 
L 265.829061 216.322811 
L 266.348664 216.322811 
L 266.868267 223.301692 
L 267.38787 188.407287 
L 267.907473 195.386168 
L 268.427076 174.449524 
L 268.946679 209.34393 
L 269.466282 195.386168 
L 269.985884 223.301692 
L 270.505487 188.407287 
L 271.02509 181.428406 
L 271.544693 216.322811 
L 272.064296 209.34393 
L 273.103502 223.301692 
L 273.623105 181.428406 
L 274.142708 167.470643 
L 274.662311 167.470643 
L 275.181914 220.975399 
L 275.701517 157.002322 
L 276.22112 188.407287 
L 276.740723 188.407287 
L 276.740723 188.407287 
" style="fill:none;stroke:#2ca02c;stroke-linecap:square;stroke-width:1.2;"/>
   </g>
   <g id="line2d_18">
    <path clip-path="url(#p68aef70ff8)" d="M 96.438505 223.301692 
L 96.958108 209.34393 
L 97.477711 230.280573 
M 98.516917 181.428406 
L 99.03652 195.386168 
L 99.556123 195.386168 
L 100.075726 209.34393 
M 101.114932 195.386168 
L 101.634535 209.34393 
L 102.154138 202.365049 
M 103.193343 188.407287 
L 103.712946 216.322811 
L 104.752152 174.449524 
L 105.271755 209.34393 
L 105.791358 209.34393 
L 106.310961 167.470643 
L 106.830564 209.34393 
L 107.350167 216.322811 
M 108.389373 195.386168 
L 108.908976 188.407287 
L 109.428579 216.322811 
L 109.948182 202.365049 
L 110.467784 195.386168 
M 111.50699 209.34393 
L 112.026593 209.34393 
L 112.546196 181.428406 
L 113.065799 167.470643 
L 113.585402 167.470643 
M 114.624608 223.301692 
L 115.144211 209.34393 
L 115.663814 209.34393 
M 116.70302 237.259455 
L 117.222623 209.34393 
L 117.742226 195.386168 
L 118.781431 209.34393 
M 119.820637 195.386168 
L 120.34024 223.301692 
M 121.379446 195.386168 
L 121.899049 174.449524 
L 122.418652 202.365049 
L 122.938255 167.470643 
M 123.977461 223.301692 
L 124.497064 153.512881 
L 125.016667 167.470643 
L 125.53627 216.322811 
L 126.055872 209.34393 
L 126.575475 209.34393 
L 127.095078 195.386168 
M 128.134284 188.407287 
L 128.653887 188.407287 
M 129.693093 188.407287 
L 130.212696 132.576238 
L 130.732299 219.812252 
L 131.251902 202.365049 
L 131.771505 167.470643 
L 132.810711 223.301692 
L 133.330313 202.365049 
M 134.369519 202.365049 
L 134.889122 188.407287 
L 135.408725 195.386168 
L 135.928328 216.322811 
L 136.447931 209.34393 
L 137.487137 209.34393 
L 138.00674 230.280573 
M 140.085152 202.365049 
L 140.604755 216.322811 
L 141.124357 202.365049 
L 141.64396 167.470643 
M 142.683166 167.470643 
L 143.202769 223.301692 
L 143.722372 209.34393 
L 144.241975 209.34393 
L 144.761578 195.386168 
M 145.800784 202.365049 
L 146.320387 216.322811 
L 146.83999 150.023441 
L 147.359593 216.322811 
L 147.879196 223.301692 
L 148.398798 188.407287 
L 148.918401 223.301692 
L 149.957607 209.34393 
L 150.47721 174.449524 
M 152.555622 174.449524 
L 153.075225 209.34393 
M 154.114431 125.597357 
L 154.634034 153.512881 
L 155.153637 223.301692 
L 155.67324 216.322811 
M 156.712445 160.491762 
L 157.232048 209.34393 
M 161.388872 209.34393 
L 161.908475 167.470643 
M 163.467284 160.491762 
L 163.986886 202.365049 
L 164.506489 209.34393 
M 166.065298 209.34393 
L 166.584901 195.386168 
L 167.104504 195.386168 
L 167.624107 230.280573 
L 168.14371 188.407287 
L 168.663313 216.322811 
L 169.182916 209.34393 
L 169.182916 209.34393 
" style="fill:none;stroke:#d62728;stroke-linecap:square;stroke-width:1.2;"/>
   </g>
   <g id="line2d_19">
    <path clip-path="url(#p68aef70ff8)" d="M 95.918902 146.534 
L 96.438505 209.34393 
L 96.958108 181.428406 
L 97.477711 209.34393 
L 97.997314 174.449524 
L 98.516917 209.34393 
L 99.03652 167.470643 
L 99.556123 209.34393 
L 100.075726 202.365049 
L 100.595329 167.470643 
L 101.114932 181.428406 
L 101.634535 209.34393 
L 102.154138 181.428406 
M 103.193343 216.322811 
L 103.712946 188.407287 
M 104.752152 181.428406 
L 105.791358 216.322811 
L 106.310961 181.428406 
L 106.830564 174.449524 
M 107.86977 160.491762 
L 108.389373 167.470643 
L 108.908976 237.259455 
L 109.428579 188.407287 
L 109.948182 209.34393 
L 110.987387 195.386168 
L 111.50699 111.639594 
L 112.026593 118.618476 
L 112.546196 111.639594 
L 113.065799 209.34393 
L 113.585402 209.34393 
L 114.105005 153.512881 
M 115.144211 209.34393 
L 115.663814 174.449524 
L 116.183417 195.386168 
L 116.70302 188.407287 
L 117.222623 146.534 
L 117.742226 174.449524 
L 118.261828 223.301692 
L 118.781431 195.386168 
L 119.301034 230.280573 
L 119.820637 209.34393 
L 120.34024 174.449524 
L 121.379446 188.407287 
L 121.899049 188.407287 
L 122.418652 167.470643 
L 122.938255 202.365049 
L 123.457858 209.34393 
L 123.977461 195.386168 
L 124.497064 146.534 
L 125.016667 167.470643 
L 125.53627 209.34393 
L 126.055872 167.470643 
L 126.575475 223.301692 
L 127.095078 216.322811 
L 127.614681 188.407287 
M 128.653887 209.34393 
L 129.17349 202.365049 
L 129.693093 223.301692 
L 130.212696 223.301692 
L 130.732299 188.407287 
L 131.251902 223.301692 
L 131.771505 223.301692 
L 132.810711 209.34393 
L 133.330313 188.407287 
L 133.849916 146.534 
L 134.369519 188.407287 
L 134.889122 209.34393 
L 135.408725 202.365049 
L 135.928328 181.428406 
L 136.447931 202.365049 
L 136.967534 195.386168 
L 137.487137 216.322811 
L 138.00674 174.449524 
L 138.526343 160.491762 
L 139.045946 202.365049 
L 139.565549 174.449524 
L 140.085152 195.386168 
L 140.604755 181.428406 
L 141.124357 188.407287 
L 141.64396 181.428406 
L 142.163563 223.301692 
L 142.683166 223.301692 
L 143.202769 167.470643 
L 143.722372 216.322811 
L 144.241975 230.280573 
L 144.761578 167.470643 
L 145.281181 188.407287 
M 146.320387 174.449524 
L 146.83999 167.470643 
L 147.359593 111.639594 
L 147.879196 167.470643 
L 148.398798 209.34393 
L 148.918401 174.449524 
M 149.957607 195.386168 
L 150.47721 209.34393 
L 150.996813 174.449524 
L 151.516416 195.386168 
L 152.036019 209.34393 
L 152.555622 167.470643 
L 153.075225 209.34393 
L 153.594828 209.34393 
L 154.114431 181.428406 
L 154.634034 223.301692 
L 155.153637 188.407287 
L 155.67324 167.470643 
L 156.192842 167.470643 
L 156.712445 195.386168 
L 157.232048 195.386168 
L 157.751651 181.428406 
L 158.271254 188.407287 
L 158.790857 146.534 
L 159.31046 195.386168 
L 159.830063 174.449524 
L 160.349666 209.34393 
L 161.388872 209.34393 
L 161.908475 188.407287 
L 162.428078 216.322811 
M 163.467284 223.301692 
L 163.986886 181.428406 
L 164.506489 202.365049 
L 165.026092 202.365049 
L 165.545695 209.34393 
L 166.065298 174.449524 
L 166.584901 188.407287 
L 167.104504 167.470643 
L 167.624107 153.512881 
M 168.663313 209.34393 
L 169.182916 216.322811 
L 169.702519 209.34393 
L 170.222122 216.322811 
M 171.261327 167.470643 
L 171.78093 188.407287 
L 172.300533 188.407287 
L 172.820136 209.34393 
L 173.339739 202.365049 
M 174.378945 209.34393 
L 174.898548 188.407287 
M 176.457357 209.34393 
L 176.97696 167.470643 
L 177.496563 202.365049 
L 178.016166 209.34393 
M 180.094577 202.365049 
L 180.61418 181.428406 
L 181.133783 209.34393 
L 181.653386 195.386168 
L 182.172989 195.386168 
L 182.692592 188.407287 
L 183.212195 237.259455 
L 183.731798 209.34393 
L 184.251401 209.34393 
L 184.771004 195.386168 
L 185.290607 209.34393 
L 186.329812 195.386168 
L 186.849415 167.470643 
L 187.369018 195.386168 
L 187.888621 167.470643 
L 188.408224 223.301692 
L 188.927827 230.280573 
L 189.44743 209.34393 
L 189.967033 216.322811 
M 191.006239 195.386168 
L 191.525842 153.512881 
L 192.045445 188.407287 
L 192.565048 209.34393 
L 193.604254 209.34393 
M 194.643459 188.407287 
L 195.163062 174.449524 
L 195.682665 167.470643 
L 196.202268 216.322811 
L 196.721871 174.449524 
L 197.241474 167.470643 
L 197.761077 223.301692 
L 198.28068 181.428406 
L 198.800283 209.34393 
L 199.319886 202.365049 
L 199.839489 237.259455 
L 200.359092 209.34393 
L 200.878695 202.365049 
L 201.398298 209.34393 
M 202.437503 181.428406 
L 202.957106 223.301692 
L 203.476709 153.512881 
L 204.515915 181.428406 
L 205.035518 209.34393 
L 205.555121 209.34393 
M 206.594327 209.34393 
L 207.633533 181.428406 
L 208.153136 209.34393 
L 208.672739 188.407287 
L 209.192341 195.386168 
L 209.711944 181.428406 
L 210.231547 209.34393 
L 210.231547 209.34393 
" style="fill:none;stroke:#9467bd;stroke-linecap:square;stroke-width:1.2;"/>
   </g>
   <g id="line2d_20">
    <path clip-path="url(#p68aef70ff8)" d="M 96.958108 188.407287 
L 97.477711 202.365049 
L 97.997314 223.301692 
L 98.516917 202.365049 
L 99.03652 223.301692 
L 99.556123 209.34393 
L 100.075726 202.365049 
L 100.595329 167.470643 
L 101.634535 195.386168 
L 102.154138 181.428406 
L 102.673741 174.449524 
M 103.712946 188.407287 
L 104.232549 202.365049 
L 104.752152 195.386168 
M 105.791358 202.365049 
L 106.310961 167.470643 
L 106.830564 212.833371 
L 107.86977 174.449524 
L 108.389373 181.428406 
L 108.908976 195.386168 
L 109.428579 237.259455 
L 109.948182 160.491762 
L 110.467784 209.34393 
M 111.50699 209.34393 
L 112.026593 174.449524 
L 112.546196 181.428406 
L 113.065799 167.470643 
M 114.105005 188.407287 
L 114.624608 216.322811 
L 115.144211 167.470643 
L 115.663814 209.34393 
L 116.183417 223.301692 
L 116.70302 223.301692 
M 117.742226 188.407287 
L 118.261828 237.259455 
L 118.781431 188.407287 
L 119.301034 174.449524 
L 119.820637 216.322811 
L 120.34024 230.280573 
L 120.859843 223.301692 
L 121.379446 209.34393 
M 122.418652 188.407287 
L 122.938255 153.512881 
L 123.457858 181.428406 
L 123.977461 202.365049 
M 125.016667 198.875608 
L 125.53627 209.34393 
L 126.055872 160.491762 
L 126.575475 202.365049 
L 127.095078 181.428406 
M 128.134284 160.491762 
L 128.653887 181.428406 
L 129.17349 209.34393 
L 129.693093 216.322811 
L 130.212696 220.975399 
L 130.732299 209.34393 
L 131.251902 226.791133 
L 131.771505 174.449524 
L 132.291108 167.470643 
L 132.810711 209.34393 
L 133.330313 205.85449 
L 133.849916 181.428406 
L 134.369519 202.365049 
L 134.889122 209.34393 
M 135.928328 237.259455 
L 136.447931 198.875608 
L 136.967534 223.301692 
L 137.487137 223.301692 
L 138.00674 167.470643 
L 138.526343 198.875608 
L 139.045946 188.407287 
L 139.565549 174.449524 
L 140.085152 195.386168 
L 140.604755 146.534 
L 141.124357 181.428406 
L 141.64396 174.449524 
L 142.163563 223.301692 
L 142.683166 202.365049 
L 143.202769 174.449524 
M 144.241975 167.470643 
L 144.761578 223.301692 
L 145.281181 209.34393 
L 145.800784 202.365049 
L 146.320387 132.576238 
L 146.83999 202.365049 
L 147.359593 188.407287 
L 147.879196 195.386168 
L 148.398798 174.449524 
L 148.918401 181.428406 
L 149.957607 209.34393 
L 150.47721 216.322811 
M 151.516416 160.491762 
L 152.036019 181.428406 
L 152.555622 181.428406 
L 153.594828 209.34393 
L 154.114431 209.34393 
L 154.634034 230.280573 
L 155.153637 230.280573 
M 157.751651 216.322811 
L 158.271254 181.428406 
L 158.790857 202.365049 
L 159.31046 202.365049 
M 160.349666 167.470643 
L 160.869269 216.322811 
L 161.388872 174.449524 
L 161.908475 174.449524 
M 162.947681 223.301692 
L 163.986886 160.491762 
L 164.506489 209.34393 
M 165.545695 188.407287 
L 166.065298 188.407287 
L 166.584901 195.386168 
L 167.104504 160.491762 
L 167.624107 167.470643 
L 168.14371 230.280573 
L 168.663313 167.470643 
M 169.702519 209.34393 
L 170.222122 160.491762 
L 170.741725 174.449524 
L 171.261327 237.259455 
L 171.78093 160.491762 
M 172.820136 181.428406 
L 173.339739 167.470643 
L 173.859342 209.34393 
M 174.898548 223.301692 
L 175.418151 237.259455 
L 175.937754 209.34393 
M 176.97696 174.449524 
L 177.496563 167.470643 
L 178.016166 188.407287 
L 178.535769 167.470643 
L 179.055371 202.365049 
L 179.574974 209.34393 
L 180.094577 195.386168 
M 181.133783 202.365049 
L 181.653386 195.386168 
L 182.172989 216.322811 
L 182.692592 167.470643 
L 183.212195 209.34393 
L 183.731798 230.280573 
L 184.251401 202.365049 
L 184.771004 209.34393 
L 185.290607 223.301692 
L 185.81021 167.470643 
L 186.329812 216.322811 
L 186.849415 184.917846 
L 187.369018 181.428406 
L 187.888621 209.34393 
L 188.408224 202.365049 
L 188.927827 188.407287 
L 189.44743 209.34393 
L 189.967033 160.491762 
L 190.486636 167.470643 
L 191.525842 195.386168 
L 192.045445 216.322811 
L 192.565048 219.812252 
L 193.084651 202.365049 
L 193.604254 198.875608 
L 194.123856 209.34393 
L 194.643459 237.259455 
L 195.163062 181.428406 
L 195.682665 174.449524 
L 196.202268 209.34393 
L 196.721871 195.386168 
L 197.241474 237.259455 
L 197.761077 188.407287 
L 198.28068 237.259455 
L 198.800283 216.322811 
L 199.319886 223.301692 
L 199.839489 195.386168 
L 200.359092 188.407287 
L 200.878695 174.449524 
L 201.398298 181.428406 
L 201.9179 202.365049 
L 202.437503 230.280573 
L 202.957106 160.491762 
L 203.476709 209.34393 
L 203.996312 202.365049 
L 204.515915 188.407287 
L 205.035518 195.386168 
L 205.555121 223.301692 
L 206.074724 188.407287 
L 206.594327 167.470643 
L 207.11393 230.280573 
L 207.633533 216.322811 
L 208.153136 167.470643 
L 208.672739 237.259455 
L 209.192341 209.34393 
L 209.711944 191.896727 
L 210.231547 202.365049 
L 210.75115 118.618476 
M 211.790356 209.34393 
L 212.309959 223.301692 
L 212.829562 195.386168 
L 213.349165 216.322811 
M 214.388371 202.365049 
L 214.907974 202.365049 
L 215.427577 188.407287 
L 215.94718 181.428406 
L 216.466783 202.365049 
L 216.986385 188.407287 
L 217.505988 223.301692 
L 218.025591 209.34393 
L 219.064797 167.470643 
L 219.5844 167.470643 
L 220.104003 202.365049 
L 220.623606 216.322811 
L 221.143209 202.365049 
L 221.662812 230.280573 
L 222.182415 202.365049 
L 222.702018 223.301692 
M 223.741224 223.301692 
L 224.260826 174.449524 
L 224.780429 195.386168 
L 225.300032 181.428406 
M 226.339238 118.618476 
L 226.858841 195.386168 
L 227.378444 209.34393 
L 227.898047 202.365049 
L 228.41765 181.428406 
M 229.456856 223.301692 
L 229.976459 167.470643 
L 230.496062 202.365049 
L 231.015665 223.301692 
L 231.535268 230.280573 
L 232.05487 174.449524 
L 232.574473 146.534 
M 234.652885 160.491762 
L 235.172488 209.34393 
L 235.692091 118.618476 
L 236.211694 209.34393 
L 236.731297 209.34393 
L 237.2509 181.428406 
L 237.770503 195.386168 
L 238.290106 216.322811 
M 239.329311 198.875608 
L 239.848914 195.386168 
L 240.368517 209.34393 
L 240.88812 160.491762 
L 241.407723 209.34393 
L 241.927326 205.85449 
L 242.446929 230.280573 
L 242.966532 209.34393 
M 244.005738 184.917846 
L 244.525341 195.386168 
L 245.044944 209.34393 
L 245.564547 195.386168 
L 246.08415 216.322811 
M 247.123355 146.534 
L 247.642958 195.386168 
L 248.162561 181.428406 
L 248.682164 160.491762 
L 249.72137 237.259455 
L 250.240973 223.301692 
L 250.760576 188.407287 
L 251.799782 230.280573 
L 252.319385 202.365049 
L 252.838988 209.34393 
L 253.358591 202.365049 
L 253.878194 188.407287 
L 254.397797 181.428406 
L 254.917399 195.386168 
L 255.437002 167.470643 
L 255.956605 202.365049 
L 256.476208 209.34393 
L 256.995811 237.259455 
L 257.515414 209.34393 
L 258.035017 195.386168 
L 258.55462 188.407287 
L 259.074223 202.365049 
L 259.074223 202.365049 
" style="fill:none;stroke:#8c564b;stroke-linecap:square;stroke-width:1.2;"/>
   </g>
   <g id="line2d_21">
    <path clip-path="url(#p68aef70ff8)" d="M 95.918902 209.34393 
L 96.438505 226.791133 
L 96.958108 209.34393 
L 97.477711 223.301692 
L 97.997314 165.14435 
L 98.516917 209.34393 
L 99.03652 181.428406 
L 99.556123 198.875608 
M 101.114932 209.34393 
L 101.634535 181.428406 
M 103.193343 230.280573 
L 103.712946 181.428406 
L 104.232549 160.491762 
L 104.752152 188.407287 
L 105.271755 132.576238 
L 105.791358 198.875608 
M 106.830564 205.85449 
L 107.350167 188.407287 
L 107.86977 223.301692 
M 108.908976 163.981203 
L 109.428579 188.407287 
L 109.948182 181.428406 
L 110.467784 195.386168 
M 111.50699 174.449524 
L 112.026593 195.386168 
L 112.546196 209.34393 
L 113.065799 209.34393 
L 113.585402 216.322811 
L 114.105005 195.386168 
L 114.624608 195.386168 
L 115.144211 209.34393 
L 115.663814 193.059874 
L 116.183417 167.470643 
L 116.70302 237.259455 
L 117.742226 153.512881 
L 118.261828 195.386168 
M 119.301034 181.428406 
L 119.820637 167.470643 
L 120.34024 209.34393 
L 120.859843 153.512881 
L 121.379446 209.34393 
L 121.899049 223.301692 
L 122.418652 195.386168 
L 122.938255 174.449524 
L 123.457858 237.259455 
L 123.977461 188.407287 
L 124.497064 216.322811 
M 125.53627 188.407287 
L 126.055872 198.875608 
L 126.575475 230.280573 
L 127.614681 167.470643 
L 128.134284 160.491762 
L 128.653887 209.34393 
L 129.17349 184.917846 
L 129.693093 195.386168 
L 130.212696 188.407287 
M 131.771505 174.449524 
L 132.291108 209.34393 
L 132.810711 209.34393 
L 133.330313 195.386168 
L 133.849916 83.72407 
L 134.369519 188.407287 
L 134.889122 223.301692 
L 135.408725 177.938965 
M 136.447931 209.34393 
L 136.967534 195.386168 
L 137.487137 223.301692 
L 138.00674 202.365049 
L 138.526343 170.960084 
M 139.565549 188.407287 
L 140.085152 212.833371 
L 141.124357 160.491762 
M 142.683166 167.470643 
L 143.202769 209.34393 
L 143.722372 188.407287 
M 144.761578 205.85449 
L 145.281181 167.470643 
L 145.800784 167.470643 
L 146.320387 188.407287 
M 147.879196 202.365049 
L 148.398798 167.470643 
M 149.438004 202.365049 
L 149.957607 209.34393 
L 150.47721 202.365049 
L 150.996813 132.576238 
L 151.516416 223.301692 
L 152.036019 188.407287 
M 153.075225 223.301692 
L 153.594828 205.85449 
L 154.114431 209.34393 
L 155.153637 170.960084 
L 155.67324 209.34393 
L 156.192842 209.34393 
L 156.712445 188.407287 
M 158.790857 223.301692 
L 159.31046 223.301692 
L 159.830063 195.386168 
L 160.349666 195.386168 
L 160.869269 223.301692 
L 161.388872 230.280573 
L 161.908475 216.322811 
M 163.467284 205.85449 
L 163.986886 167.470643 
L 164.506489 216.322811 
L 165.026092 223.301692 
L 165.545695 209.34393 
M 167.104504 223.301692 
L 167.624107 167.470643 
M 168.663313 223.301692 
L 169.182916 167.470643 
L 169.702519 216.322811 
L 170.222122 160.491762 
L 170.741725 160.491762 
L 171.261327 167.470643 
L 171.78093 205.85449 
L 172.300533 188.407287 
L 173.339739 174.449524 
L 173.859342 188.407287 
L 174.378945 184.917846 
M 176.97696 181.428406 
L 177.496563 170.960084 
M 180.094577 202.365049 
L 180.61418 219.812252 
L 181.133783 223.301692 
L 181.653386 181.428406 
L 182.172989 230.280573 
L 182.692592 160.491762 
L 183.212195 191.896727 
L 183.731798 202.365049 
L 184.251401 209.34393 
L 184.771004 212.833371 
L 185.290607 174.449524 
M 186.329812 202.365049 
L 186.849415 167.470643 
L 187.369018 223.301692 
L 187.888621 188.407287 
L 188.408224 230.280573 
L 188.927827 195.386168 
L 189.44743 237.259455 
L 189.967033 209.34393 
L 190.486636 170.960084 
L 191.006239 226.791133 
L 191.525842 198.875608 
L 192.045445 216.322811 
L 192.565048 160.491762 
L 193.084651 160.491762 
L 193.604254 181.428406 
L 194.123856 209.34393 
L 194.643459 188.407287 
L 195.163062 216.322811 
L 195.682665 191.896727 
L 196.202268 209.34393 
L 196.721871 195.386168 
M 197.761077 174.449524 
L 198.28068 223.301692 
L 198.800283 167.470643 
L 199.319886 202.365049 
L 199.839489 160.491762 
L 200.359092 209.34393 
M 201.398298 223.301692 
L 201.9179 167.470643 
M 203.996312 202.365049 
L 204.515915 118.618476 
L 205.035518 209.34393 
L 205.555121 174.449524 
L 206.074724 181.428406 
L 206.594327 230.280573 
L 207.11393 209.34393 
L 207.633533 216.322811 
L 208.672739 202.365049 
L 209.192341 223.301692 
M 210.231547 188.407287 
L 210.75115 132.576238 
L 211.270753 188.407287 
M 213.349165 202.365049 
L 213.868768 202.365049 
L 214.388371 153.512881 
L 214.907974 209.34393 
L 215.427577 83.72407 
L 215.94718 216.322811 
M 218.545194 195.386168 
L 219.064797 237.259455 
L 219.5844 181.428406 
L 220.104003 174.449524 
M 221.143209 188.407287 
L 221.662812 167.470643 
L 222.182415 160.491762 
L 223.221621 202.365049 
L 223.741224 153.512881 
L 224.260826 209.34393 
M 225.300032 223.301692 
L 225.819635 181.428406 
L 226.339238 195.386168 
L 226.858841 181.428406 
L 227.378444 230.280573 
L 227.898047 174.449524 
M 230.496062 167.470643 
L 231.015665 209.34393 
L 231.535268 188.407287 
L 232.05487 198.875608 
L 232.574473 202.365049 
L 233.094076 188.407287 
M 234.133282 209.34393 
L 234.652885 223.301692 
L 235.172488 209.34393 
L 235.692091 209.34393 
L 236.211694 216.322811 
L 237.2509 195.386168 
L 237.770503 202.365049 
L 238.290106 216.322811 
L 238.809709 167.470643 
L 239.329311 209.34393 
L 239.848914 195.386168 
L 240.368517 223.301692 
L 240.88812 223.301692 
L 241.407723 209.34393 
L 241.927326 188.407287 
L 242.446929 237.259455 
L 243.486135 167.470643 
L 244.005738 158.165469 
L 244.525341 209.34393 
L 245.044944 216.322811 
L 245.564547 188.407287 
L 246.08415 223.301692 
L 246.603753 181.428406 
L 247.642958 195.386168 
L 248.162561 184.917846 
L 248.682164 188.407287 
L 249.201767 202.365049 
L 249.72137 230.280573 
L 250.240973 111.639594 
L 250.760576 216.322811 
L 251.280179 167.470643 
L 251.799782 202.365049 
L 252.319385 174.449524 
L 252.838988 188.407287 
L 253.358591 223.301692 
M 254.397797 209.34393 
L 254.917399 177.938965 
L 255.437002 181.428406 
L 255.956605 216.322811 
L 256.476208 223.301692 
L 256.995811 202.365049 
L 257.515414 216.322811 
L 258.035017 209.34393 
L 258.55462 160.491762 
L 259.074223 202.365049 
L 259.593826 216.322811 
M 260.633032 216.322811 
L 261.152635 223.301692 
M 262.19184 202.365049 
L 262.711443 195.386168 
M 263.750649 209.34393 
L 264.270252 223.301692 
L 264.789855 188.407287 
L 265.309458 188.407287 
L 265.829061 195.386168 
L 266.348664 216.322811 
M 267.38787 209.34393 
L 267.907473 226.791133 
L 268.427076 188.407287 
L 268.946679 216.322811 
M 269.985884 195.386168 
L 270.505487 202.365049 
L 271.02509 223.301692 
L 271.544693 174.449524 
L 272.064296 160.491762 
L 272.583899 181.428406 
L 273.103502 174.449524 
L 273.623105 209.34393 
L 274.142708 209.34393 
L 274.662311 223.301692 
L 275.181914 202.365049 
L 275.701517 216.322811 
M 276.740723 202.365049 
L 277.260325 195.386168 
M 278.299531 202.365049 
L 278.819134 195.386168 
L 279.338737 163.981203 
L 279.85834 160.491762 
L 280.377943 195.386168 
L 280.897546 188.407287 
L 281.417149 209.34393 
L 281.936752 181.428406 
L 282.456355 202.365049 
L 282.975958 181.428406 
L 283.495561 153.512881 
L 284.015164 209.34393 
L 285.054369 209.34393 
L 285.573972 195.386168 
L 286.093575 209.34393 
L 286.613178 167.470643 
L 287.132781 167.470643 
L 287.652384 202.365049 
L 288.171987 122.107916 
M 289.730796 188.407287 
L 290.250399 181.428406 
L 290.770002 181.428406 
L 291.289605 216.322811 
L 291.809208 202.365049 
L 292.328811 209.34393 
L 292.848413 167.470643 
L 293.368016 230.280573 
L 293.887619 160.491762 
L 294.407222 209.34393 
L 294.926825 226.791133 
L 295.446428 202.365049 
L 295.966031 209.34393 
L 296.485634 181.428406 
L 297.005237 55.808545 
L 297.52484 209.34393 
L 298.044443 216.322811 
L 298.564046 184.917846 
L 299.083649 160.491762 
L 299.603252 211.670224 
L 300.122854 209.34393 
M 301.681663 226.791133 
L 302.201266 167.470643 
L 302.720869 188.407287 
L 303.240472 216.322811 
L 303.760075 167.470643 
L 304.279678 195.386168 
M 305.318884 209.34393 
L 305.838487 167.470643 
L 306.35809 223.301692 
L 306.877693 216.322811 
M 307.916898 209.34393 
L 308.436501 146.534 
L 308.956104 111.639594 
L 309.475707 177.938965 
L 309.99531 226.791133 
L 310.514913 160.491762 
L 311.554119 202.365049 
L 312.073722 209.34393 
L 312.593325 160.491762 
L 313.112928 223.301692 
L 313.632531 167.470643 
M 314.671737 188.407287 
L 315.191339 230.280573 
L 315.710942 202.365049 
L 316.230545 230.280573 
L 316.750148 181.428406 
L 317.269751 216.322811 
M 318.82856 202.365049 
L 319.348163 216.322811 
M 320.387369 188.407287 
L 320.906972 223.301692 
L 321.426575 174.449524 
L 321.946178 202.365049 
L 322.465781 167.470643 
L 322.985383 170.960084 
M 324.024589 174.449524 
L 324.544192 195.386168 
L 325.063795 198.875608 
M 327.142207 223.301692 
L 327.66181 188.407287 
M 329.220619 223.301692 
L 329.740222 188.407287 
L 330.259825 202.365049 
M 333.377442 209.34393 
L 333.897045 181.428406 
L 334.416648 223.301692 
L 334.936251 209.34393 
L 335.455854 223.301692 
M 338.573471 188.407287 
L 339.093074 188.407287 
L 339.612677 167.470643 
L 340.13228 188.407287 
L 340.651883 223.301692 
M 341.691089 223.301692 
L 342.210692 230.280573 
L 342.730295 202.365049 
L 343.249898 181.428406 
L 343.769501 209.34393 
L 344.289104 153.512881 
L 344.808707 202.365049 
L 345.32831 202.365049 
L 345.847912 181.428406 
L 346.367515 212.833371 
L 346.887118 160.491762 
M 347.926324 216.322811 
L 348.445927 223.301692 
M 349.485133 195.386168 
L 350.004736 160.491762 
L 350.524339 202.365049 
L 351.043942 223.301692 
L 351.563545 191.896727 
L 352.083148 230.280573 
L 352.602751 167.470643 
L 353.122353 209.34393 
L 353.641956 237.259455 
L 354.161559 181.428406 
L 354.681162 216.322811 
L 355.200765 202.365049 
L 355.720368 174.449524 
L 356.239971 223.301692 
M 357.279177 209.34393 
L 357.79878 188.407287 
L 358.318383 202.365049 
L 358.837986 195.386168 
M 359.877192 160.491762 
L 360.396795 195.386168 
L 360.916397 202.365049 
L 361.955603 223.301692 
L 362.475206 237.259455 
L 362.994809 188.407287 
L 363.514412 230.280573 
L 364.034015 209.34393 
L 364.553618 197.712462 
L 365.073221 209.34393 
L 365.592824 181.428406 
M 367.151633 230.280573 
L 367.671236 188.407287 
M 368.710441 209.34393 
L 369.230044 209.34393 
L 369.749647 167.470643 
L 370.26925 195.386168 
M 371.308456 181.428406 
L 371.828059 181.428406 
L 372.347662 209.34393 
L 372.867265 205.85449 
L 373.386868 209.34393 
L 373.906471 209.34393 
L 374.426074 167.470643 
L 374.945677 223.301692 
L 375.46528 209.34393 
L 376.504485 163.981203 
L 377.024088 219.812252 
L 377.543691 202.365049 
M 378.582897 195.386168 
L 379.1025 195.386168 
L 379.622103 209.34393 
L 380.141706 188.407287 
L 380.661309 150.023441 
L 381.180912 195.386168 
L 381.700515 174.449524 
L 382.220118 198.875608 
L 382.739721 167.470643 
L 383.259324 205.85449 
L 383.778926 188.407287 
M 384.818132 209.34393 
L 385.337735 177.938965 
L 385.857338 209.34393 
L 386.376941 177.938965 
L 386.896544 219.812252 
L 387.416147 191.896727 
L 387.93575 202.365049 
L 388.455353 170.960084 
M 389.494559 216.322811 
L 390.014162 223.301692 
L 390.533765 188.407287 
L 391.053367 174.449524 
L 391.57297 209.34393 
L 392.092573 195.386168 
L 392.612176 174.449524 
L 393.131779 202.365049 
L 393.651382 209.34393 
L 394.170985 209.34393 
L 394.690588 160.491762 
L 395.210191 198.875608 
L 395.729794 174.449524 
L 396.249397 237.259455 
L 396.769 223.301692 
L 397.808206 132.576238 
L 398.327809 195.386168 
L 398.847411 188.407287 
M 403.004235 181.428406 
L 403.523838 153.512881 
L 404.043441 230.280573 
L 404.563044 209.34393 
L 405.082647 202.365049 
M 406.121852 202.365049 
" style="fill:none;stroke:#e377c2;stroke-linecap:square;stroke-width:1.2;"/>
   </g>
   <g id="patch_3">
    <path d="M 80.408755 246.332 
L 80.408755 46.736 
" style="fill:none;stroke:#000000;stroke-linecap:square;stroke-linejoin:miter;"/>
   </g>
   <g id="patch_4">
    <path d="M 421.632 246.332 
L 421.632 46.736 
" style="fill:none;stroke:#000000;stroke-linecap:square;stroke-linejoin:miter;"/>
   </g>
   <g id="patch_5">
    <path d="M 80.408755 246.332 
L 421.632 246.332 
" style="fill:none;stroke:#000000;stroke-linecap:square;stroke-linejoin:miter;"/>
   </g>
   <g id="patch_6">
    <path d="M 80.408755 46.736 
L 421.632 46.736 
" style="fill:none;stroke:#000000;stroke-linecap:square;stroke-linejoin:miter;"/>
   </g>
   <g id="text_15">
    <!-- Sample #2 - 10% of 1.6 million records -->
    <g transform="translate(156.785877 40.736)scale(0.096 -0.096)">
     <defs>
      <path d="M 3425 4513 
L 3425 3897 
Q 3066 4069 2747 4153 
Q 2428 4238 2131 4238 
Q 1616 4238 1336 4038 
Q 1056 3838 1056 3469 
Q 1056 3159 1242 3001 
Q 1428 2844 1947 2747 
L 2328 2669 
Q 3034 2534 3370 2195 
Q 3706 1856 3706 1288 
Q 3706 609 3251 259 
Q 2797 -91 1919 -91 
Q 1588 -91 1214 -16 
Q 841 59 441 206 
L 441 856 
Q 825 641 1194 531 
Q 1563 422 1919 422 
Q 2459 422 2753 634 
Q 3047 847 3047 1241 
Q 3047 1584 2836 1778 
Q 2625 1972 2144 2069 
L 1759 2144 
Q 1053 2284 737 2584 
Q 422 2884 422 3419 
Q 422 4038 858 4394 
Q 1294 4750 2059 4750 
Q 2388 4750 2728 4690 
Q 3069 4631 3425 4513 
z
" id="DejaVuSans-53" transform="scale(0.015625)"/>
      <path d="M 603 4863 
L 1178 4863 
L 1178 0 
L 603 0 
L 603 4863 
z
" id="DejaVuSans-6c" transform="scale(0.015625)"/>
      <path d="M 3272 2816 
L 2363 2816 
L 2100 1772 
L 3016 1772 
L 3272 2816 
z
M 2803 4594 
L 2478 3297 
L 3391 3297 
L 3719 4594 
L 4219 4594 
L 3897 3297 
L 4872 3297 
L 4872 2816 
L 3775 2816 
L 3519 1772 
L 4513 1772 
L 4513 1294 
L 3397 1294 
L 3072 0 
L 2572 0 
L 2894 1294 
L 1978 1294 
L 1656 0 
L 1153 0 
L 1478 1294 
L 494 1294 
L 494 1772 
L 1594 1772 
L 1856 2816 
L 850 2816 
L 850 3297 
L 1978 3297 
L 2297 4594 
L 2803 4594 
z
" id="DejaVuSans-23" transform="scale(0.015625)"/>
      <path d="M 4653 2053 
Q 4381 2053 4226 1822 
Q 4072 1591 4072 1178 
Q 4072 772 4226 539 
Q 4381 306 4653 306 
Q 4919 306 5073 539 
Q 5228 772 5228 1178 
Q 5228 1588 5073 1820 
Q 4919 2053 4653 2053 
z
M 4653 2450 
Q 5147 2450 5437 2106 
Q 5728 1763 5728 1178 
Q 5728 594 5436 251 
Q 5144 -91 4653 -91 
Q 4153 -91 3862 251 
Q 3572 594 3572 1178 
Q 3572 1766 3864 2108 
Q 4156 2450 4653 2450 
z
M 1428 4353 
Q 1159 4353 1004 4120 
Q 850 3888 850 3481 
Q 850 3069 1003 2837 
Q 1156 2606 1428 2606 
Q 1700 2606 1854 2837 
Q 2009 3069 2009 3481 
Q 2009 3884 1853 4118 
Q 1697 4353 1428 4353 
z
M 4250 4750 
L 4750 4750 
L 1831 -91 
L 1331 -91 
L 4250 4750 
z
M 1428 4750 
Q 1922 4750 2215 4408 
Q 2509 4066 2509 3481 
Q 2509 2891 2217 2550 
Q 1925 2209 1428 2209 
Q 931 2209 642 2551 
Q 353 2894 353 3481 
Q 353 4063 643 4406 
Q 934 4750 1428 4750 
z
" id="DejaVuSans-25" transform="scale(0.015625)"/>
      <path d="M 1959 3097 
Q 1497 3097 1228 2736 
Q 959 2375 959 1747 
Q 959 1119 1226 758 
Q 1494 397 1959 397 
Q 2419 397 2687 759 
Q 2956 1122 2956 1747 
Q 2956 2369 2687 2733 
Q 2419 3097 1959 3097 
z
M 1959 3584 
Q 2709 3584 3137 3096 
Q 3566 2609 3566 1747 
Q 3566 888 3137 398 
Q 2709 -91 1959 -91 
Q 1206 -91 779 398 
Q 353 888 353 1747 
Q 353 2609 779 3096 
Q 1206 3584 1959 3584 
z
" id="DejaVuSans-6f" transform="scale(0.015625)"/>
      <path d="M 2375 4863 
L 2375 4384 
L 1825 4384 
Q 1516 4384 1395 4259 
Q 1275 4134 1275 3809 
L 1275 3500 
L 2222 3500 
L 2222 3053 
L 1275 3053 
L 1275 0 
L 697 0 
L 697 3053 
L 147 3053 
L 147 3500 
L 697 3500 
L 697 3744 
Q 697 4328 969 4595 
Q 1241 4863 1831 4863 
L 2375 4863 
z
" id="DejaVuSans-66" transform="scale(0.015625)"/>
      <path d="M 684 794 
L 1344 794 
L 1344 0 
L 684 0 
L 684 794 
z
" id="DejaVuSans-2e" transform="scale(0.015625)"/>
      <path d="M 3513 2113 
L 3513 0 
L 2938 0 
L 2938 2094 
Q 2938 2591 2744 2837 
Q 2550 3084 2163 3084 
Q 1697 3084 1428 2787 
Q 1159 2491 1159 1978 
L 1159 0 
L 581 0 
L 581 3500 
L 1159 3500 
L 1159 2956 
Q 1366 3272 1645 3428 
Q 1925 3584 2291 3584 
Q 2894 3584 3203 3211 
Q 3513 2838 3513 2113 
z
" id="DejaVuSans-6e" transform="scale(0.015625)"/>
      <path d="M 2631 2963 
Q 2534 3019 2420 3045 
Q 2306 3072 2169 3072 
Q 1681 3072 1420 2755 
Q 1159 2438 1159 1844 
L 1159 0 
L 581 0 
L 581 3500 
L 1159 3500 
L 1159 2956 
Q 1341 3275 1631 3429 
Q 1922 3584 2338 3584 
Q 2397 3584 2469 3576 
Q 2541 3569 2628 3553 
L 2631 2963 
z
" id="DejaVuSans-72" transform="scale(0.015625)"/>
      <path d="M 3122 3366 
L 3122 2828 
Q 2878 2963 2633 3030 
Q 2388 3097 2138 3097 
Q 1578 3097 1268 2742 
Q 959 2388 959 1747 
Q 959 1106 1268 751 
Q 1578 397 2138 397 
Q 2388 397 2633 464 
Q 2878 531 3122 666 
L 3122 134 
Q 2881 22 2623 -34 
Q 2366 -91 2075 -91 
Q 1284 -91 818 406 
Q 353 903 353 1747 
Q 353 2603 823 3093 
Q 1294 3584 2113 3584 
Q 2378 3584 2631 3529 
Q 2884 3475 3122 3366 
z
" id="DejaVuSans-63" transform="scale(0.015625)"/>
      <path d="M 2906 2969 
L 2906 4863 
L 3481 4863 
L 3481 0 
L 2906 0 
L 2906 525 
Q 2725 213 2448 61 
Q 2172 -91 1784 -91 
Q 1150 -91 751 415 
Q 353 922 353 1747 
Q 353 2572 751 3078 
Q 1150 3584 1784 3584 
Q 2172 3584 2448 3432 
Q 2725 3281 2906 2969 
z
M 947 1747 
Q 947 1113 1208 752 
Q 1469 391 1925 391 
Q 2381 391 2643 752 
Q 2906 1113 2906 1747 
Q 2906 2381 2643 2742 
Q 2381 3103 1925 3103 
Q 1469 3103 1208 2742 
Q 947 2381 947 1747 
z
" id="DejaVuSans-64" transform="scale(0.015625)"/>
     </defs>
     <use xlink:href="#DejaVuSans-53"/>
     <use x="63.476562" xlink:href="#DejaVuSans-61"/>
     <use x="124.755859" xlink:href="#DejaVuSans-6d"/>
     <use x="222.167969" xlink:href="#DejaVuSans-70"/>
     <use x="285.644531" xlink:href="#DejaVuSans-6c"/>
     <use x="313.427734" xlink:href="#DejaVuSans-65"/>
     <use x="374.951172" xlink:href="#DejaVuSans-20"/>
     <use x="406.738281" xlink:href="#DejaVuSans-23"/>
     <use x="490.527344" xlink:href="#DejaVuSans-32"/>
     <use x="554.150391" xlink:href="#DejaVuSans-20"/>
     <use x="585.9375" xlink:href="#DejaVuSans-2d"/>
     <use x="622.021484" xlink:href="#DejaVuSans-20"/>
     <use x="653.808594" xlink:href="#DejaVuSans-31"/>
     <use x="717.431641" xlink:href="#DejaVuSans-30"/>
     <use x="781.054688" xlink:href="#DejaVuSans-25"/>
     <use x="876.074219" xlink:href="#DejaVuSans-20"/>
     <use x="907.861328" xlink:href="#DejaVuSans-6f"/>
     <use x="969.042969" xlink:href="#DejaVuSans-66"/>
     <use x="1004.248047" xlink:href="#DejaVuSans-20"/>
     <use x="1036.035156" xlink:href="#DejaVuSans-31"/>
     <use x="1099.658203" xlink:href="#DejaVuSans-2e"/>
     <use x="1131.445312" xlink:href="#DejaVuSans-36"/>
     <use x="1195.068359" xlink:href="#DejaVuSans-20"/>
     <use x="1226.855469" xlink:href="#DejaVuSans-6d"/>
     <use x="1324.267578" xlink:href="#DejaVuSans-69"/>
     <use x="1352.050781" xlink:href="#DejaVuSans-6c"/>
     <use x="1379.833984" xlink:href="#DejaVuSans-6c"/>
     <use x="1407.617188" xlink:href="#DejaVuSans-69"/>
     <use x="1435.400391" xlink:href="#DejaVuSans-6f"/>
     <use x="1496.582031" xlink:href="#DejaVuSans-6e"/>
     <use x="1559.960938" xlink:href="#DejaVuSans-20"/>
     <use x="1591.748047" xlink:href="#DejaVuSans-72"/>
     <use x="1630.611328" xlink:href="#DejaVuSans-65"/>
     <use x="1692.134766" xlink:href="#DejaVuSans-63"/>
     <use x="1747.115234" xlink:href="#DejaVuSans-6f"/>
     <use x="1808.296875" xlink:href="#DejaVuSans-72"/>
     <use x="1847.660156" xlink:href="#DejaVuSans-64"/>
     <use x="1911.136719" xlink:href="#DejaVuSans-73"/>
    </g>
   </g>
   <g id="legend_1">
    <g id="patch_7">
     <path d="M 84.608755 113.184125 
L 162.090317 113.184125 
Q 163.290317 113.184125 163.290317 111.984125 
L 163.290317 50.936 
Q 163.290317 49.736 162.090317 49.736 
L 84.608755 49.736 
Q 83.408755 49.736 83.408755 50.936 
L 83.408755 111.984125 
Q 83.408755 113.184125 84.608755 113.184125 
z
" style="fill:#ffffff;opacity:0.8;stroke:#cccccc;stroke-linejoin:miter;stroke-width:0.8;"/>
    </g>
    <g id="line2d_22">
     <path d="M 85.808755 54.595063 
L 97.808755 54.595063 
" style="fill:none;stroke:#1f77b4;stroke-linecap:square;stroke-width:1.2;"/>
    </g>
    <g id="line2d_23"/>
    <g id="text_16">
     <!-- Cape Canaveral, FL -->
     <g transform="translate(102.608755 56.695063)scale(0.06 -0.06)">
      <defs>
       <path d="M 4122 4306 
L 4122 3641 
Q 3803 3938 3442 4084 
Q 3081 4231 2675 4231 
Q 1875 4231 1450 3742 
Q 1025 3253 1025 2328 
Q 1025 1406 1450 917 
Q 1875 428 2675 428 
Q 3081 428 3442 575 
Q 3803 722 4122 1019 
L 4122 359 
Q 3791 134 3420 21 
Q 3050 -91 2638 -91 
Q 1578 -91 968 557 
Q 359 1206 359 2328 
Q 359 3453 968 4101 
Q 1578 4750 2638 4750 
Q 3056 4750 3426 4639 
Q 3797 4528 4122 4306 
z
" id="DejaVuSans-43" transform="scale(0.015625)"/>
       <path d="M 191 3500 
L 800 3500 
L 1894 563 
L 2988 3500 
L 3597 3500 
L 2284 0 
L 1503 0 
L 191 3500 
z
" id="DejaVuSans-76" transform="scale(0.015625)"/>
      </defs>
      <use xlink:href="#DejaVuSans-43"/>
      <use x="69.824219" xlink:href="#DejaVuSans-61"/>
      <use x="131.103516" xlink:href="#DejaVuSans-70"/>
      <use x="194.580078" xlink:href="#DejaVuSans-65"/>
      <use x="256.103516" xlink:href="#DejaVuSans-20"/>
      <use x="287.890625" xlink:href="#DejaVuSans-43"/>
      <use x="357.714844" xlink:href="#DejaVuSans-61"/>
      <use x="418.994141" xlink:href="#DejaVuSans-6e"/>
      <use x="482.373047" xlink:href="#DejaVuSans-61"/>
      <use x="543.652344" xlink:href="#DejaVuSans-76"/>
      <use x="602.832031" xlink:href="#DejaVuSans-65"/>
      <use x="664.355469" xlink:href="#DejaVuSans-72"/>
      <use x="705.46875" xlink:href="#DejaVuSans-61"/>
      <use x="766.748047" xlink:href="#DejaVuSans-6c"/>
      <use x="794.53125" xlink:href="#DejaVuSans-2c"/>
      <use x="826.318359" xlink:href="#DejaVuSans-20"/>
      <use x="858.105469" xlink:href="#DejaVuSans-46"/>
      <use x="915.625" xlink:href="#DejaVuSans-4c"/>
     </g>
    </g>
    <g id="line2d_24">
     <path d="M 85.808755 63.401937 
L 97.808755 63.401937 
" style="fill:none;stroke:#ff7f0e;stroke-linecap:square;stroke-width:1.2;"/>
    </g>
    <g id="line2d_25"/>
    <g id="text_17">
     <!-- Daytona, FL -->
     <g transform="translate(102.608755 65.501937)scale(0.06 -0.06)">
      <defs>
       <path d="M 1259 4147 
L 1259 519 
L 2022 519 
Q 2988 519 3436 956 
Q 3884 1394 3884 2338 
Q 3884 3275 3436 3711 
Q 2988 4147 2022 4147 
L 1259 4147 
z
M 628 4666 
L 1925 4666 
Q 3281 4666 3915 4102 
Q 4550 3538 4550 2338 
Q 4550 1131 3912 565 
Q 3275 0 1925 0 
L 628 0 
L 628 4666 
z
" id="DejaVuSans-44" transform="scale(0.015625)"/>
       <path d="M 2059 -325 
Q 1816 -950 1584 -1140 
Q 1353 -1331 966 -1331 
L 506 -1331 
L 506 -850 
L 844 -850 
Q 1081 -850 1212 -737 
Q 1344 -625 1503 -206 
L 1606 56 
L 191 3500 
L 800 3500 
L 1894 763 
L 2988 3500 
L 3597 3500 
L 2059 -325 
z
" id="DejaVuSans-79" transform="scale(0.015625)"/>
      </defs>
      <use xlink:href="#DejaVuSans-44"/>
      <use x="77.001953" xlink:href="#DejaVuSans-61"/>
      <use x="138.28125" xlink:href="#DejaVuSans-79"/>
      <use x="197.460938" xlink:href="#DejaVuSans-74"/>
      <use x="236.669922" xlink:href="#DejaVuSans-6f"/>
      <use x="297.851562" xlink:href="#DejaVuSans-6e"/>
      <use x="361.230469" xlink:href="#DejaVuSans-61"/>
      <use x="422.509766" xlink:href="#DejaVuSans-2c"/>
      <use x="454.296875" xlink:href="#DejaVuSans-20"/>
      <use x="486.083984" xlink:href="#DejaVuSans-46"/>
      <use x="543.603516" xlink:href="#DejaVuSans-4c"/>
     </g>
    </g>
    <g id="line2d_26">
     <path d="M 85.808755 72.208813 
L 97.808755 72.208813 
" style="fill:none;stroke:#2ca02c;stroke-linecap:square;stroke-width:1.2;"/>
    </g>
    <g id="line2d_27"/>
    <g id="text_18">
     <!-- Jacksonville, FL -->
     <g transform="translate(102.608755 74.308813)scale(0.06 -0.06)">
      <defs>
       <path d="M 628 4666 
L 1259 4666 
L 1259 325 
Q 1259 -519 939 -900 
Q 619 -1281 -91 -1281 
L -331 -1281 
L -331 -750 
L -134 -750 
Q 284 -750 456 -515 
Q 628 -281 628 325 
L 628 4666 
z
" id="DejaVuSans-4a" transform="scale(0.015625)"/>
       <path d="M 581 4863 
L 1159 4863 
L 1159 1991 
L 2875 3500 
L 3609 3500 
L 1753 1863 
L 3688 0 
L 2938 0 
L 1159 1709 
L 1159 0 
L 581 0 
L 581 4863 
z
" id="DejaVuSans-6b" transform="scale(0.015625)"/>
      </defs>
      <use xlink:href="#DejaVuSans-4a"/>
      <use x="29.492188" xlink:href="#DejaVuSans-61"/>
      <use x="90.771484" xlink:href="#DejaVuSans-63"/>
      <use x="145.751953" xlink:href="#DejaVuSans-6b"/>
      <use x="203.662109" xlink:href="#DejaVuSans-73"/>
      <use x="255.761719" xlink:href="#DejaVuSans-6f"/>
      <use x="316.943359" xlink:href="#DejaVuSans-6e"/>
      <use x="380.322266" xlink:href="#DejaVuSans-76"/>
      <use x="439.501953" xlink:href="#DejaVuSans-69"/>
      <use x="467.285156" xlink:href="#DejaVuSans-6c"/>
      <use x="495.068359" xlink:href="#DejaVuSans-6c"/>
      <use x="522.851562" xlink:href="#DejaVuSans-65"/>
      <use x="584.375" xlink:href="#DejaVuSans-2c"/>
      <use x="616.162109" xlink:href="#DejaVuSans-20"/>
      <use x="647.949219" xlink:href="#DejaVuSans-46"/>
      <use x="705.46875" xlink:href="#DejaVuSans-4c"/>
     </g>
    </g>
    <g id="line2d_28">
     <path d="M 85.808755 81.015688 
L 97.808755 81.015688 
" style="fill:none;stroke:#d62728;stroke-linecap:square;stroke-width:1.2;"/>
    </g>
    <g id="line2d_29"/>
    <g id="text_19">
     <!-- Panama City, FL -->
     <g transform="translate(102.608755 83.115688)scale(0.06 -0.06)">
      <defs>
       <path d="M 1259 4147 
L 1259 2394 
L 2053 2394 
Q 2494 2394 2734 2622 
Q 2975 2850 2975 3272 
Q 2975 3691 2734 3919 
Q 2494 4147 2053 4147 
L 1259 4147 
z
M 628 4666 
L 2053 4666 
Q 2838 4666 3239 4311 
Q 3641 3956 3641 3272 
Q 3641 2581 3239 2228 
Q 2838 1875 2053 1875 
L 1259 1875 
L 1259 0 
L 628 0 
L 628 4666 
z
" id="DejaVuSans-50" transform="scale(0.015625)"/>
      </defs>
      <use xlink:href="#DejaVuSans-50"/>
      <use x="55.802734" xlink:href="#DejaVuSans-61"/>
      <use x="117.082031" xlink:href="#DejaVuSans-6e"/>
      <use x="180.460938" xlink:href="#DejaVuSans-61"/>
      <use x="241.740234" xlink:href="#DejaVuSans-6d"/>
      <use x="339.152344" xlink:href="#DejaVuSans-61"/>
      <use x="400.431641" xlink:href="#DejaVuSans-20"/>
      <use x="432.21875" xlink:href="#DejaVuSans-43"/>
      <use x="502.042969" xlink:href="#DejaVuSans-69"/>
      <use x="529.826172" xlink:href="#DejaVuSans-74"/>
      <use x="569.035156" xlink:href="#DejaVuSans-79"/>
      <use x="628.214844" xlink:href="#DejaVuSans-2c"/>
      <use x="660.001953" xlink:href="#DejaVuSans-20"/>
      <use x="691.789062" xlink:href="#DejaVuSans-46"/>
      <use x="749.308594" xlink:href="#DejaVuSans-4c"/>
     </g>
    </g>
    <g id="line2d_30">
     <path d="M 85.808755 89.822563 
L 97.808755 89.822563 
" style="fill:none;stroke:#9467bd;stroke-linecap:square;stroke-width:1.2;"/>
    </g>
    <g id="line2d_31"/>
    <g id="text_20">
     <!-- Pensacola, FL -->
     <g transform="translate(102.608755 91.922563)scale(0.06 -0.06)">
      <use xlink:href="#DejaVuSans-50"/>
      <use x="56.677734" xlink:href="#DejaVuSans-65"/>
      <use x="118.201172" xlink:href="#DejaVuSans-6e"/>
      <use x="181.580078" xlink:href="#DejaVuSans-73"/>
      <use x="233.679688" xlink:href="#DejaVuSans-61"/>
      <use x="294.958984" xlink:href="#DejaVuSans-63"/>
      <use x="349.939453" xlink:href="#DejaVuSans-6f"/>
      <use x="411.121094" xlink:href="#DejaVuSans-6c"/>
      <use x="438.904297" xlink:href="#DejaVuSans-61"/>
      <use x="500.183594" xlink:href="#DejaVuSans-2c"/>
      <use x="531.970703" xlink:href="#DejaVuSans-20"/>
      <use x="563.757812" xlink:href="#DejaVuSans-46"/>
      <use x="621.277344" xlink:href="#DejaVuSans-4c"/>
     </g>
    </g>
    <g id="line2d_32">
     <path d="M 85.808755 98.629438 
L 97.808755 98.629438 
" style="fill:none;stroke:#8c564b;stroke-linecap:square;stroke-width:1.2;"/>
    </g>
    <g id="line2d_33"/>
    <g id="text_21">
     <!-- Tallahassee, FL -->
     <g transform="translate(102.608755 100.729438)scale(0.06 -0.06)">
      <defs>
       <path d="M 3513 2113 
L 3513 0 
L 2938 0 
L 2938 2094 
Q 2938 2591 2744 2837 
Q 2550 3084 2163 3084 
Q 1697 3084 1428 2787 
Q 1159 2491 1159 1978 
L 1159 0 
L 581 0 
L 581 4863 
L 1159 4863 
L 1159 2956 
Q 1366 3272 1645 3428 
Q 1925 3584 2291 3584 
Q 2894 3584 3203 3211 
Q 3513 2838 3513 2113 
z
" id="DejaVuSans-68" transform="scale(0.015625)"/>
      </defs>
      <use xlink:href="#DejaVuSans-54"/>
      <use x="44.583984" xlink:href="#DejaVuSans-61"/>
      <use x="105.863281" xlink:href="#DejaVuSans-6c"/>
      <use x="133.646484" xlink:href="#DejaVuSans-6c"/>
      <use x="161.429688" xlink:href="#DejaVuSans-61"/>
      <use x="222.708984" xlink:href="#DejaVuSans-68"/>
      <use x="286.087891" xlink:href="#DejaVuSans-61"/>
      <use x="347.367188" xlink:href="#DejaVuSans-73"/>
      <use x="399.466797" xlink:href="#DejaVuSans-73"/>
      <use x="451.566406" xlink:href="#DejaVuSans-65"/>
      <use x="513.089844" xlink:href="#DejaVuSans-65"/>
      <use x="574.613281" xlink:href="#DejaVuSans-2c"/>
      <use x="606.400391" xlink:href="#DejaVuSans-20"/>
      <use x="638.1875" xlink:href="#DejaVuSans-46"/>
      <use x="695.707031" xlink:href="#DejaVuSans-4c"/>
     </g>
    </g>
    <g id="line2d_34">
     <path d="M 85.808755 107.436313 
L 97.808755 107.436313 
" style="fill:none;stroke:#e377c2;stroke-linecap:square;stroke-width:1.2;"/>
    </g>
    <g id="line2d_35"/>
    <g id="text_22">
     <!-- Tampa, FL -->
     <g transform="translate(102.608755 109.536313)scale(0.06 -0.06)">
      <use xlink:href="#DejaVuSans-54"/>
      <use x="44.583984" xlink:href="#DejaVuSans-61"/>
      <use x="105.863281" xlink:href="#DejaVuSans-6d"/>
      <use x="203.275391" xlink:href="#DejaVuSans-70"/>
      <use x="266.751953" xlink:href="#DejaVuSans-61"/>
      <use x="328.03125" xlink:href="#DejaVuSans-2c"/>
      <use x="359.818359" xlink:href="#DejaVuSans-20"/>
      <use x="391.605469" xlink:href="#DejaVuSans-46"/>
      <use x="449.125" xlink:href="#DejaVuSans-4c"/>
     </g>
    </g>
   </g>
  </g>
  <g id="text_23">
   <!-- Previous 72 hours, average wind by site -->
   <g transform="translate(100.6542 14.5134)scale(0.1152 -0.1152)">
    <defs>
     <path d="M 544 1381 
L 544 3500 
L 1119 3500 
L 1119 1403 
Q 1119 906 1312 657 
Q 1506 409 1894 409 
Q 2359 409 2629 706 
Q 2900 1003 2900 1516 
L 2900 3500 
L 3475 3500 
L 3475 0 
L 2900 0 
L 2900 538 
Q 2691 219 2414 64 
Q 2138 -91 1772 -91 
Q 1169 -91 856 284 
Q 544 659 544 1381 
z
M 1991 3584 
L 1991 3584 
z
" id="DejaVuSans-75" transform="scale(0.015625)"/>
     <path d="M 525 4666 
L 3525 4666 
L 3525 4397 
L 1831 0 
L 1172 0 
L 2766 4134 
L 525 4134 
L 525 4666 
z
" id="DejaVuSans-37" transform="scale(0.015625)"/>
     <path d="M 2906 1791 
Q 2906 2416 2648 2759 
Q 2391 3103 1925 3103 
Q 1463 3103 1205 2759 
Q 947 2416 947 1791 
Q 947 1169 1205 825 
Q 1463 481 1925 481 
Q 2391 481 2648 825 
Q 2906 1169 2906 1791 
z
M 3481 434 
Q 3481 -459 3084 -895 
Q 2688 -1331 1869 -1331 
Q 1566 -1331 1297 -1286 
Q 1028 -1241 775 -1147 
L 775 -588 
Q 1028 -725 1275 -790 
Q 1522 -856 1778 -856 
Q 2344 -856 2625 -561 
Q 2906 -266 2906 331 
L 2906 616 
Q 2728 306 2450 153 
Q 2172 0 1784 0 
Q 1141 0 747 490 
Q 353 981 353 1791 
Q 353 2603 747 3093 
Q 1141 3584 1784 3584 
Q 2172 3584 2450 3431 
Q 2728 3278 2906 2969 
L 2906 3500 
L 3481 3500 
L 3481 434 
z
" id="DejaVuSans-67" transform="scale(0.015625)"/>
     <path d="M 269 3500 
L 844 3500 
L 1563 769 
L 2278 3500 
L 2956 3500 
L 3675 769 
L 4391 3500 
L 4966 3500 
L 4050 0 
L 3372 0 
L 2619 2869 
L 1863 0 
L 1184 0 
L 269 3500 
z
" id="DejaVuSans-77" transform="scale(0.015625)"/>
     <path d="M 3116 1747 
Q 3116 2381 2855 2742 
Q 2594 3103 2138 3103 
Q 1681 3103 1420 2742 
Q 1159 2381 1159 1747 
Q 1159 1113 1420 752 
Q 1681 391 2138 391 
Q 2594 391 2855 752 
Q 3116 1113 3116 1747 
z
M 1159 2969 
Q 1341 3281 1617 3432 
Q 1894 3584 2278 3584 
Q 2916 3584 3314 3078 
Q 3713 2572 3713 1747 
Q 3713 922 3314 415 
Q 2916 -91 2278 -91 
Q 1894 -91 1617 61 
Q 1341 213 1159 525 
L 1159 0 
L 581 0 
L 581 4863 
L 1159 4863 
L 1159 2969 
z
" id="DejaVuSans-62" transform="scale(0.015625)"/>
    </defs>
    <use xlink:href="#DejaVuSans-50"/>
    <use x="58.552734" xlink:href="#DejaVuSans-72"/>
    <use x="97.416016" xlink:href="#DejaVuSans-65"/>
    <use x="158.939453" xlink:href="#DejaVuSans-76"/>
    <use x="218.119141" xlink:href="#DejaVuSans-69"/>
    <use x="245.902344" xlink:href="#DejaVuSans-6f"/>
    <use x="307.083984" xlink:href="#DejaVuSans-75"/>
    <use x="370.462891" xlink:href="#DejaVuSans-73"/>
    <use x="422.5625" xlink:href="#DejaVuSans-20"/>
    <use x="454.349609" xlink:href="#DejaVuSans-37"/>
    <use x="517.972656" xlink:href="#DejaVuSans-32"/>
    <use x="581.595703" xlink:href="#DejaVuSans-20"/>
    <use x="613.382812" xlink:href="#DejaVuSans-68"/>
    <use x="676.761719" xlink:href="#DejaVuSans-6f"/>
    <use x="737.943359" xlink:href="#DejaVuSans-75"/>
    <use x="801.322266" xlink:href="#DejaVuSans-72"/>
    <use x="842.435547" xlink:href="#DejaVuSans-73"/>
    <use x="894.535156" xlink:href="#DejaVuSans-2c"/>
    <use x="926.322266" xlink:href="#DejaVuSans-20"/>
    <use x="958.109375" xlink:href="#DejaVuSans-61"/>
    <use x="1019.388672" xlink:href="#DejaVuSans-76"/>
    <use x="1078.568359" xlink:href="#DejaVuSans-65"/>
    <use x="1140.091797" xlink:href="#DejaVuSans-72"/>
    <use x="1181.205078" xlink:href="#DejaVuSans-61"/>
    <use x="1242.484375" xlink:href="#DejaVuSans-67"/>
    <use x="1305.960938" xlink:href="#DejaVuSans-65"/>
    <use x="1367.484375" xlink:href="#DejaVuSans-20"/>
    <use x="1399.271484" xlink:href="#DejaVuSans-77"/>
    <use x="1481.058594" xlink:href="#DejaVuSans-69"/>
    <use x="1508.841797" xlink:href="#DejaVuSans-6e"/>
    <use x="1572.220703" xlink:href="#DejaVuSans-64"/>
    <use x="1635.697266" xlink:href="#DejaVuSans-20"/>
    <use x="1667.484375" xlink:href="#DejaVuSans-62"/>
    <use x="1730.960938" xlink:href="#DejaVuSans-79"/>
    <use x="1790.140625" xlink:href="#DejaVuSans-20"/>
    <use x="1821.927734" xlink:href="#DejaVuSans-73"/>
    <use x="1874.027344" xlink:href="#DejaVuSans-69"/>
    <use x="1901.810547" xlink:href="#DejaVuSans-74"/>
    <use x="1941.019531" xlink:href="#DejaVuSans-65"/>
   </g>
  </g>
 </g>
 <defs>
  <clipPath id="p68aef70ff8">
   <rect height="199.596" width="341.223245" x="80.408755" y="46.736"/>
  </clipPath>
 </defs>
</svg>
