<?xml version="1.0" encoding="utf-8" standalone="no"?>
<!DOCTYPE svg PUBLIC "-//W3C//DTD SVG 1.1//EN"
  "http://www.w3.org/Graphics/SVG/1.1/DTD/svg11.dtd">
<svg height="864pt" version="1.1" viewBox="0 0 864 864" width="864pt" xmlns="http://www.w3.org/2000/svg" xmlns:xlink="http://www.w3.org/1999/xlink">
 <metadata>
  <rdf:RDF xmlns:cc="http://creativecommons.org/ns#" xmlns:dc="http://purl.org/dc/elements/1.1/" xmlns:rdf="http://www.w3.org/1999/02/22-rdf-syntax-ns#">
   <cc:Work>
    <dc:type rdf:resource="http://purl.org/dc/dcmitype/StillImage"/>
    <dc:date>2021-05-09T23:47:25.164433</dc:date>
    <dc:format>image/svg+xml</dc:format>
    <dc:creator>
     <cc:Agent>
      <dc:title>Matplotlib v3.4.1, https://matplotlib.org/</dc:title>
     </cc:Agent>
    </dc:creator>
   </cc:Work>
  </rdf:RDF>
 </metadata>
 <defs>
  <style type="text/css">*{stroke-linecap:butt;stroke-linejoin:round;}</style>
 </defs>
 <g id="figure_1">
  <g id="patch_1">
   <path d="M 0 864 
L 864 864 
L 864 0 
L 0 0 
z
" style="fill:#ffffff;"/>
  </g>
  <g id="axes_1">
   <g id="patch_2">
    <path d="M 108 628.321836 
L 777.6 628.321836 
L 777.6 231.358164 
L 108 231.358164 
z
" style="fill:#ffffff;"/>
   </g>
   <g id="PathCollection_1">
    <defs>
     <path d="M 0 1.118034 
C 0.296506 1.118034 0.580908 1.000231 0.790569 0.790569 
C 1.000231 0.580908 1.118034 0.296506 1.118034 -0 
C 1.118034 -0.296506 1.000231 -0.580908 0.790569 -0.790569 
C 0.580908 -1.000231 0.296506 -1.118034 0 -1.118034 
C -0.296506 -1.118034 -0.580908 -1.000231 -0.790569 -0.790569 
C -1.000231 -0.580908 -1.118034 -0.296506 -1.118034 0 
C -1.118034 0.296506 -1.000231 0.580908 -0.790569 0.790569 
C -0.580908 1.000231 -0.296506 1.118034 0 1.118034 
z
" id="C0_0_02f5cd5807"/>
    </defs>
    <g clip-path="url(#p24492188bc)">
     <use style="fill:none;stroke:#000000;" x="243.067977" xlink:href="#C0_0_02f5cd5807" y="405.046782"/>
    </g>
    <g clip-path="url(#p24492188bc)">
     <use style="fill:none;stroke:#000000;" x="243.067977" xlink:href="#C0_0_02f5cd5807" y="405.046782"/>
    </g>
    <g clip-path="url(#p24492188bc)">
     <use style="fill:none;stroke:#000000;" x="326.255464" xlink:href="#C0_0_02f5cd5807" y="473.76688"/>
    </g>
    <g clip-path="url(#p24492188bc)">
     <use style="fill:none;stroke:#000000;" x="326.255464" xlink:href="#C0_0_02f5cd5807" y="473.76688"/>
    </g>
    <g clip-path="url(#p24492188bc)">
     <use style="fill:none;stroke:#000000;" x="326.255464" xlink:href="#C0_0_02f5cd5807" y="473.76688"/>
    </g>
    <g clip-path="url(#p24492188bc)">
     <use style="fill:none;stroke:#000000;" x="205.873831" xlink:href="#C0_0_02f5cd5807" y="451.094106"/>
    </g>
    <g clip-path="url(#p24492188bc)">
     <use style="fill:none;stroke:#000000;" x="214.619043" xlink:href="#C0_0_02f5cd5807" y="394.790051"/>
    </g>
    <g clip-path="url(#p24492188bc)">
     <use style="fill:none;stroke:#000000;" x="217.372166" xlink:href="#C0_0_02f5cd5807" y="395.977672"/>
    </g>
    <g clip-path="url(#p24492188bc)">
     <use style="fill:none;stroke:#000000;" x="173.21424" xlink:href="#C0_0_02f5cd5807" y="446.289637"/>
    </g>
    <g clip-path="url(#p24492188bc)">
     <use style="fill:none;stroke:#000000;" x="194.86134" xlink:href="#C0_0_02f5cd5807" y="448.880812"/>
    </g>
    <g clip-path="url(#p24492188bc)">
     <use style="fill:none;stroke:#000000;" x="230.489985" xlink:href="#C0_0_02f5cd5807" y="449.906485"/>
    </g>
    <g clip-path="url(#p24492188bc)">
     <use style="fill:none;stroke:#000000;" x="230.489985" xlink:href="#C0_0_02f5cd5807" y="449.906485"/>
    </g>
    <g clip-path="url(#p24492188bc)">
     <use style="fill:none;stroke:#000000;" x="214.025233" xlink:href="#C0_0_02f5cd5807" y="379.836816"/>
    </g>
    <g clip-path="url(#p24492188bc)">
     <use style="fill:none;stroke:#000000;" x="215.536751" xlink:href="#C0_0_02f5cd5807" y="373.250915"/>
    </g>
    <g clip-path="url(#p24492188bc)">
     <use style="fill:none;stroke:#000000;" x="216.508441" xlink:href="#C0_0_02f5cd5807" y="370.227879"/>
    </g>
    <g clip-path="url(#p24492188bc)">
     <use style="fill:none;stroke:#000000;" x="344.609614" xlink:href="#C0_0_02f5cd5807" y="400.080365"/>
    </g>
    <g clip-path="url(#p24492188bc)">
     <use style="fill:none;stroke:#000000;" x="344.609614" xlink:href="#C0_0_02f5cd5807" y="400.080365"/>
    </g>
    <g clip-path="url(#p24492188bc)">
     <use style="fill:none;stroke:#000000;" x="344.609614" xlink:href="#C0_0_02f5cd5807" y="400.080365"/>
    </g>
    <g clip-path="url(#p24492188bc)">
     <use style="fill:none;stroke:#000000;" x="333.111279" xlink:href="#C0_0_02f5cd5807" y="396.787414"/>
    </g>
    <g clip-path="url(#p24492188bc)">
     <use style="fill:none;stroke:#000000;" x="333.111279" xlink:href="#C0_0_02f5cd5807" y="396.787414"/>
    </g>
    <g clip-path="url(#p24492188bc)">
     <use style="fill:none;stroke:#000000;" x="333.111279" xlink:href="#C0_0_02f5cd5807" y="396.787414"/>
    </g>
    <g clip-path="url(#p24492188bc)">
     <use style="fill:none;stroke:#000000;" x="261.260178" xlink:href="#C0_0_02f5cd5807" y="386.4767"/>
    </g>
    <g clip-path="url(#p24492188bc)">
     <use style="fill:none;stroke:#000000;" x="261.260178" xlink:href="#C0_0_02f5cd5807" y="386.4767"/>
    </g>
    <g clip-path="url(#p24492188bc)">
     <use style="fill:none;stroke:#000000;" x="150.703414" xlink:href="#C0_0_02f5cd5807" y="452.605624"/>
    </g>
    <g clip-path="url(#p24492188bc)">
     <use style="fill:none;stroke:#000000;" x="188.275439" xlink:href="#C0_0_02f5cd5807" y="388.420081"/>
    </g>
    <g clip-path="url(#p24492188bc)">
     <use style="fill:none;stroke:#000000;" x="191.406442" xlink:href="#C0_0_02f5cd5807" y="396.787414"/>
    </g>
    <g clip-path="url(#p24492188bc)">
     <use style="fill:none;stroke:#000000;" x="216.994286" xlink:href="#C0_0_02f5cd5807" y="372.063294"/>
    </g>
    <g clip-path="url(#p24492188bc)">
     <use style="fill:none;stroke:#000000;" x="228.114742" xlink:href="#C0_0_02f5cd5807" y="385.774924"/>
    </g>
    <g clip-path="url(#p24492188bc)">
     <use style="fill:none;stroke:#000000;" x="227.952794" xlink:href="#C0_0_02f5cd5807" y="385.558993"/>
    </g>
    <g clip-path="url(#p24492188bc)">
     <use style="fill:none;stroke:#000000;" x="147.086567" xlink:href="#C0_0_02f5cd5807" y="390.687358"/>
    </g>
    <g clip-path="url(#p24492188bc)">
     <use style="fill:none;stroke:#000000;" x="407.175674" xlink:href="#C0_0_02f5cd5807" y="489.205959"/>
    </g>
    <g clip-path="url(#p24492188bc)">
     <use style="fill:none;stroke:#000000;" x="407.175674" xlink:href="#C0_0_02f5cd5807" y="489.205959"/>
    </g>
    <g clip-path="url(#p24492188bc)">
     <use style="fill:none;stroke:#000000;" x="407.175674" xlink:href="#C0_0_02f5cd5807" y="489.205959"/>
    </g>
    <g clip-path="url(#p24492188bc)">
     <use style="fill:none;stroke:#000000;" x="381.695795" xlink:href="#C0_0_02f5cd5807" y="423.185001"/>
    </g>
    <g clip-path="url(#p24492188bc)">
     <use style="fill:none;stroke:#000000;" x="381.695795" xlink:href="#C0_0_02f5cd5807" y="423.185001"/>
    </g>
    <g clip-path="url(#p24492188bc)">
     <use style="fill:none;stroke:#000000;" x="381.695795" xlink:href="#C0_0_02f5cd5807" y="423.185001"/>
    </g>
    <g clip-path="url(#p24492188bc)">
     <use style="fill:none;stroke:#000000;" x="387.040091" xlink:href="#C0_0_02f5cd5807" y="420.755775"/>
    </g>
    <g clip-path="url(#p24492188bc)">
     <use style="fill:none;stroke:#000000;" x="387.040091" xlink:href="#C0_0_02f5cd5807" y="420.755775"/>
    </g>
    <g clip-path="url(#p24492188bc)">
     <use style="fill:none;stroke:#000000;" x="387.040091" xlink:href="#C0_0_02f5cd5807" y="420.755775"/>
    </g>
    <g clip-path="url(#p24492188bc)">
     <use style="fill:none;stroke:#000000;" x="388.281696" xlink:href="#C0_0_02f5cd5807" y="440.243564"/>
    </g>
    <g clip-path="url(#p24492188bc)">
     <use style="fill:none;stroke:#000000;" x="388.281696" xlink:href="#C0_0_02f5cd5807" y="440.243564"/>
    </g>
    <g clip-path="url(#p24492188bc)">
     <use style="fill:none;stroke:#000000;" x="388.281696" xlink:href="#C0_0_02f5cd5807" y="440.243564"/>
    </g>
    <g clip-path="url(#p24492188bc)">
     <use style="fill:none;stroke:#000000;" x="418.88994" xlink:href="#C0_0_02f5cd5807" y="405.154747"/>
    </g>
    <g clip-path="url(#p24492188bc)">
     <use style="fill:none;stroke:#000000;" x="418.88994" xlink:href="#C0_0_02f5cd5807" y="405.154747"/>
    </g>
    <g clip-path="url(#p24492188bc)">
     <use style="fill:none;stroke:#000000;" x="418.88994" xlink:href="#C0_0_02f5cd5807" y="405.154747"/>
    </g>
    <g clip-path="url(#p24492188bc)">
     <use style="fill:none;stroke:#000000;" x="419.753665" xlink:href="#C0_0_02f5cd5807" y="551.610071"/>
    </g>
    <g clip-path="url(#p24492188bc)">
     <use style="fill:none;stroke:#000000;" x="419.753665" xlink:href="#C0_0_02f5cd5807" y="551.610071"/>
    </g>
    <g clip-path="url(#p24492188bc)">
     <use style="fill:none;stroke:#000000;" x="506.558" xlink:href="#C0_0_02f5cd5807" y="492.87679"/>
    </g>
    <g clip-path="url(#p24492188bc)">
     <use style="fill:none;stroke:#000000;" x="506.558" xlink:href="#C0_0_02f5cd5807" y="492.87679"/>
    </g>
    <g clip-path="url(#p24492188bc)">
     <use style="fill:none;stroke:#000000;" x="487.016228" xlink:href="#C0_0_02f5cd5807" y="454.926885"/>
    </g>
    <g clip-path="url(#p24492188bc)">
     <use style="fill:none;stroke:#000000;" x="487.016228" xlink:href="#C0_0_02f5cd5807" y="454.926885"/>
    </g>
    <g clip-path="url(#p24492188bc)">
     <use style="fill:none;stroke:#000000;" x="497.650839" xlink:href="#C0_0_02f5cd5807" y="517.438961"/>
    </g>
    <g clip-path="url(#p24492188bc)">
     <use style="fill:none;stroke:#000000;" x="497.650839" xlink:href="#C0_0_02f5cd5807" y="517.438961"/>
    </g>
    <g clip-path="url(#p24492188bc)">
     <use style="fill:none;stroke:#000000;" x="499.324305" xlink:href="#C0_0_02f5cd5807" y="507.991972"/>
    </g>
    <g clip-path="url(#p24492188bc)">
     <use style="fill:none;stroke:#000000;" x="499.324305" xlink:href="#C0_0_02f5cd5807" y="507.991972"/>
    </g>
    <g clip-path="url(#p24492188bc)">
     <use style="fill:none;stroke:#000000;" x="456.515949" xlink:href="#C0_0_02f5cd5807" y="418.056635"/>
    </g>
    <g clip-path="url(#p24492188bc)">
     <use style="fill:none;stroke:#000000;" x="456.515949" xlink:href="#C0_0_02f5cd5807" y="418.056635"/>
    </g>
    <g clip-path="url(#p24492188bc)">
     <use style="fill:none;stroke:#000000;" x="492.684421" xlink:href="#C0_0_02f5cd5807" y="560.895111"/>
    </g>
    <g clip-path="url(#p24492188bc)">
     <use style="fill:none;stroke:#000000;" x="492.306542" xlink:href="#C0_0_02f5cd5807" y="538.384286"/>
    </g>
    <g clip-path="url(#p24492188bc)">
     <use style="fill:none;stroke:#000000;" x="505.532327" xlink:href="#C0_0_02f5cd5807" y="530.502798"/>
    </g>
    <g clip-path="url(#p24492188bc)">
     <use style="fill:none;stroke:#000000;" x="519.837767" xlink:href="#C0_0_02f5cd5807" y="520.408015"/>
    </g>
    <g clip-path="url(#p24492188bc)">
     <use style="fill:none;stroke:#000000;" x="514.655419" xlink:href="#C0_0_02f5cd5807" y="528.451452"/>
    </g>
    <g clip-path="url(#p24492188bc)">
     <use style="fill:none;stroke:#000000;" x="510.498744" xlink:href="#C0_0_02f5cd5807" y="534.551507"/>
    </g>
    <g clip-path="url(#p24492188bc)">
     <use style="fill:none;stroke:#000000;" x="512.712038" xlink:href="#C0_0_02f5cd5807" y="523.916897"/>
    </g>
    <g clip-path="url(#p24492188bc)">
     <use style="fill:none;stroke:#000000;" x="512.226193" xlink:href="#C0_0_02f5cd5807" y="535.793112"/>
    </g>
    <g clip-path="url(#p24492188bc)">
     <use style="fill:none;stroke:#000000;" x="508.717312" xlink:href="#C0_0_02f5cd5807" y="529.153228"/>
    </g>
    <g clip-path="url(#p24492188bc)">
     <use style="fill:none;stroke:#000000;" x="518.54218" xlink:href="#C0_0_02f5cd5807" y="520.515981"/>
    </g>
    <g clip-path="url(#p24492188bc)">
     <use style="fill:none;stroke:#000000;" x="519.189974" xlink:href="#C0_0_02f5cd5807" y="519.868187"/>
    </g>
    <g clip-path="url(#p24492188bc)">
     <use style="fill:none;stroke:#000000;" x="519.567853" xlink:href="#C0_0_02f5cd5807" y="520.084118"/>
    </g>
    <g clip-path="url(#p24492188bc)">
     <use style="fill:none;stroke:#000000;" x="518.110318" xlink:href="#C0_0_02f5cd5807" y="566.347374"/>
    </g>
    <g clip-path="url(#p24492188bc)">
     <use style="fill:none;stroke:#000000;" x="603.781014" xlink:href="#C0_0_02f5cd5807" y="332.709836"/>
    </g>
    <g clip-path="url(#p24492188bc)">
     <use style="fill:none;stroke:#000000;" x="603.781014" xlink:href="#C0_0_02f5cd5807" y="332.709836"/>
    </g>
    <g clip-path="url(#p24492188bc)">
     <use style="fill:none;stroke:#000000;" x="640.543297" xlink:href="#C0_0_02f5cd5807" y="488.82808"/>
    </g>
    <g clip-path="url(#p24492188bc)">
     <use style="fill:none;stroke:#000000;" x="640.543297" xlink:href="#C0_0_02f5cd5807" y="488.82808"/>
    </g>
    <g clip-path="url(#p24492188bc)">
     <use style="fill:none;stroke:#000000;" x="580.784343" xlink:href="#C0_0_02f5cd5807" y="370.011948"/>
    </g>
    <g clip-path="url(#p24492188bc)">
     <use style="fill:none;stroke:#000000;" x="580.784343" xlink:href="#C0_0_02f5cd5807" y="370.011948"/>
    </g>
    <g clip-path="url(#p24492188bc)">
     <use style="fill:none;stroke:#000000;" x="621.757285" xlink:href="#C0_0_02f5cd5807" y="494.658222"/>
    </g>
    <g clip-path="url(#p24492188bc)">
     <use style="fill:none;stroke:#000000;" x="621.757285" xlink:href="#C0_0_02f5cd5807" y="494.658222"/>
    </g>
    <g clip-path="url(#p24492188bc)">
     <use style="fill:none;stroke:#000000;" x="592.228696" xlink:href="#C0_0_02f5cd5807" y="408.28575"/>
    </g>
    <g clip-path="url(#p24492188bc)">
     <use style="fill:none;stroke:#000000;" x="592.228696" xlink:href="#C0_0_02f5cd5807" y="408.28575"/>
    </g>
    <g clip-path="url(#p24492188bc)">
     <use style="fill:none;stroke:#000000;" x="592.228696" xlink:href="#C0_0_02f5cd5807" y="408.28575"/>
    </g>
    <g clip-path="url(#p24492188bc)">
     <use style="fill:none;stroke:#000000;" x="559.191225" xlink:href="#C0_0_02f5cd5807" y="397.921053"/>
    </g>
    <g clip-path="url(#p24492188bc)">
     <use style="fill:none;stroke:#000000;" x="559.191225" xlink:href="#C0_0_02f5cd5807" y="397.921053"/>
    </g>
    <g clip-path="url(#p24492188bc)">
     <use style="fill:none;stroke:#000000;" x="568.314317" xlink:href="#C0_0_02f5cd5807" y="387.070511"/>
    </g>
    <g clip-path="url(#p24492188bc)">
     <use style="fill:none;stroke:#000000;" x="568.314317" xlink:href="#C0_0_02f5cd5807" y="387.070511"/>
    </g>
    <g clip-path="url(#p24492188bc)">
     <use style="fill:none;stroke:#000000;" x="566.370937" xlink:href="#C0_0_02f5cd5807" y="387.394408"/>
    </g>
    <g clip-path="url(#p24492188bc)">
     <use style="fill:none;stroke:#000000;" x="566.370937" xlink:href="#C0_0_02f5cd5807" y="387.394408"/>
    </g>
    <g clip-path="url(#p24492188bc)">
     <use style="fill:none;stroke:#000000;" x="571.445319" xlink:href="#C0_0_02f5cd5807" y="371.847363"/>
    </g>
    <g clip-path="url(#p24492188bc)">
     <use style="fill:none;stroke:#000000;" x="571.445319" xlink:href="#C0_0_02f5cd5807" y="371.847363"/>
    </g>
    <g clip-path="url(#p24492188bc)">
     <use style="fill:none;stroke:#000000;" x="583.969328" xlink:href="#C0_0_02f5cd5807" y="426.747865"/>
    </g>
    <g clip-path="url(#p24492188bc)">
     <use style="fill:none;stroke:#000000;" x="583.969328" xlink:href="#C0_0_02f5cd5807" y="426.747865"/>
    </g>
    <g clip-path="url(#p24492188bc)">
     <use style="fill:none;stroke:#000000;" x="583.969328" xlink:href="#C0_0_02f5cd5807" y="426.747865"/>
    </g>
    <g clip-path="url(#p24492188bc)">
     <use style="fill:none;stroke:#000000;" x="563.509849" xlink:href="#C0_0_02f5cd5807" y="389.17584"/>
    </g>
    <g clip-path="url(#p24492188bc)">
     <use style="fill:none;stroke:#000000;" x="563.509849" xlink:href="#C0_0_02f5cd5807" y="389.17584"/>
    </g>
    <g clip-path="url(#p24492188bc)">
     <use style="fill:none;stroke:#000000;" x="572.470993" xlink:href="#C0_0_02f5cd5807" y="387.82627"/>
    </g>
    <g clip-path="url(#p24492188bc)">
     <use style="fill:none;stroke:#000000;" x="572.470993" xlink:href="#C0_0_02f5cd5807" y="387.82627"/>
    </g>
    <g clip-path="url(#p24492188bc)">
     <use style="fill:none;stroke:#000000;" x="573.442683" xlink:href="#C0_0_02f5cd5807" y="386.800597"/>
    </g>
    <g clip-path="url(#p24492188bc)">
     <use style="fill:none;stroke:#000000;" x="573.442683" xlink:href="#C0_0_02f5cd5807" y="386.800597"/>
    </g>
    <g clip-path="url(#p24492188bc)">
     <use style="fill:none;stroke:#000000;" x="562.700107" xlink:href="#C0_0_02f5cd5807" y="386.692631"/>
    </g>
    <g clip-path="url(#p24492188bc)">
     <use style="fill:none;stroke:#000000;" x="562.700107" xlink:href="#C0_0_02f5cd5807" y="386.692631"/>
    </g>
    <g clip-path="url(#p24492188bc)">
     <use style="fill:none;stroke:#000000;" x="582.241879" xlink:href="#C0_0_02f5cd5807" y="416.005289"/>
    </g>
    <g clip-path="url(#p24492188bc)">
     <use style="fill:none;stroke:#000000;" x="582.241879" xlink:href="#C0_0_02f5cd5807" y="416.005289"/>
    </g>
    <g clip-path="url(#p24492188bc)">
     <use style="fill:none;stroke:#000000;" x="582.241879" xlink:href="#C0_0_02f5cd5807" y="416.005289"/>
    </g>
    <g clip-path="url(#p24492188bc)">
     <use style="fill:none;stroke:#000000;" x="580.568412" xlink:href="#C0_0_02f5cd5807" y="331.738146"/>
    </g>
    <g clip-path="url(#p24492188bc)">
     <use style="fill:none;stroke:#000000;" x="580.568412" xlink:href="#C0_0_02f5cd5807" y="331.738146"/>
    </g>
    <g clip-path="url(#p24492188bc)">
     <use style="fill:none;stroke:#000000;" x="618.518317" xlink:href="#C0_0_02f5cd5807" y="493.794497"/>
    </g>
    <g clip-path="url(#p24492188bc)">
     <use style="fill:none;stroke:#000000;" x="618.518317" xlink:href="#C0_0_02f5cd5807" y="493.794497"/>
    </g>
    <g clip-path="url(#p24492188bc)">
     <use style="fill:none;stroke:#000000;" x="670.827645" xlink:href="#C0_0_02f5cd5807" y="256.971975"/>
    </g>
    <g clip-path="url(#p24492188bc)">
     <use style="fill:none;stroke:#000000;" x="628.6131" xlink:href="#C0_0_02f5cd5807" y="285.258959"/>
    </g>
    <g clip-path="url(#p24492188bc)">
     <use style="fill:none;stroke:#000000;" x="626.021925" xlink:href="#C0_0_02f5cd5807" y="270.143777"/>
    </g>
    <g clip-path="url(#p24492188bc)">
     <use style="fill:none;stroke:#000000;" x="654.632807" xlink:href="#C0_0_02f5cd5807" y="258.159596"/>
    </g>
    <g clip-path="url(#p24492188bc)">
     <use style="fill:none;stroke:#000000;" x="656.576187" xlink:href="#C0_0_02f5cd5807" y="263.341945"/>
    </g>
    <g clip-path="url(#p24492188bc)">
     <use style="fill:none;stroke:#000000;" x="601.78365" xlink:href="#C0_0_02f5cd5807" y="298.430761"/>
    </g>
    <g clip-path="url(#p24492188bc)">
     <use style="fill:none;stroke:#000000;" x="732.314049" xlink:href="#C0_0_02f5cd5807" y="468.854446"/>
    </g>
    <g clip-path="url(#p24492188bc)">
     <use style="fill:none;stroke:#000000;" x="638.815848" xlink:href="#C0_0_02f5cd5807" y="540.489615"/>
    </g>
    <g clip-path="url(#p24492188bc)">
     <use style="fill:none;stroke:#000000;" x="648.694699" xlink:href="#C0_0_02f5cd5807" y="591.125477"/>
    </g>
    <g clip-path="url(#p24492188bc)">
     <use style="fill:none;stroke:#000000;" x="704.782824" xlink:href="#C0_0_02f5cd5807" y="586.213042"/>
    </g>
   </g>
   <g id="PatchCollection_1">
    <path clip-path="url(#p24492188bc)" d="M 354.367544 420.67804 
L 353.84766 431.260518 
L 352.293016 441.741082 
L 349.718582 452.018797 
L 346.149153 461.994683 
L 341.619104 471.572667 
L 336.172061 480.660508 
L 329.860484 489.170685 
L 322.745155 497.021241 
L 314.894599 504.13657 
L 306.384422 510.448148 
L 297.296581 515.89519 
L 287.718597 520.425239 
L 277.74271 523.994668 
L 267.464996 526.569102 
L 256.984432 528.123746 
L 246.401954 528.64363 
L 235.819476 528.123746 
L 225.338912 526.569102 
L 215.061197 523.994668 
L 205.085311 520.425239 
L 195.507327 515.89519 
L 186.419486 510.448148 
L 177.909309 504.13657 
L 170.058753 497.021241 
L 162.943424 489.170685 
L 156.631846 480.660508 
L 151.184804 471.572667 
L 146.654755 461.994683 
L 143.085326 452.018797 
L 140.510892 441.741082 
L 138.956247 431.260518 
L 138.436364 420.67804 
L 138.956247 410.095562 
L 140.510892 399.614998 
L 143.085326 389.337283 
L 146.654755 379.361397 
L 151.184804 369.783413 
L 156.631846 360.695572 
L 162.943424 352.185395 
L 170.058753 344.334839 
L 177.909309 337.21951 
L 186.419486 330.907932 
L 195.507327 325.46089 
L 205.085311 320.930841 
L 215.061197 317.361412 
L 225.338912 314.786978 
L 235.819476 313.232334 
L 246.401954 312.71245 
L 256.984432 313.232334 
L 267.464996 314.786978 
L 277.74271 317.361412 
L 287.718597 320.930841 
L 297.296581 325.46089 
L 306.384422 330.907932 
L 314.894599 337.21951 
L 322.745155 344.334839 
L 329.860484 352.185395 
L 336.172061 360.695572 
L 341.619104 369.783413 
L 346.149153 379.361397 
L 349.718582 389.337283 
L 352.293016 399.614998 
L 353.84766 410.095562 
L 354.367544 420.67804 
" style="fill:#ff0000;fill-opacity:0.2;"/>
    <path clip-path="url(#p24492188bc)" d="M 438.583944 419.648588 
L 438.06406 430.231067 
L 436.509415 440.71163 
L 433.934982 450.989345 
L 430.365552 460.965231 
L 425.835503 470.543215 
L 420.388461 479.631056 
L 414.076883 488.141234 
L 406.961554 495.991789 
L 399.110999 503.107118 
L 390.600822 509.418696 
L 381.51298 514.865738 
L 371.934996 519.395787 
L 361.95911 522.965216 
L 351.681395 525.53965 
L 341.200832 527.094295 
L 330.618353 527.614178 
L 320.035875 527.094295 
L 309.555312 525.53965 
L 299.277597 522.965216 
L 289.301711 519.395787 
L 279.723726 514.865738 
L 270.635885 509.418696 
L 262.125708 503.107118 
L 254.275152 495.991789 
L 247.159823 488.141234 
L 240.848246 479.631056 
L 235.401203 470.543215 
L 230.871154 460.965231 
L 227.301725 450.989345 
L 224.727292 440.71163 
L 223.172647 430.231067 
L 222.652763 419.648588 
L 223.172647 409.06611 
L 224.727292 398.585546 
L 227.301725 388.307832 
L 230.871154 378.331945 
L 235.401203 368.753961 
L 240.848246 359.66612 
L 247.159823 351.155943 
L 254.275152 343.305387 
L 262.125708 336.190058 
L 270.635885 329.878481 
L 279.723726 324.431438 
L 289.301711 319.901389 
L 299.277597 316.33196 
L 309.555312 313.757526 
L 320.035875 312.202882 
L 330.618353 311.682998 
L 341.200832 312.202882 
L 351.681395 313.757526 
L 361.95911 316.33196 
L 371.934996 319.901389 
L 381.51298 324.431438 
L 390.600822 329.878481 
L 399.110999 336.190058 
L 406.961554 343.305387 
L 414.076883 351.155943 
L 420.388461 359.66612 
L 425.835503 368.753961 
L 430.365552 378.331945 
L 433.934982 388.307832 
L 436.509415 398.585546 
L 438.06406 409.06611 
L 438.583944 419.648588 
" style="fill:#ff0000;fill-opacity:0.2;"/>
    <path clip-path="url(#p24492188bc)" d="M 534.582088 449.32455 
L 534.062204 459.907029 
L 532.50756 470.387592 
L 529.933126 480.665307 
L 526.363697 490.641193 
L 521.833648 500.219177 
L 516.386605 509.307018 
L 510.075028 517.817196 
L 502.959699 525.667751 
L 495.109143 532.78308 
L 486.598966 539.094658 
L 477.511125 544.5417 
L 467.933141 549.071749 
L 457.957254 552.641178 
L 447.67954 555.215612 
L 437.198976 556.770257 
L 426.616498 557.29014 
L 416.034019 556.770257 
L 405.553456 555.215612 
L 395.275741 552.641178 
L 385.299855 549.071749 
L 375.721871 544.5417 
L 366.63403 539.094658 
L 358.123852 532.78308 
L 350.273297 525.667751 
L 343.157968 517.817196 
L 336.84639 509.307018 
L 331.399348 500.219177 
L 326.869299 490.641193 
L 323.29987 480.665307 
L 320.725436 470.387592 
L 319.170791 459.907029 
L 318.650908 449.32455 
L 319.170791 438.742072 
L 320.725436 428.261508 
L 323.29987 417.983794 
L 326.869299 408.007907 
L 331.399348 398.429923 
L 336.84639 389.342082 
L 343.157968 380.831905 
L 350.273297 372.981349 
L 358.123852 365.86602 
L 366.63403 359.554443 
L 375.721871 354.1074 
L 385.299855 349.577351 
L 395.275741 346.007922 
L 405.553456 343.433488 
L 416.034019 341.878844 
L 426.616498 341.35896 
L 437.198976 341.878844 
L 447.67954 343.433488 
L 457.957254 346.007922 
L 467.933141 349.577351 
L 477.511125 354.1074 
L 486.598966 359.554443 
L 495.109143 365.86602 
L 502.959699 372.981349 
L 510.075028 380.831905 
L 516.386605 389.342082 
L 521.833648 398.429923 
L 526.363697 408.007907 
L 529.933126 417.983794 
L 532.50756 428.261508 
L 534.062204 438.742072 
L 534.582088 449.32455 
" style="fill:#ff0000;fill-opacity:0.2;"/>
    <path clip-path="url(#p24492188bc)" d="M 563.277723 485.928664 
L 562.757839 496.511142 
L 561.203194 506.991706 
L 558.628761 517.269421 
L 555.059331 527.245307 
L 550.529282 536.823291 
L 545.08224 545.911132 
L 538.770662 554.421309 
L 531.655333 562.271865 
L 523.804778 569.387194 
L 515.2946 575.698772 
L 506.206759 581.145814 
L 496.628775 585.675863 
L 486.652889 589.245292 
L 476.375174 591.819726 
L 465.894611 593.37437 
L 455.312132 593.894254 
L 444.729654 593.37437 
L 434.24909 591.819726 
L 423.971376 589.245292 
L 413.99549 585.675863 
L 404.417505 581.145814 
L 395.329664 575.698772 
L 386.819487 569.387194 
L 378.968931 562.271865 
L 371.853602 554.421309 
L 365.542025 545.911132 
L 360.094982 536.823291 
L 355.564933 527.245307 
L 351.995504 517.269421 
L 349.42107 506.991706 
L 347.866426 496.511142 
L 347.346542 485.928664 
L 347.866426 475.346186 
L 349.42107 464.865622 
L 351.995504 454.587907 
L 355.564933 444.612021 
L 360.094982 435.034037 
L 365.542025 425.946196 
L 371.853602 417.436019 
L 378.968931 409.585463 
L 386.819487 402.470134 
L 395.329664 396.158556 
L 404.417505 390.711514 
L 413.99549 386.181465 
L 423.971376 382.612036 
L 434.24909 380.037602 
L 444.729654 378.482958 
L 455.312132 377.963074 
L 465.894611 378.482958 
L 476.375174 380.037602 
L 486.652889 382.612036 
L 496.628775 386.181465 
L 506.206759 390.711514 
L 515.2946 396.158556 
L 523.804778 402.470134 
L 531.655333 409.585463 
L 538.770662 417.436019 
L 545.08224 425.946196 
L 550.529282 435.034037 
L 555.059331 444.612021 
L 558.628761 454.587907 
L 561.203194 464.865622 
L 562.757839 475.346186 
L 563.277723 485.928664 
" style="fill:#ff0000;fill-opacity:0.2;"/>
    <path clip-path="url(#p24492188bc)" d="M 736.488539 427.327101 
L 735.968655 437.909579 
L 734.41401 448.390143 
L 731.839577 458.667857 
L 728.270147 468.643744 
L 723.740098 478.221728 
L 718.293056 487.309569 
L 711.981478 495.819746 
L 704.866149 503.670302 
L 697.015594 510.785631 
L 688.505416 517.097208 
L 679.417575 522.544251 
L 669.839591 527.0743 
L 659.863705 530.643729 
L 649.58599 533.218163 
L 639.105427 534.772807 
L 628.522948 535.292691 
L 617.94047 534.772807 
L 607.459907 533.218163 
L 597.182192 530.643729 
L 587.206306 527.0743 
L 577.628321 522.544251 
L 568.54048 517.097208 
L 560.030303 510.785631 
L 552.179747 503.670302 
L 545.064418 495.819746 
L 538.752841 487.309569 
L 533.305798 478.221728 
L 528.775749 468.643744 
L 525.20632 458.667857 
L 522.631887 448.390143 
L 521.077242 437.909579 
L 520.557358 427.327101 
L 521.077242 416.744622 
L 522.631887 406.264059 
L 525.20632 395.986344 
L 528.775749 386.010458 
L 533.305798 376.432474 
L 538.752841 367.344633 
L 545.064418 358.834455 
L 552.179747 350.9839 
L 560.030303 343.868571 
L 568.54048 337.556993 
L 577.628321 332.109951 
L 587.206306 327.579902 
L 597.182192 324.010473 
L 607.459907 321.436039 
L 617.94047 319.881394 
L 628.522948 319.361511 
L 639.105427 319.881394 
L 649.58599 321.436039 
L 659.863705 324.010473 
L 669.839591 327.579902 
L 679.417575 332.109951 
L 688.505416 337.556993 
L 697.015594 343.868571 
L 704.866149 350.9839 
L 711.981478 358.834455 
L 718.293056 367.344633 
L 723.740098 376.432474 
L 728.270147 386.010458 
L 731.839577 395.986344 
L 734.41401 406.264059 
L 735.968655 416.744622 
L 736.488539 427.327101 
" style="fill:#ff0000;fill-opacity:0.2;"/>
    <path clip-path="url(#p24492188bc)" d="M 744.115768 357.367558 
L 743.595884 367.950036 
L 742.041239 378.430599 
L 739.466806 388.708314 
L 735.897377 398.6842 
L 731.367327 408.262185 
L 725.920285 417.350026 
L 719.608707 425.860203 
L 712.493378 433.710759 
L 704.642823 440.826088 
L 696.132646 447.137665 
L 687.044804 452.584708 
L 677.46682 457.114757 
L 667.490934 460.684186 
L 657.213219 463.258619 
L 646.732656 464.813264 
L 636.150177 465.333148 
L 625.567699 464.813264 
L 615.087136 463.258619 
L 604.809421 460.684186 
L 594.833535 457.114757 
L 585.25555 452.584708 
L 576.167709 447.137665 
L 567.657532 440.826088 
L 559.806976 433.710759 
L 552.691648 425.860203 
L 546.38007 417.350026 
L 540.933028 408.262185 
L 536.402978 398.6842 
L 532.833549 388.708314 
L 530.259116 378.430599 
L 528.704471 367.950036 
L 528.184587 357.367558 
L 528.704471 346.785079 
L 530.259116 336.304516 
L 532.833549 326.026801 
L 536.402978 316.050915 
L 540.933028 306.472931 
L 546.38007 297.385089 
L 552.691648 288.874912 
L 559.806976 281.024357 
L 567.657532 273.909028 
L 576.167709 267.59745 
L 585.25555 262.150408 
L 594.833535 257.620359 
L 604.809421 254.050929 
L 615.087136 251.476496 
L 625.567699 249.921851 
L 636.150177 249.401967 
L 646.732656 249.921851 
L 657.213219 251.476496 
L 667.490934 254.050929 
L 677.46682 257.620359 
L 687.044804 262.150408 
L 696.132646 267.59745 
L 704.642823 273.909028 
L 712.493378 281.024357 
L 719.608707 288.874912 
L 725.920285 297.385089 
L 731.367327 306.472931 
L 735.897377 316.050915 
L 739.466806 326.026801 
L 742.041239 336.304516 
L 743.595884 346.785079 
L 744.115768 357.367558 
" style="fill:#ff0000;fill-opacity:0.2;"/>
    <path clip-path="url(#p24492188bc)" d="M 747.163636 502.312442 
L 746.643753 512.894921 
L 745.089108 523.375484 
L 742.514674 533.653199 
L 738.945245 543.629085 
L 734.415196 553.207069 
L 728.968154 562.294911 
L 722.656576 570.805088 
L 715.541247 578.655643 
L 707.690691 585.770972 
L 699.180514 592.08255 
L 690.092673 597.529592 
L 680.514689 602.059641 
L 670.538803 605.629071 
L 660.261088 608.203504 
L 649.780524 609.758149 
L 639.198046 610.278033 
L 628.615568 609.758149 
L 618.135004 608.203504 
L 607.85729 605.629071 
L 597.881403 602.059641 
L 588.303419 597.529592 
L 579.215578 592.08255 
L 570.705401 585.770972 
L 562.854845 578.655643 
L 555.739516 570.805088 
L 549.427939 562.294911 
L 543.980896 553.207069 
L 539.450847 543.629085 
L 535.881418 533.653199 
L 533.306984 523.375484 
L 531.75234 512.894921 
L 531.232456 502.312442 
L 531.75234 491.729964 
L 533.306984 481.249401 
L 535.881418 470.971686 
L 539.450847 460.9958 
L 543.980896 451.417815 
L 549.427939 442.329974 
L 555.739516 433.819797 
L 562.854845 425.969241 
L 570.705401 418.853912 
L 579.215578 412.542335 
L 588.303419 407.095292 
L 597.881403 402.565243 
L 607.85729 398.995814 
L 618.135004 396.421381 
L 628.615568 394.866736 
L 639.198046 394.346852 
L 649.780524 394.866736 
L 660.261088 396.421381 
L 670.538803 398.995814 
L 680.514689 402.565243 
L 690.092673 407.095292 
L 699.180514 412.542335 
L 707.690691 418.853912 
L 715.541247 425.969241 
L 722.656576 433.819797 
L 728.968154 442.329974 
L 734.415196 451.417815 
L 738.945245 460.9958 
L 742.514674 470.971686 
L 745.089108 481.249401 
L 746.643753 491.729964 
L 747.163636 502.312442 
" style="fill:#ff0000;fill-opacity:0.2;"/>
   </g>
   <g id="matplotlib.axis_1">
    <g id="xtick_1">
     <g id="line2d_1">
      <defs>
       <path d="M 0 0 
L 0 3.5 
" id="m8fee538dd3" style="stroke:#000000;stroke-width:0.8;"/>
      </defs>
      <g>
       <use style="stroke:#000000;stroke-width:0.8;" x="110.702163" xlink:href="#m8fee538dd3" y="628.321836"/>
      </g>
     </g>
     <g id="text_1">
      <!-- −90 -->
      <g transform="translate(100.149819 642.920273)scale(0.1 -0.1)">
       <defs>
        <path d="M 678 2272 
L 4684 2272 
L 4684 1741 
L 678 1741 
L 678 2272 
z
" id="DejaVuSans-2212" transform="scale(0.015625)"/>
        <path d="M 703 97 
L 703 672 
Q 941 559 1184 500 
Q 1428 441 1663 441 
Q 2288 441 2617 861 
Q 2947 1281 2994 2138 
Q 2813 1869 2534 1725 
Q 2256 1581 1919 1581 
Q 1219 1581 811 2004 
Q 403 2428 403 3163 
Q 403 3881 828 4315 
Q 1253 4750 1959 4750 
Q 2769 4750 3195 4129 
Q 3622 3509 3622 2328 
Q 3622 1225 3098 567 
Q 2575 -91 1691 -91 
Q 1453 -91 1209 -44 
Q 966 3 703 97 
z
M 1959 2075 
Q 2384 2075 2632 2365 
Q 2881 2656 2881 3163 
Q 2881 3666 2632 3958 
Q 2384 4250 1959 4250 
Q 1534 4250 1286 3958 
Q 1038 3666 1038 3163 
Q 1038 2656 1286 2365 
Q 1534 2075 1959 2075 
z
" id="DejaVuSans-39" transform="scale(0.015625)"/>
        <path d="M 2034 4250 
Q 1547 4250 1301 3770 
Q 1056 3291 1056 2328 
Q 1056 1369 1301 889 
Q 1547 409 2034 409 
Q 2525 409 2770 889 
Q 3016 1369 3016 2328 
Q 3016 3291 2770 3770 
Q 2525 4250 2034 4250 
z
M 2034 4750 
Q 2819 4750 3233 4129 
Q 3647 3509 3647 2328 
Q 3647 1150 3233 529 
Q 2819 -91 2034 -91 
Q 1250 -91 836 529 
Q 422 1150 422 2328 
Q 422 3509 836 4129 
Q 1250 4750 2034 4750 
z
" id="DejaVuSans-30" transform="scale(0.015625)"/>
       </defs>
       <use xlink:href="#DejaVuSans-2212"/>
       <use x="83.789062" xlink:href="#DejaVuSans-39"/>
       <use x="147.412109" xlink:href="#DejaVuSans-30"/>
      </g>
     </g>
    </g>
    <g id="xtick_2">
     <g id="line2d_2">
      <g>
       <use style="stroke:#000000;stroke-width:0.8;" x="218.667753" xlink:href="#m8fee538dd3" y="628.321836"/>
      </g>
     </g>
     <g id="text_2">
      <!-- −88 -->
      <g transform="translate(208.115409 642.920273)scale(0.1 -0.1)">
       <defs>
        <path d="M 2034 2216 
Q 1584 2216 1326 1975 
Q 1069 1734 1069 1313 
Q 1069 891 1326 650 
Q 1584 409 2034 409 
Q 2484 409 2743 651 
Q 3003 894 3003 1313 
Q 3003 1734 2745 1975 
Q 2488 2216 2034 2216 
z
M 1403 2484 
Q 997 2584 770 2862 
Q 544 3141 544 3541 
Q 544 4100 942 4425 
Q 1341 4750 2034 4750 
Q 2731 4750 3128 4425 
Q 3525 4100 3525 3541 
Q 3525 3141 3298 2862 
Q 3072 2584 2669 2484 
Q 3125 2378 3379 2068 
Q 3634 1759 3634 1313 
Q 3634 634 3220 271 
Q 2806 -91 2034 -91 
Q 1263 -91 848 271 
Q 434 634 434 1313 
Q 434 1759 690 2068 
Q 947 2378 1403 2484 
z
M 1172 3481 
Q 1172 3119 1398 2916 
Q 1625 2713 2034 2713 
Q 2441 2713 2670 2916 
Q 2900 3119 2900 3481 
Q 2900 3844 2670 4047 
Q 2441 4250 2034 4250 
Q 1625 4250 1398 4047 
Q 1172 3844 1172 3481 
z
" id="DejaVuSans-38" transform="scale(0.015625)"/>
       </defs>
       <use xlink:href="#DejaVuSans-2212"/>
       <use x="83.789062" xlink:href="#DejaVuSans-38"/>
       <use x="147.412109" xlink:href="#DejaVuSans-38"/>
      </g>
     </g>
    </g>
    <g id="xtick_3">
     <g id="line2d_3">
      <g>
       <use style="stroke:#000000;stroke-width:0.8;" x="326.633343" xlink:href="#m8fee538dd3" y="628.321836"/>
      </g>
     </g>
     <g id="text_3">
      <!-- −86 -->
      <g transform="translate(316.081 642.920273)scale(0.1 -0.1)">
       <defs>
        <path d="M 2113 2584 
Q 1688 2584 1439 2293 
Q 1191 2003 1191 1497 
Q 1191 994 1439 701 
Q 1688 409 2113 409 
Q 2538 409 2786 701 
Q 3034 994 3034 1497 
Q 3034 2003 2786 2293 
Q 2538 2584 2113 2584 
z
M 3366 4563 
L 3366 3988 
Q 3128 4100 2886 4159 
Q 2644 4219 2406 4219 
Q 1781 4219 1451 3797 
Q 1122 3375 1075 2522 
Q 1259 2794 1537 2939 
Q 1816 3084 2150 3084 
Q 2853 3084 3261 2657 
Q 3669 2231 3669 1497 
Q 3669 778 3244 343 
Q 2819 -91 2113 -91 
Q 1303 -91 875 529 
Q 447 1150 447 2328 
Q 447 3434 972 4092 
Q 1497 4750 2381 4750 
Q 2619 4750 2861 4703 
Q 3103 4656 3366 4563 
z
" id="DejaVuSans-36" transform="scale(0.015625)"/>
       </defs>
       <use xlink:href="#DejaVuSans-2212"/>
       <use x="83.789062" xlink:href="#DejaVuSans-38"/>
       <use x="147.412109" xlink:href="#DejaVuSans-36"/>
      </g>
     </g>
    </g>
    <g id="xtick_4">
     <g id="line2d_4">
      <g>
       <use style="stroke:#000000;stroke-width:0.8;" x="434.598934" xlink:href="#m8fee538dd3" y="628.321836"/>
      </g>
     </g>
     <g id="text_4">
      <!-- −84 -->
      <g transform="translate(424.04659 642.920273)scale(0.1 -0.1)">
       <defs>
        <path d="M 2419 4116 
L 825 1625 
L 2419 1625 
L 2419 4116 
z
M 2253 4666 
L 3047 4666 
L 3047 1625 
L 3713 1625 
L 3713 1100 
L 3047 1100 
L 3047 0 
L 2419 0 
L 2419 1100 
L 313 1100 
L 313 1709 
L 2253 4666 
z
" id="DejaVuSans-34" transform="scale(0.015625)"/>
       </defs>
       <use xlink:href="#DejaVuSans-2212"/>
       <use x="83.789062" xlink:href="#DejaVuSans-38"/>
       <use x="147.412109" xlink:href="#DejaVuSans-34"/>
      </g>
     </g>
    </g>
    <g id="xtick_5">
     <g id="line2d_5">
      <g>
       <use style="stroke:#000000;stroke-width:0.8;" x="542.564524" xlink:href="#m8fee538dd3" y="628.321836"/>
      </g>
     </g>
     <g id="text_5">
      <!-- −82 -->
      <g transform="translate(532.01218 642.920273)scale(0.1 -0.1)">
       <defs>
        <path d="M 1228 531 
L 3431 531 
L 3431 0 
L 469 0 
L 469 531 
Q 828 903 1448 1529 
Q 2069 2156 2228 2338 
Q 2531 2678 2651 2914 
Q 2772 3150 2772 3378 
Q 2772 3750 2511 3984 
Q 2250 4219 1831 4219 
Q 1534 4219 1204 4116 
Q 875 4013 500 3803 
L 500 4441 
Q 881 4594 1212 4672 
Q 1544 4750 1819 4750 
Q 2544 4750 2975 4387 
Q 3406 4025 3406 3419 
Q 3406 3131 3298 2873 
Q 3191 2616 2906 2266 
Q 2828 2175 2409 1742 
Q 1991 1309 1228 531 
z
" id="DejaVuSans-32" transform="scale(0.015625)"/>
       </defs>
       <use xlink:href="#DejaVuSans-2212"/>
       <use x="83.789062" xlink:href="#DejaVuSans-38"/>
       <use x="147.412109" xlink:href="#DejaVuSans-32"/>
      </g>
     </g>
    </g>
    <g id="xtick_6">
     <g id="line2d_6">
      <g>
       <use style="stroke:#000000;stroke-width:0.8;" x="650.530114" xlink:href="#m8fee538dd3" y="628.321836"/>
      </g>
     </g>
     <g id="text_6">
      <!-- −80 -->
      <g transform="translate(639.977771 642.920273)scale(0.1 -0.1)">
       <use xlink:href="#DejaVuSans-2212"/>
       <use x="83.789062" xlink:href="#DejaVuSans-38"/>
       <use x="147.412109" xlink:href="#DejaVuSans-30"/>
      </g>
     </g>
    </g>
    <g id="xtick_7">
     <g id="line2d_7">
      <g>
       <use style="stroke:#000000;stroke-width:0.8;" x="758.495705" xlink:href="#m8fee538dd3" y="628.321836"/>
      </g>
     </g>
     <g id="text_7">
      <!-- −78 -->
      <g transform="translate(747.943361 642.920273)scale(0.1 -0.1)">
       <defs>
        <path d="M 525 4666 
L 3525 4666 
L 3525 4397 
L 1831 0 
L 1172 0 
L 2766 4134 
L 525 4134 
L 525 4666 
z
" id="DejaVuSans-37" transform="scale(0.015625)"/>
       </defs>
       <use xlink:href="#DejaVuSans-2212"/>
       <use x="83.789062" xlink:href="#DejaVuSans-37"/>
       <use x="147.412109" xlink:href="#DejaVuSans-38"/>
      </g>
     </g>
    </g>
   </g>
   <g id="matplotlib.axis_2">
    <g id="ytick_1">
     <g id="line2d_8">
      <defs>
       <path d="M 0 0 
L -3.5 0 
" id="m60c29d78a4" style="stroke:#000000;stroke-width:0.8;"/>
      </defs>
      <g>
       <use style="stroke:#000000;stroke-width:0.8;" x="108" xlink:href="#m60c29d78a4" y="624.21693"/>
      </g>
     </g>
     <g id="text_8">
      <!-- 26 -->
      <g transform="translate(88.275 628.016149)scale(0.1 -0.1)">
       <use xlink:href="#DejaVuSans-32"/>
       <use x="63.623047" xlink:href="#DejaVuSans-36"/>
      </g>
     </g>
    </g>
    <g id="ytick_2">
     <g id="line2d_9">
      <g>
       <use style="stroke:#000000;stroke-width:0.8;" x="108" xlink:href="#m60c29d78a4" y="570.234135"/>
      </g>
     </g>
     <g id="text_9">
      <!-- 27 -->
      <g transform="translate(88.275 574.033354)scale(0.1 -0.1)">
       <use xlink:href="#DejaVuSans-32"/>
       <use x="63.623047" xlink:href="#DejaVuSans-37"/>
      </g>
     </g>
    </g>
    <g id="ytick_3">
     <g id="line2d_10">
      <g>
       <use style="stroke:#000000;stroke-width:0.8;" x="108" xlink:href="#m60c29d78a4" y="516.25134"/>
      </g>
     </g>
     <g id="text_10">
      <!-- 28 -->
      <g transform="translate(88.275 520.050559)scale(0.1 -0.1)">
       <use xlink:href="#DejaVuSans-32"/>
       <use x="63.623047" xlink:href="#DejaVuSans-38"/>
      </g>
     </g>
    </g>
    <g id="ytick_4">
     <g id="line2d_11">
      <g>
       <use style="stroke:#000000;stroke-width:0.8;" x="108" xlink:href="#m60c29d78a4" y="462.268545"/>
      </g>
     </g>
     <g id="text_11">
      <!-- 29 -->
      <g transform="translate(88.275 466.067763)scale(0.1 -0.1)">
       <use xlink:href="#DejaVuSans-32"/>
       <use x="63.623047" xlink:href="#DejaVuSans-39"/>
      </g>
     </g>
    </g>
    <g id="ytick_5">
     <g id="line2d_12">
      <g>
       <use style="stroke:#000000;stroke-width:0.8;" x="108" xlink:href="#m60c29d78a4" y="408.28575"/>
      </g>
     </g>
     <g id="text_12">
      <!-- 30 -->
      <g transform="translate(88.275 412.084968)scale(0.1 -0.1)">
       <defs>
        <path d="M 2597 2516 
Q 3050 2419 3304 2112 
Q 3559 1806 3559 1356 
Q 3559 666 3084 287 
Q 2609 -91 1734 -91 
Q 1441 -91 1130 -33 
Q 819 25 488 141 
L 488 750 
Q 750 597 1062 519 
Q 1375 441 1716 441 
Q 2309 441 2620 675 
Q 2931 909 2931 1356 
Q 2931 1769 2642 2001 
Q 2353 2234 1838 2234 
L 1294 2234 
L 1294 2753 
L 1863 2753 
Q 2328 2753 2575 2939 
Q 2822 3125 2822 3475 
Q 2822 3834 2567 4026 
Q 2313 4219 1838 4219 
Q 1578 4219 1281 4162 
Q 984 4106 628 3988 
L 628 4550 
Q 988 4650 1302 4700 
Q 1616 4750 1894 4750 
Q 2613 4750 3031 4423 
Q 3450 4097 3450 3541 
Q 3450 3153 3228 2886 
Q 3006 2619 2597 2516 
z
" id="DejaVuSans-33" transform="scale(0.015625)"/>
       </defs>
       <use xlink:href="#DejaVuSans-33"/>
       <use x="63.623047" xlink:href="#DejaVuSans-30"/>
      </g>
     </g>
    </g>
    <g id="ytick_6">
     <g id="line2d_13">
      <g>
       <use style="stroke:#000000;stroke-width:0.8;" x="108" xlink:href="#m60c29d78a4" y="354.302954"/>
      </g>
     </g>
     <g id="text_13">
      <!-- 31 -->
      <g transform="translate(88.275 358.102173)scale(0.1 -0.1)">
       <defs>
        <path d="M 794 531 
L 1825 531 
L 1825 4091 
L 703 3866 
L 703 4441 
L 1819 4666 
L 2450 4666 
L 2450 531 
L 3481 531 
L 3481 0 
L 794 0 
L 794 531 
z
" id="DejaVuSans-31" transform="scale(0.015625)"/>
       </defs>
       <use xlink:href="#DejaVuSans-33"/>
       <use x="63.623047" xlink:href="#DejaVuSans-31"/>
      </g>
     </g>
    </g>
    <g id="ytick_7">
     <g id="line2d_14">
      <g>
       <use style="stroke:#000000;stroke-width:0.8;" x="108" xlink:href="#m60c29d78a4" y="300.320159"/>
      </g>
     </g>
     <g id="text_14">
      <!-- 32 -->
      <g transform="translate(88.275 304.119378)scale(0.1 -0.1)">
       <use xlink:href="#DejaVuSans-33"/>
       <use x="63.623047" xlink:href="#DejaVuSans-32"/>
      </g>
     </g>
    </g>
    <g id="ytick_8">
     <g id="line2d_15">
      <g>
       <use style="stroke:#000000;stroke-width:0.8;" x="108" xlink:href="#m60c29d78a4" y="246.337364"/>
      </g>
     </g>
     <g id="text_15">
      <!-- 33 -->
      <g transform="translate(88.275 250.136583)scale(0.1 -0.1)">
       <use xlink:href="#DejaVuSans-33"/>
       <use x="63.623047" xlink:href="#DejaVuSans-33"/>
      </g>
     </g>
    </g>
   </g>
   <g id="patch_3">
    <path d="M 108 628.321836 
L 108 231.358164 
" style="fill:none;stroke:#000000;stroke-linecap:square;stroke-linejoin:miter;stroke-width:0.8;"/>
   </g>
   <g id="patch_4">
    <path d="M 777.6 628.321836 
L 777.6 231.358164 
" style="fill:none;stroke:#000000;stroke-linecap:square;stroke-linejoin:miter;stroke-width:0.8;"/>
   </g>
   <g id="patch_5">
    <path d="M 108 628.321836 
L 777.6 628.321836 
" style="fill:none;stroke:#000000;stroke-linecap:square;stroke-linejoin:miter;stroke-width:0.8;"/>
   </g>
   <g id="patch_6">
    <path d="M 108 231.358164 
L 777.6 231.358164 
" style="fill:none;stroke:#000000;stroke-linecap:square;stroke-linejoin:miter;stroke-width:0.8;"/>
   </g>
   <g id="text_16">
    <!-- NOAA Buoys in NASA Site range rings (red) -->
    <g transform="translate(313.26375 225.358164)scale(0.12 -0.12)">
     <defs>
      <path d="M 628 4666 
L 1478 4666 
L 3547 763 
L 3547 4666 
L 4159 4666 
L 4159 0 
L 3309 0 
L 1241 3903 
L 1241 0 
L 628 0 
L 628 4666 
z
" id="DejaVuSans-4e" transform="scale(0.015625)"/>
      <path d="M 2522 4238 
Q 1834 4238 1429 3725 
Q 1025 3213 1025 2328 
Q 1025 1447 1429 934 
Q 1834 422 2522 422 
Q 3209 422 3611 934 
Q 4013 1447 4013 2328 
Q 4013 3213 3611 3725 
Q 3209 4238 2522 4238 
z
M 2522 4750 
Q 3503 4750 4090 4092 
Q 4678 3434 4678 2328 
Q 4678 1225 4090 567 
Q 3503 -91 2522 -91 
Q 1538 -91 948 565 
Q 359 1222 359 2328 
Q 359 3434 948 4092 
Q 1538 4750 2522 4750 
z
" id="DejaVuSans-4f" transform="scale(0.015625)"/>
      <path d="M 2188 4044 
L 1331 1722 
L 3047 1722 
L 2188 4044 
z
M 1831 4666 
L 2547 4666 
L 4325 0 
L 3669 0 
L 3244 1197 
L 1141 1197 
L 716 0 
L 50 0 
L 1831 4666 
z
" id="DejaVuSans-41" transform="scale(0.015625)"/>
      <path id="DejaVuSans-20" transform="scale(0.015625)"/>
      <path d="M 1259 2228 
L 1259 519 
L 2272 519 
Q 2781 519 3026 730 
Q 3272 941 3272 1375 
Q 3272 1813 3026 2020 
Q 2781 2228 2272 2228 
L 1259 2228 
z
M 1259 4147 
L 1259 2741 
L 2194 2741 
Q 2656 2741 2882 2914 
Q 3109 3088 3109 3444 
Q 3109 3797 2882 3972 
Q 2656 4147 2194 4147 
L 1259 4147 
z
M 628 4666 
L 2241 4666 
Q 2963 4666 3353 4366 
Q 3744 4066 3744 3513 
Q 3744 3084 3544 2831 
Q 3344 2578 2956 2516 
Q 3422 2416 3680 2098 
Q 3938 1781 3938 1306 
Q 3938 681 3513 340 
Q 3088 0 2303 0 
L 628 0 
L 628 4666 
z
" id="DejaVuSans-42" transform="scale(0.015625)"/>
      <path d="M 544 1381 
L 544 3500 
L 1119 3500 
L 1119 1403 
Q 1119 906 1312 657 
Q 1506 409 1894 409 
Q 2359 409 2629 706 
Q 2900 1003 2900 1516 
L 2900 3500 
L 3475 3500 
L 3475 0 
L 2900 0 
L 2900 538 
Q 2691 219 2414 64 
Q 2138 -91 1772 -91 
Q 1169 -91 856 284 
Q 544 659 544 1381 
z
M 1991 3584 
L 1991 3584 
z
" id="DejaVuSans-75" transform="scale(0.015625)"/>
      <path d="M 1959 3097 
Q 1497 3097 1228 2736 
Q 959 2375 959 1747 
Q 959 1119 1226 758 
Q 1494 397 1959 397 
Q 2419 397 2687 759 
Q 2956 1122 2956 1747 
Q 2956 2369 2687 2733 
Q 2419 3097 1959 3097 
z
M 1959 3584 
Q 2709 3584 3137 3096 
Q 3566 2609 3566 1747 
Q 3566 888 3137 398 
Q 2709 -91 1959 -91 
Q 1206 -91 779 398 
Q 353 888 353 1747 
Q 353 2609 779 3096 
Q 1206 3584 1959 3584 
z
" id="DejaVuSans-6f" transform="scale(0.015625)"/>
      <path d="M 2059 -325 
Q 1816 -950 1584 -1140 
Q 1353 -1331 966 -1331 
L 506 -1331 
L 506 -850 
L 844 -850 
Q 1081 -850 1212 -737 
Q 1344 -625 1503 -206 
L 1606 56 
L 191 3500 
L 800 3500 
L 1894 763 
L 2988 3500 
L 3597 3500 
L 2059 -325 
z
" id="DejaVuSans-79" transform="scale(0.015625)"/>
      <path d="M 2834 3397 
L 2834 2853 
Q 2591 2978 2328 3040 
Q 2066 3103 1784 3103 
Q 1356 3103 1142 2972 
Q 928 2841 928 2578 
Q 928 2378 1081 2264 
Q 1234 2150 1697 2047 
L 1894 2003 
Q 2506 1872 2764 1633 
Q 3022 1394 3022 966 
Q 3022 478 2636 193 
Q 2250 -91 1575 -91 
Q 1294 -91 989 -36 
Q 684 19 347 128 
L 347 722 
Q 666 556 975 473 
Q 1284 391 1588 391 
Q 1994 391 2212 530 
Q 2431 669 2431 922 
Q 2431 1156 2273 1281 
Q 2116 1406 1581 1522 
L 1381 1569 
Q 847 1681 609 1914 
Q 372 2147 372 2553 
Q 372 3047 722 3315 
Q 1072 3584 1716 3584 
Q 2034 3584 2315 3537 
Q 2597 3491 2834 3397 
z
" id="DejaVuSans-73" transform="scale(0.015625)"/>
      <path d="M 603 3500 
L 1178 3500 
L 1178 0 
L 603 0 
L 603 3500 
z
M 603 4863 
L 1178 4863 
L 1178 4134 
L 603 4134 
L 603 4863 
z
" id="DejaVuSans-69" transform="scale(0.015625)"/>
      <path d="M 3513 2113 
L 3513 0 
L 2938 0 
L 2938 2094 
Q 2938 2591 2744 2837 
Q 2550 3084 2163 3084 
Q 1697 3084 1428 2787 
Q 1159 2491 1159 1978 
L 1159 0 
L 581 0 
L 581 3500 
L 1159 3500 
L 1159 2956 
Q 1366 3272 1645 3428 
Q 1925 3584 2291 3584 
Q 2894 3584 3203 3211 
Q 3513 2838 3513 2113 
z
" id="DejaVuSans-6e" transform="scale(0.015625)"/>
      <path d="M 3425 4513 
L 3425 3897 
Q 3066 4069 2747 4153 
Q 2428 4238 2131 4238 
Q 1616 4238 1336 4038 
Q 1056 3838 1056 3469 
Q 1056 3159 1242 3001 
Q 1428 2844 1947 2747 
L 2328 2669 
Q 3034 2534 3370 2195 
Q 3706 1856 3706 1288 
Q 3706 609 3251 259 
Q 2797 -91 1919 -91 
Q 1588 -91 1214 -16 
Q 841 59 441 206 
L 441 856 
Q 825 641 1194 531 
Q 1563 422 1919 422 
Q 2459 422 2753 634 
Q 3047 847 3047 1241 
Q 3047 1584 2836 1778 
Q 2625 1972 2144 2069 
L 1759 2144 
Q 1053 2284 737 2584 
Q 422 2884 422 3419 
Q 422 4038 858 4394 
Q 1294 4750 2059 4750 
Q 2388 4750 2728 4690 
Q 3069 4631 3425 4513 
z
" id="DejaVuSans-53" transform="scale(0.015625)"/>
      <path d="M 1172 4494 
L 1172 3500 
L 2356 3500 
L 2356 3053 
L 1172 3053 
L 1172 1153 
Q 1172 725 1289 603 
Q 1406 481 1766 481 
L 2356 481 
L 2356 0 
L 1766 0 
Q 1100 0 847 248 
Q 594 497 594 1153 
L 594 3053 
L 172 3053 
L 172 3500 
L 594 3500 
L 594 4494 
L 1172 4494 
z
" id="DejaVuSans-74" transform="scale(0.015625)"/>
      <path d="M 3597 1894 
L 3597 1613 
L 953 1613 
Q 991 1019 1311 708 
Q 1631 397 2203 397 
Q 2534 397 2845 478 
Q 3156 559 3463 722 
L 3463 178 
Q 3153 47 2828 -22 
Q 2503 -91 2169 -91 
Q 1331 -91 842 396 
Q 353 884 353 1716 
Q 353 2575 817 3079 
Q 1281 3584 2069 3584 
Q 2775 3584 3186 3129 
Q 3597 2675 3597 1894 
z
M 3022 2063 
Q 3016 2534 2758 2815 
Q 2500 3097 2075 3097 
Q 1594 3097 1305 2825 
Q 1016 2553 972 2059 
L 3022 2063 
z
" id="DejaVuSans-65" transform="scale(0.015625)"/>
      <path d="M 2631 2963 
Q 2534 3019 2420 3045 
Q 2306 3072 2169 3072 
Q 1681 3072 1420 2755 
Q 1159 2438 1159 1844 
L 1159 0 
L 581 0 
L 581 3500 
L 1159 3500 
L 1159 2956 
Q 1341 3275 1631 3429 
Q 1922 3584 2338 3584 
Q 2397 3584 2469 3576 
Q 2541 3569 2628 3553 
L 2631 2963 
z
" id="DejaVuSans-72" transform="scale(0.015625)"/>
      <path d="M 2194 1759 
Q 1497 1759 1228 1600 
Q 959 1441 959 1056 
Q 959 750 1161 570 
Q 1363 391 1709 391 
Q 2188 391 2477 730 
Q 2766 1069 2766 1631 
L 2766 1759 
L 2194 1759 
z
M 3341 1997 
L 3341 0 
L 2766 0 
L 2766 531 
Q 2569 213 2275 61 
Q 1981 -91 1556 -91 
Q 1019 -91 701 211 
Q 384 513 384 1019 
Q 384 1609 779 1909 
Q 1175 2209 1959 2209 
L 2766 2209 
L 2766 2266 
Q 2766 2663 2505 2880 
Q 2244 3097 1772 3097 
Q 1472 3097 1187 3025 
Q 903 2953 641 2809 
L 641 3341 
Q 956 3463 1253 3523 
Q 1550 3584 1831 3584 
Q 2591 3584 2966 3190 
Q 3341 2797 3341 1997 
z
" id="DejaVuSans-61" transform="scale(0.015625)"/>
      <path d="M 2906 1791 
Q 2906 2416 2648 2759 
Q 2391 3103 1925 3103 
Q 1463 3103 1205 2759 
Q 947 2416 947 1791 
Q 947 1169 1205 825 
Q 1463 481 1925 481 
Q 2391 481 2648 825 
Q 2906 1169 2906 1791 
z
M 3481 434 
Q 3481 -459 3084 -895 
Q 2688 -1331 1869 -1331 
Q 1566 -1331 1297 -1286 
Q 1028 -1241 775 -1147 
L 775 -588 
Q 1028 -725 1275 -790 
Q 1522 -856 1778 -856 
Q 2344 -856 2625 -561 
Q 2906 -266 2906 331 
L 2906 616 
Q 2728 306 2450 153 
Q 2172 0 1784 0 
Q 1141 0 747 490 
Q 353 981 353 1791 
Q 353 2603 747 3093 
Q 1141 3584 1784 3584 
Q 2172 3584 2450 3431 
Q 2728 3278 2906 2969 
L 2906 3500 
L 3481 3500 
L 3481 434 
z
" id="DejaVuSans-67" transform="scale(0.015625)"/>
      <path d="M 1984 4856 
Q 1566 4138 1362 3434 
Q 1159 2731 1159 2009 
Q 1159 1288 1364 580 
Q 1569 -128 1984 -844 
L 1484 -844 
Q 1016 -109 783 600 
Q 550 1309 550 2009 
Q 550 2706 781 3412 
Q 1013 4119 1484 4856 
L 1984 4856 
z
" id="DejaVuSans-28" transform="scale(0.015625)"/>
      <path d="M 2906 2969 
L 2906 4863 
L 3481 4863 
L 3481 0 
L 2906 0 
L 2906 525 
Q 2725 213 2448 61 
Q 2172 -91 1784 -91 
Q 1150 -91 751 415 
Q 353 922 353 1747 
Q 353 2572 751 3078 
Q 1150 3584 1784 3584 
Q 2172 3584 2448 3432 
Q 2725 3281 2906 2969 
z
M 947 1747 
Q 947 1113 1208 752 
Q 1469 391 1925 391 
Q 2381 391 2643 752 
Q 2906 1113 2906 1747 
Q 2906 2381 2643 2742 
Q 2381 3103 1925 3103 
Q 1469 3103 1208 2742 
Q 947 2381 947 1747 
z
" id="DejaVuSans-64" transform="scale(0.015625)"/>
      <path d="M 513 4856 
L 1013 4856 
Q 1481 4119 1714 3412 
Q 1947 2706 1947 2009 
Q 1947 1309 1714 600 
Q 1481 -109 1013 -844 
L 513 -844 
Q 928 -128 1133 580 
Q 1338 1288 1338 2009 
Q 1338 2731 1133 3434 
Q 928 4138 513 4856 
z
" id="DejaVuSans-29" transform="scale(0.015625)"/>
     </defs>
     <use xlink:href="#DejaVuSans-4e"/>
     <use x="74.804688" xlink:href="#DejaVuSans-4f"/>
     <use x="151.765625" xlink:href="#DejaVuSans-41"/>
     <use x="222.923828" xlink:href="#DejaVuSans-41"/>
     <use x="291.332031" xlink:href="#DejaVuSans-20"/>
     <use x="323.119141" xlink:href="#DejaVuSans-42"/>
     <use x="391.722656" xlink:href="#DejaVuSans-75"/>
     <use x="455.101562" xlink:href="#DejaVuSans-6f"/>
     <use x="516.283203" xlink:href="#DejaVuSans-79"/>
     <use x="575.462891" xlink:href="#DejaVuSans-73"/>
     <use x="627.5625" xlink:href="#DejaVuSans-20"/>
     <use x="659.349609" xlink:href="#DejaVuSans-69"/>
     <use x="687.132812" xlink:href="#DejaVuSans-6e"/>
     <use x="750.511719" xlink:href="#DejaVuSans-20"/>
     <use x="782.298828" xlink:href="#DejaVuSans-4e"/>
     <use x="857.103516" xlink:href="#DejaVuSans-41"/>
     <use x="925.511719" xlink:href="#DejaVuSans-53"/>
     <use x="990.863281" xlink:href="#DejaVuSans-41"/>
     <use x="1059.271484" xlink:href="#DejaVuSans-20"/>
     <use x="1091.058594" xlink:href="#DejaVuSans-53"/>
     <use x="1154.535156" xlink:href="#DejaVuSans-69"/>
     <use x="1182.318359" xlink:href="#DejaVuSans-74"/>
     <use x="1221.527344" xlink:href="#DejaVuSans-65"/>
     <use x="1283.050781" xlink:href="#DejaVuSans-20"/>
     <use x="1314.837891" xlink:href="#DejaVuSans-72"/>
     <use x="1355.951172" xlink:href="#DejaVuSans-61"/>
     <use x="1417.230469" xlink:href="#DejaVuSans-6e"/>
     <use x="1480.609375" xlink:href="#DejaVuSans-67"/>
     <use x="1544.085938" xlink:href="#DejaVuSans-65"/>
     <use x="1605.609375" xlink:href="#DejaVuSans-20"/>
     <use x="1637.396484" xlink:href="#DejaVuSans-72"/>
     <use x="1678.509766" xlink:href="#DejaVuSans-69"/>
     <use x="1706.292969" xlink:href="#DejaVuSans-6e"/>
     <use x="1769.671875" xlink:href="#DejaVuSans-67"/>
     <use x="1833.148438" xlink:href="#DejaVuSans-73"/>
     <use x="1885.248047" xlink:href="#DejaVuSans-20"/>
     <use x="1917.035156" xlink:href="#DejaVuSans-28"/>
     <use x="1956.048828" xlink:href="#DejaVuSans-72"/>
     <use x="1994.912109" xlink:href="#DejaVuSans-65"/>
     <use x="2056.435547" xlink:href="#DejaVuSans-64"/>
     <use x="2119.912109" xlink:href="#DejaVuSans-29"/>
    </g>
   </g>
  </g>
 </g>
 <defs>
  <clipPath id="p24492188bc">
   <rect height="396.963672" width="669.6" x="108" y="231.358164"/>
  </clipPath>
 </defs>
</svg>
